{
.appVersion = "983";
copyright = "Copyright 2016 Google Inc. All Rights Reserved.";
customParameters = (
{
name = description;
value = "Designed by Monotype design team.";
},
{
name = license;
value = "This Font Software is licensed under the SIL Open Font License, Version 1.1. This Font Software is distributed on an \"AS IS\" BASIS, WITHOUT WARRANTIES OR CONDITIONS OF ANY KIND, either express or implied. See the SIL Open Font License for the specific language, permissions and limitations governing your use of this Font Software.";
},
{
name = licenseURL;
value = "http://scripts.sil.org/OFL";
},
{
name = vendorID;
value = GOOG;
},
{
name = trademark;
value = "Noto is a trademark of Google Inc.";
},
{
name = fsType;
value = (
);
},
{
name = panose;
value = (
2,
4,
5,
3,
5,
3,
6,
2,
2,
3
);
},
{
name = unicodeRanges;
value = (
71
);
},
{
name = codePageRanges;
value = (
1252,
1255,
1256,
1258,
932,
936,
949,
950,
1361,
869,
866,
865,
864,
863,
862,
861,
860,
857,
855,
852,
737,
850,
437
);
},
{
name = glyphOrder;
value = (
.notdef,
uni0000,
uni000D,
space,
afii61664,
afii301,
afii299,
afii300,
uni0710,
g9,
g10,
g11,
g12,
uni0711,
uni0712,
g15,
g16,
g17,
uni0713,
g19,
g20,
g21,
uni0714,
g23,
g24,
g25,
uni0715,
g27,
uni0716,
g29,
uni0717,
g31,
uni0718,
g33,
uni0719,
g35,
uni071A,
g37,
g38,
g39,
uni071B,
g41,
g42,
g43,
uni071C,
g45,
g46,
g47,
uni071D,
g49,
g50,
g51,
uni071E,
uni071F,
g54,
g55,
g56,
uni0720,
g58,
g59,
g60,
uni0721,
g62,
g63,
g64,
uni0722,
g66,
g67,
g68,
uni0723,
g70,
g71,
g72,
uni0724,
g74,
g75,
g76,
uni0725,
g78,
g79,
g80,
uni0726,
g82,
g83,
g84,
uni0727,
g86,
g87,
g88,
uni0728,
g90,
uni0729,
g92,
g93,
g94,
uni072A,
g96,
uni072B,
g98,
g99,
g100,
uni072C,
g102,
uni072D,
g104,
g105,
g106,
uni072E,
g108,
g109,
g110,
uni072F,
g112,
uni074D,
g114,
uni074E,
g116,
g117,
g118,
uni074F,
g120,
g121,
g122,
afii57409,
afii57440,
uni0700,
uni0701,
uni0702,
uni0703,
uni0704,
uni0705,
uni0706,
uni0707,
uni0708,
uni0709,
uni070A,
uni070B,
uni070C,
uni070D,
uni070F,

glyphs = (
{
glyphname = .notdef;
lastChange = "2016-11-30 01:17:22 +0000";
layers = (
{
layerId = "BBACE0B0-BA28-44BD-A35B-EF629929FF1A";
paths = (
{
closed = 1;
nodes = (
"1034 0 LINE",
"1034 1462 LINE",
"193 1462 LINE",
"193 0 LINE"
);
},
{
closed = 1;
nodes = (
"297 1358 LINE",
"930 1358 LINE",
"930 104 LINE",
"297 104 LINE"
);
}
);
width = 1229;
}
);
note = .notdef;
},
{
glyphname = afii61664;
lastChange = "2016-11-30 01:17:22 +0000";
layers = (
{
layerId = "BBACE0B0-BA28-44BD-A35B-EF629929FF1A";
paths = (
{
closed = 1;
nodes = (
"36 0 LINE",
"36 1462 LINE",
"-36 1462 LINE",
"-36 0 LINE"
);
}
);
width = 0;
}
);
note = afii61664;
unicode = 200C;
},
{
glyphname = afii301;
lastChange = "2016-11-30 01:17:22 +0000";
layers = (
{
layerId = "BBACE0B0-BA28-44BD-A35B-EF629929FF1A";
paths = (
{
closed = 1;
nodes = (
"36 0 LINE",
"36 1185 LINE",
"170 1049 LINE",
"219 1098 LINE",
"48 1267 LINE",
"219 1435 LINE",
"170 1484 LINE",
"0 1313 LINE",
"-170 1484 LINE",
"-219 1435 LINE",
"-48 1267 LINE",
"-219 1098 LINE",
"-170 1049 LINE",
"-36 1185 LINE",
"-36 0 LINE"
);
}
);
width = 0;
}
);
note = afii301;
unicode = 200D;
},
{
glyphname = afii299;
lastChange = "2016-11-30 01:17:22 +0000";
layers = (
{
layerId = "BBACE0B0-BA28-44BD-A35B-EF629929FF1A";
paths = (
{
closed = 1;
nodes = (
"35 0 LINE",
"35 1234 LINE",
"301 1234 LINE",
"164 1104 LINE",
"213 1055 LINE",
"430 1269 LINE",
"213 1484 LINE",
"164 1435 LINE",
"301 1305 LINE",
"-36 1305 LINE",
"-36 0 LINE"
);
}
);
width = 0;
}
);
note = afii299;
unicode = 200E;
},
{
glyphname = afii300;
lastChange = "2016-11-30 01:17:22 +0000";
layers = (
{
layerId = "BBACE0B0-BA28-44BD-A35B-EF629929FF1A";
paths = (
{
closed = 1;
nodes = (
"35 0 LINE",
"35 1305 LINE",
"-302 1305 LINE",
"-165 1435 LINE",
"-214 1484 LINE",
"-431 1269 LINE",
"-214 1055 LINE",
"-165 1104 LINE",
"-302 1234 LINE",
"-36 1234 LINE",
"-36 0 LINE"
);
}
);
width = 0;
}
);
note = afii300;
unicode = 200F;
},
{
glyphname = uni0710;
lastChange = "2016-11-30 01:17:22 +0000";
layers = (
{
layerId = "BBACE0B0-BA28-44BD-A35B-EF629929FF1A";
paths = (
{
closed = 1;
nodes = (
"639 0 LINE",
"639 155 LINE",
"454 155 LINE",
"350 154 LINE",
"333 153 OFFCURVE",
"322 152 OFFCURVE",
"315 152 CURVE",
"315 160 LINE",
"454 349 OFFCURVE",
"544 610 OFFCURVE",
"544 845 CURVE SMOOTH",
"544 1117 OFFCURVE",
"454 1215 OFFCURVE",
"273 1231 CURVE",
"202 1085 LINE",
"351 1017 LINE",
"379 984 OFFCURVE",
"397 897 OFFCURVE",
"397 825 CURVE SMOOTH",
"397 597 OFFCURVE",
"290 327 OFFCURVE",
"122 123 CURVE",
"118 0 LINE"
);
}
);
width = 759;
}
);
note = uni0710;
unicode = 0710;
},
{
glyphname = g9;
lastChange = "2016-11-30 01:17:22 +0000";
layers = (
{
layerId = "BBACE0B0-BA28-44BD-A35B-EF629929FF1A";
paths = (
{
closed = 1;
nodes = (
"639 0 LINE",
"639 155 LINE",
"454 155 LINE",
"350 154 LINE",
"333 153 OFFCURVE",
"322 152 OFFCURVE",
"315 152 CURVE",
"315 160 LINE",
"454 349 OFFCURVE",
"544 610 OFFCURVE",
"544 845 CURVE SMOOTH",
"544 1117 OFFCURVE",
"454 1215 OFFCURVE",
"273 1231 CURVE",
"202 1085 LINE",
"351 1017 LINE",
"379 984 OFFCURVE",
"397 897 OFFCURVE",
"397 825 CURVE SMOOTH",
"397 597 OFFCURVE",
"290 327 OFFCURVE",
"122 123 CURVE",
"118 0 LINE"
);
}
);
width = 759;
}
);
note = g9;
},
{
glyphname = g10;
lastChange = "2016-11-30 01:17:22 +0000";
layers = (
{
layerId = "BBACE0B0-BA28-44BD-A35B-EF629929FF1A";
paths = (
{
closed = 1;
nodes = (
"288 -138 LINE",
"291 0 LINE",
"638 0 LINE",
"638 155 LINE",
"488 155 LINE SMOOTH",
"435 155 OFFCURVE",
"382 154 OFFCURVE",
"329 152 CURVE",
"329 160 LINE",
"334 168 OFFCURVE",
"339 177 OFFCURVE",
"346 187 CURVE",
"352 197 OFFCURVE",
"358 208 OFFCURVE",
"364 219 CURVE SMOOTH",
"382 251 LINE SMOOTH",
"486 442 OFFCURVE",
"543 635 OFFCURVE",
"543 835 CURVE SMOOTH",
"543 1111 OFFCURVE",
"453 1215 OFFCURVE",
"272 1231 CURVE",
"201 1085 LINE",
"350 1017 LINE",
"377 986 OFFCURVE",
"396 912 OFFCURVE",
"396 825 CURVE SMOOTH",
"396 610 OFFCURVE",
"325 408 OFFCURVE",
"170 155 CURVE",
"120 155 LINE",
"120 12 LINE",
"148 -1 LINE",
"267 -138 LINE"
);
}
);
width = 758;
}
);
note = g10;
},
{
glyphname = g11;
lastChange = "2016-11-30 01:17:22 +0000";
layers = (
{
layerId = "BBACE0B0-BA28-44BD-A35B-EF629929FF1A";
paths = (
{
closed = 1;
nodes = (
"288 -138 LINE",
"291 0 LINE",
"730 0 LINE",
"730 155 LINE",
"488 155 LINE SMOOTH",
"435 155 OFFCURVE",
"382 154 OFFCURVE",
"329 152 CURVE",
"329 160 LINE",
"334 168 OFFCURVE",
"339 177 OFFCURVE",
"346 187 CURVE",
"352 197 OFFCURVE",
"358 208 OFFCURVE",
"364 219 CURVE SMOOTH",
"382 251 LINE SMOOTH",
"486 442 OFFCURVE",
"543 635 OFFCURVE",
"543 835 CURVE SMOOTH",
"543 1111 OFFCURVE",
"453 1215 OFFCURVE",
"272 1231 CURVE",
"201 1085 LINE",
"350 1017 LINE",
"377 986 OFFCURVE",
"396 912 OFFCURVE",
"396 825 CURVE SMOOTH",
"396 610 OFFCURVE",
"325 408 OFFCURVE",
"170 155 CURVE",
"120 155 LINE",
"120 12 LINE",
"148 -1 LINE",
"267 -138 LINE"
);
}
);
width = 730;
}
);
note = g11;
},
{
glyphname = g12;
lastChange = "2016-11-30 01:17:22 +0000";
layers = (
{
layerId = "BBACE0B0-BA28-44BD-A35B-EF629929FF1A";
paths = (
{
closed = 1;
nodes = (
"288 -138 LINE",
"291 0 LINE",
"730 0 LINE",
"730 155 LINE",
"488 155 LINE SMOOTH",
"435 155 OFFCURVE",
"382 154 OFFCURVE",
"329 152 CURVE",
"329 160 LINE",
"334 168 OFFCURVE",
"339 177 OFFCURVE",
"346 187 CURVE",
"352 197 OFFCURVE",
"358 208 OFFCURVE",
"364 219 CURVE SMOOTH",
"382 251 LINE SMOOTH",
"486 442 OFFCURVE",
"543 635 OFFCURVE",
"543 835 CURVE SMOOTH",
"543 1111 OFFCURVE",
"453 1215 OFFCURVE",
"272 1231 CURVE",
"201 1085 LINE",
"350 1017 LINE",
"377 986 OFFCURVE",
"396 912 OFFCURVE",
"396 825 CURVE SMOOTH",
"396 610 OFFCURVE",
"325 408 OFFCURVE",
"170 155 CURVE",
"120 155 LINE",
"120 12 LINE",
"148 -1 LINE",
"267 -138 LINE"
);
}
);
width = 730;
}
);
note = g12;
},
{
glyphname = uni0711;
lastChange = "2016-11-30 01:15:49 +0000";
layers = (
{
layerId = "BBACE0B0-BA28-44BD-A35B-EF629929FF1A";
paths = (
{
closed = 1;
nodes = (
"105 990 LINE",
"105 1057 LINE",
"47 1057 LINE SMOOTH",
"22 1057 OFFCURVE",
"-4 1056 OFFCURVE",
"-33 1054 CURVE",
"-33 1061 LINE",
"46 1165 OFFCURVE",
"71 1262 OFFCURVE",
"71 1349 CURVE SMOOTH",
"71 1461 OFFCURVE",
"33 1513 OFFCURVE",
"-50 1520 CURVE",
"-84 1450 LINE",
"-19 1424 LINE",
"-6 1407 OFFCURVE",
"0 1370 OFFCURVE",
"0 1341 CURVE SMOOTH",
"0 1254 OFFCURVE",
"-37 1143 OFFCURVE",
"-118 1043 CURVE",
"-120 990 LINE"
);
}
);
width = 0;
}
);
note = uni0711;
unicode = 0711;
},
{
glyphname = uni0712;
lastChange = "2016-11-30 01:17:22 +0000";
layers = (
{
layerId = "BBACE0B0-BA28-44BD-A35B-EF629929FF1A";
paths = (
{
closed = 1;
nodes = (
"1369 0 LINE",
"1449 110 LINE",
"1449 872 LINE",
"991 872 LINE SMOOTH",
"835 872 OFFCURVE",
"676 886 OFFCURVE",
"627 898 CURVE",
"627 752 LINE",
"687 736 OFFCURVE",
"842 722 OFFCURVE",
"1001 722 CURVE SMOOTH",
"1299 722 LINE",
"1299 155 LINE",
"537 155 LINE SMOOTH",
"357 155 OFFCURVE",
"264 180 OFFCURVE",
"192 283 CURVE",
"100 160 LINE",
"143 61 OFFCURVE",
"279 0 OFFCURVE",
"491 0 CURVE SMOOTH"
);
}
);
width = 1589;
}
);
note = uni0712;
unicode = 0712;
},
{
glyphname = g15;
lastChange = "2016-11-30 01:17:22 +0000";
layers = (
{
layerId = "BBACE0B0-BA28-44BD-A35B-EF629929FF1A";
paths = (
{
closed = 1;
nodes = (
"1320 0 LINE",
"1355 94 LINE",
"1359 94 LINE",
"1407 26 OFFCURVE",
"1484 0 OFFCURVE",
"1581 0 CURVE SMOOTH",
"1664 0 LINE",
"1664 155 LINE",
"1594 155 LINE SMOOTH",
"1551 155 OFFCURVE",
"1521 161 OFFCURVE",
"1504 173 CURVE SMOOTH",
"1470 197 OFFCURVE",
"1449 245 OFFCURVE",
"1449 348 CURVE SMOOTH",
"1449 872 LINE",
"991 872 LINE SMOOTH",
"835 872 OFFCURVE",
"676 886 OFFCURVE",
"627 898 CURVE",
"627 752 LINE",
"687 736 OFFCURVE",
"842 722 OFFCURVE",
"1001 722 CURVE SMOOTH",
"1299 722 LINE",
"1299 335 LINE SMOOTH",
"1299 262 OFFCURVE",
"1308 202 OFFCURVE",
"1326 155 CURVE",
"537 155 LINE SMOOTH",
"357 155 OFFCURVE",
"264 180 OFFCURVE",
"192 283 CURVE",
"100 160 LINE",
"143 61 OFFCURVE",
"279 0 OFFCURVE",
"491 0 CURVE SMOOTH"
);
}
);
width = 1664;
}
);
note = g15;
},
{
glyphname = g16;
lastChange = "2016-11-30 01:17:22 +0000";
layers = (
{
layerId = "BBACE0B0-BA28-44BD-A35B-EF629929FF1A";
paths = (
{
closed = 1;
nodes = (
"833 0 LINE",
"868 94 LINE",
"872 94 LINE",
"920 26 OFFCURVE",
"997 0 OFFCURVE",
"1094 0 CURVE SMOOTH",
"1177 0 LINE",
"1177 155 LINE",
"1107 155 LINE SMOOTH",
"1064 155 OFFCURVE",
"1034 161 OFFCURVE",
"1017 173 CURVE SMOOTH",
"983 197 OFFCURVE",
"962 245 OFFCURVE",
"962 348 CURVE SMOOTH",
"962 872 LINE",
"504 872 LINE SMOOTH",
"348 872 OFFCURVE",
"189 886 OFFCURVE",
"140 898 CURVE",
"140 752 LINE",
"200 736 OFFCURVE",
"355 722 OFFCURVE",
"514 722 CURVE SMOOTH",
"812 722 LINE",
"812 335 LINE SMOOTH",
"812 262 OFFCURVE",
"821 202 OFFCURVE",
"839 155 CURVE",
"0 155 LINE SMOOTH",
"-44 155 OFFCURVE",
"-80 125 OFFCURVE",
"-80 77 CURVE SMOOTH",
"-80 29 OFFCURVE",
"-44 0 OFFCURVE",
"0 0 CURVE SMOOTH"
);
}
);
width = 1177;
}
);
note = g16;
},
{
glyphname = g17;
lastChange = "2016-11-30 01:17:22 +0000";
layers = (
{
layerId = "BBACE0B0-BA28-44BD-A35B-EF629929FF1A";
paths = (
{
closed = 1;
nodes = (
"882 0 LINE",
"962 110 LINE",
"962 872 LINE",
"504 872 LINE SMOOTH",
"348 872 OFFCURVE",
"189 886 OFFCURVE",
"140 898 CURVE",
"140 752 LINE",
"200 736 OFFCURVE",
"355 722 OFFCURVE",
"514 722 CURVE SMOOTH",
"812 722 LINE",
"812 155 LINE",
"0 155 LINE SMOOTH",
"-44 155 OFFCURVE",
"-80 125 OFFCURVE",
"-80 77 CURVE SMOOTH",
"-80 29 OFFCURVE",
"-44 0 OFFCURVE",
"0 0 CURVE SMOOTH"
);
}
);
width = 1102;
}
);
note = g17;
},
{
glyphname = uni0713;
lastChange = "2016-11-30 01:15:49 +0000";
layers = (
{
layerId = "BBACE0B0-BA28-44BD-A35B-EF629929FF1A";
paths = (
{
closed = 1;
nodes = (
"1856 -492 LINE",
"1856 -288 LINE",
"1761 -288 LINE",
"878 1420 LINE",
"734 1350 LINE",
"1349 155 LINE",
"547 155 LINE SMOOTH",
"358 155 OFFCURVE",
"261 184 OFFCURVE",
"192 283 CURVE",
"100 160 LINE",
"143 61 OFFCURVE",
"279 0 OFFCURVE",
"491 0 CURVE SMOOTH",
"1498 0 LINE",
"1659 -312 LINE",
"1659 -492 LINE"
);
}
);
width = 1706;
}
);
note = uni0713;
unicode = 0713;
},
{
glyphname = g19;
lastChange = "2016-11-30 01:17:22 +0000";
layers = (
{
layerId = "BBACE0B0-BA28-44BD-A35B-EF629929FF1A";
paths = (
{
closed = 1;
nodes = (
"1793 -492 LINE",
"1793 -288 LINE",
"1698 -288 LINE",
"1548 0 LINE",
"1565 0 LINE",
"1565 155 LINE",
"1549 155 OFFCURVE",
"1535 164 OFFCURVE",
"1522 182 CURVE SMOOTH",
"1509 199 OFFCURVE",
"1491 230 OFFCURVE",
"1468 275 CURVE SMOOTH",
"879 1420 LINE",
"735 1349 LINE",
"1350 155 LINE",
"547 155 LINE SMOOTH",
"358 155 OFFCURVE",
"261 184 OFFCURVE",
"192 283 CURVE",
"100 160 LINE",
"143 61 OFFCURVE",
"279 0 OFFCURVE",
"491 0 CURVE SMOOTH",
"1346 0 LINE",
"1383 94 LINE",
"1387 94 LINE",
"1596 -312 LINE",
"1596 -492 LINE"
);
}
);
width = 1565;
}
);
note = g19;
},
{
glyphname = g20;
lastChange = "2016-11-30 01:17:22 +0000";
layers = (
{
layerId = "BBACE0B0-BA28-44BD-A35B-EF629929FF1A";
paths = (
{
closed = 1;
nodes = (
"1010 -492 LINE",
"1010 -288 LINE",
"915 -288 LINE",
"765 0 LINE",
"782 0 LINE",
"782 155 LINE",
"766 155 OFFCURVE",
"752 164 OFFCURVE",
"739 182 CURVE SMOOTH",
"726 199 OFFCURVE",
"708 230 OFFCURVE",
"685 275 CURVE SMOOTH",
"96 1420 LINE",
"-48 1350 LINE",
"567 155 LINE",
"0 155 LINE SMOOTH",
"-44 155 OFFCURVE",
"-80 125 OFFCURVE",
"-80 77 CURVE SMOOTH",
"-80 29 OFFCURVE",
"-44 0 OFFCURVE",
"0 0 CURVE SMOOTH",
"563 0 LINE",
"600 94 LINE",
"604 94 LINE",
"813 -312 LINE",
"813 -492 LINE"
);
}
);
width = 782;
}
);
note = g20;
},
{
glyphname = g21;
lastChange = "2016-11-30 01:15:49 +0000";
layers = (
{
layerId = "BBACE0B0-BA28-44BD-A35B-EF629929FF1A";
paths = (
{
closed = 1;
nodes = (
"1074 -492 LINE",
"1074 -288 LINE",
"979 -288 LINE",
"96 1420 LINE",
"-48 1350 LINE",
"567 155 LINE",
"0 155 LINE SMOOTH",
"-44 155 OFFCURVE",
"-80 125 OFFCURVE",
"-80 77 CURVE SMOOTH",
"-80 29 OFFCURVE",
"-44 0 OFFCURVE",
"0 0 CURVE SMOOTH",
"716 0 LINE",
"877 -312 LINE",
"877 -492 LINE"
);
}
);
width = 924;
}
);
note = g21;
},
{
glyphname = g23;
lastChange = "2016-11-30 01:17:22 +0000";
layers = (
{
layerId = "BBACE0B0-BA28-44BD-A35B-EF629929FF1A";
paths = (
{
closed = 1;
nodes = (
"1793 -492 LINE",
"1793 -288 LINE",
"1698 -288 LINE",
"1548 0 LINE",
"1565 0 LINE",
"1565 155 LINE",
"1549 155 OFFCURVE",
"1535 164 OFFCURVE",
"1522 182 CURVE SMOOTH",
"1509 199 OFFCURVE",
"1491 230 OFFCURVE",
"1468 275 CURVE SMOOTH",
"879 1420 LINE",
"735 1349 LINE",
"1350 155 LINE",
"547 155 LINE SMOOTH",
"358 155 OFFCURVE",
"261 184 OFFCURVE",
"192 283 CURVE",
"100 160 LINE",
"143 61 OFFCURVE",
"279 0 OFFCURVE",
"491 0 CURVE SMOOTH",
"1346 0 LINE",
"1383 94 LINE",
"1387 94 LINE",
"1596 -312 LINE",
"1596 -492 LINE"
);
},
{
closed = 1;
nodes = (
"1018 319 LINE",
"1018 494 LINE",
"851 494 LINE",
"851 319 LINE"
);
}
);
width = 1565;
}
);
note = g23;
},
{
glyphname = g24;
lastChange = "2016-11-30 01:17:22 +0000";
layers = (
{
layerId = "BBACE0B0-BA28-44BD-A35B-EF629929FF1A";
paths = (
{
closed = 1;
nodes = (
"1010 -492 LINE",
"1010 -288 LINE",
"915 -288 LINE",
"765 0 LINE",
"782 0 LINE",
"782 155 LINE",
"766 155 OFFCURVE",
"752 164 OFFCURVE",
"739 182 CURVE SMOOTH",
"726 199 OFFCURVE",
"708 230 OFFCURVE",
"685 275 CURVE SMOOTH",
"96 1420 LINE",
"-48 1350 LINE",
"567 155 LINE",
"0 155 LINE SMOOTH",
"-44 155 OFFCURVE",
"-80 125 OFFCURVE",
"-80 77 CURVE SMOOTH",
"-80 29 OFFCURVE",
"-44 0 OFFCURVE",
"0 0 CURVE SMOOTH",
"563 0 LINE",
"600 94 LINE",
"604 94 LINE",
"813 -312 LINE",
"813 -492 LINE"
);
},
{
closed = 1;
nodes = (
"197 319 LINE",
"197 494 LINE",
"30 494 LINE",
"30 319 LINE"
);
}
);
width = 782;
}
);
note = g24;
},
{
glyphname = g25;
lastChange = "2016-11-30 01:15:49 +0000";
layers = (
{
layerId = "BBACE0B0-BA28-44BD-A35B-EF629929FF1A";
paths = (
{
closed = 1;
nodes = (
"1074 -492 LINE",
"1074 -288 LINE",
"979 -288 LINE",
"96 1420 LINE",
"-48 1350 LINE",
"567 155 LINE",
"0 155 LINE SMOOTH",
"-44 155 OFFCURVE",
"-80 125 OFFCURVE",
"-80 77 CURVE SMOOTH",
"-80 29 OFFCURVE",
"-44 0 OFFCURVE",
"0 0 CURVE SMOOTH",
"716 0 LINE",
"877 -312 LINE",
"877 -492 LINE"
);
},
{
closed = 1;
nodes = (
"197 319 LINE",
"197 494 LINE",
"30 494 LINE",
"30 319 LINE"
);
}
);
width = 924;
}
);
note = g25;
},
{
glyphname = g27;
lastChange = "2016-11-30 01:17:22 +0000";
layers = (
{
layerId = "BBACE0B0-BA28-44BD-A35B-EF629929FF1A";
paths = (
{
closed = 1;
nodes = (
"805 0 LINE",
"841 94 LINE",
"845 94 LINE",
"885 31 OFFCURVE",
"946 0 OFFCURVE",
"1028 0 CURVE SMOOTH",
"1061 0 LINE",
"1061 155 LINE",
"1028 155 LINE SMOOTH",
"991 155 OFFCURVE",
"959 176 OFFCURVE",
"946 247 CURVE SMOOTH",
"903 474 LINE SMOOTH",
"854 746 OFFCURVE",
"698 881 OFFCURVE",
"438 881 CURVE SMOOTH",
"341 881 OFFCURVE",
"233 853 OFFCURVE",
"185 816 CURVE",
"185 680 LINE",
"244 711 OFFCURVE",
"340 731 OFFCURVE",
"407 731 CURVE SMOOTH",
"619 731 OFFCURVE",
"727 626 OFFCURVE",
"768 391 CURVE SMOOTH",
"793 245 LINE SMOOTH",
"800 210 OFFCURVE",
"805 182 OFFCURVE",
"816 155 CURVE",
"160 155 LINE",
"160 0 LINE"
);
},
{
closed = 1;
nodes = (
"616 -366 LINE",
"616 -191 LINE",
"449 -191 LINE",
"449 -366 LINE"
);
}
);
width = 1061;
}
);
note = g27;
},
{
glyphname = uni0716;
lastChange = "2016-11-30 01:17:22 +0000";
layers = (
{
layerId = "BBACE0B0-BA28-44BD-A35B-EF629929FF1A";
paths = (
{
closed = 1;
nodes = (
"923 0 LINE",
"925 24 OFFCURVE",
"926 49 OFFCURVE",
"926 76 CURVE SMOOTH",
"926 148 LINE SMOOTH",
"926 656 OFFCURVE",
"769 881 OFFCURVE",
"433 881 CURVE SMOOTH",
"334 881 OFFCURVE",
"245 854 OFFCURVE",
"184 818 CURVE",
"184 677 LINE",
"271 716 OFFCURVE",
"346 730 OFFCURVE",
"414 730 CURVE SMOOTH",
"655 730 OFFCURVE",
"774 558 OFFCURVE",
"774 155 CURVE",
"160 155 LINE",
"160 0 LINE"
);
}
);
width = 1066;
}
);
note = uni0716;
unicode = 0716;
},
{
glyphname = g29;
lastChange = "2016-11-30 01:17:22 +0000";
layers = (
{
layerId = "BBACE0B0-BA28-44BD-A35B-EF629929FF1A";
paths = (
{
closed = 1;
nodes = (
"805 0 LINE",
"841 94 LINE",
"845 94 LINE",
"885 31 OFFCURVE",
"946 0 OFFCURVE",
"1028 0 CURVE SMOOTH",
"1061 0 LINE",
"1061 155 LINE",
"1028 155 LINE SMOOTH",
"991 155 OFFCURVE",
"959 176 OFFCURVE",
"946 247 CURVE SMOOTH",
"903 474 LINE SMOOTH",
"854 746 OFFCURVE",
"698 881 OFFCURVE",
"438 881 CURVE SMOOTH",
"341 881 OFFCURVE",
"233 853 OFFCURVE",
"185 816 CURVE",
"185 680 LINE",
"244 711 OFFCURVE",
"340 731 OFFCURVE",
"407 731 CURVE SMOOTH",
"619 731 OFFCURVE",
"727 626 OFFCURVE",
"768 391 CURVE SMOOTH",
"793 245 LINE SMOOTH",
"800 210 OFFCURVE",
"805 182 OFFCURVE",
"816 155 CURVE",
"160 155 LINE",
"160 0 LINE"
);
}
);
width = 1061;
}
);
note = g29;
},
{
glyphname = uni0717;
lastChange = "2016-11-30 01:17:22 +0000";
layers = (
{
layerId = "BBACE0B0-BA28-44BD-A35B-EF629929FF1A";
paths = (
{
closed = 1;
nodes = (
"1407 -62 LINE",
"1407 888 LINE",
"1368 879 OFFCURVE",
"1154 872 OFFCURVE",
"953 872 CURVE SMOOTH",
"458 872 LINE SMOOTH",
"267 872 OFFCURVE",
"140 683 OFFCURVE",
"140 462 CURVE SMOOTH",
"140 187 OFFCURVE",
"302 -2 OFFCURVE",
"547 -2 CURVE SMOOTH",
"836 -2 OFFCURVE",
"978 151 OFFCURVE",
"978 594 CURVE SMOOTH",
"978 629 OFFCURVE",
"973 683 OFFCURVE",
"966 722 CURVE",
"1267 730 LINE",
"1267 -62 LINE"
);
},
{
closed = 1;
nodes = (
"386 151 OFFCURVE",
"290 265 OFFCURVE",
"290 477 CURVE SMOOTH",
"290 616 OFFCURVE",
"370 723 OFFCURVE",
"470 723 CURVE SMOOTH",
"825 722 LINE",
"834 687 OFFCURVE",
"838 640 OFFCURVE",
"838 597 CURVE SMOOTH",
"838 471 OFFCURVE",
"829 379 OFFCURVE",
"811 322 CURVE SMOOTH",
"774 206 OFFCURVE",
"691 151 OFFCURVE",
"563 151 CURVE SMOOTH"
);
}
);
width = 1547;
}
);
note = uni0717;
unicode = 0717;
},
{
glyphname = g31;
lastChange = "2016-11-30 01:17:22 +0000";
layers = (
{
layerId = "BBACE0B0-BA28-44BD-A35B-EF629929FF1A";
paths = (
{
closed = 1;
nodes = (
"1407 -62 LINE",
"1407 0 LINE",
"1622 0 LINE",
"1622 155 LINE",
"1407 155 LINE",
"1407 888 LINE",
"1368 879 OFFCURVE",
"1154 872 OFFCURVE",
"953 872 CURVE SMOOTH",
"458 872 LINE SMOOTH",
"267 872 OFFCURVE",
"140 683 OFFCURVE",
"140 462 CURVE SMOOTH",
"140 187 OFFCURVE",
"302 -2 OFFCURVE",
"547 -2 CURVE SMOOTH",
"836 -2 OFFCURVE",
"978 151 OFFCURVE",
"978 594 CURVE SMOOTH",
"978 629 OFFCURVE",
"973 683 OFFCURVE",
"966 722 CURVE",
"1267 730 LINE",
"1267 -62 LINE"
);
},
{
closed = 1;
nodes = (
"386 151 OFFCURVE",
"290 265 OFFCURVE",
"290 477 CURVE SMOOTH",
"290 616 OFFCURVE",
"370 723 OFFCURVE",
"470 723 CURVE SMOOTH",
"825 722 LINE",
"834 687 OFFCURVE",
"838 640 OFFCURVE",
"838 597 CURVE SMOOTH",
"838 471 OFFCURVE",
"829 379 OFFCURVE",
"811 322 CURVE SMOOTH",
"774 206 OFFCURVE",
"691 151 OFFCURVE",
"563 151 CURVE SMOOTH"
);
}
);
width = 1622;
}
);
note = g31;
},
{
glyphname = uni0718;
lastChange = "2016-11-30 01:17:22 +0000";
layers = (
{
layerId = "BBACE0B0-BA28-44BD-A35B-EF629929FF1A";
paths = (
{
closed = 1;
nodes = (
"887 -11 OFFCURVE",
"1051 153 OFFCURVE",
"1051 429 CURVE SMOOTH",
"1051 728 OFFCURVE",
"879 933 OFFCURVE",
"604 933 CURVE SMOOTH",
"324 933 OFFCURVE",
"140 721 OFFCURVE",
"140 429 CURVE SMOOTH",
"140 153 OFFCURVE",
"304 -11 OFFCURVE",
"595 -11 CURVE SMOOTH"
);
},
{
closed = 1;
nodes = (
"383 140 OFFCURVE",
"291 246 OFFCURVE",
"291 433 CURVE SMOOTH",
"291 642 OFFCURVE",
"406 782 OFFCURVE",
"595 782 CURVE SMOOTH",
"787 782 OFFCURVE",
"900 645 OFFCURVE",
"900 433 CURVE SMOOTH",
"900 236 OFFCURVE",
"799 140 OFFCURVE",
"595 140 CURVE SMOOTH"
);
}
);
width = 1191;
}
);
note = uni0718;
unicode = 0718;
},
{
glyphname = g33;
lastChange = "2016-11-30 01:17:22 +0000";
layers = (
{
layerId = "BBACE0B0-BA28-44BD-A35B-EF629929FF1A";
paths = (
{
closed = 1;
nodes = (
"744 -11 OFFCURVE",
"854 33 OFFCURVE",
"930 113 CURVE",
"938 113 LINE",
"975 37 OFFCURVE",
"1062 0 OFFCURVE",
"1173 0 CURVE",
"1173 155 LINE",
"1106 155 OFFCURVE",
"1030 201 OFFCURVE",
"1021 270 CURVE",
"1035 317 OFFCURVE",
"1042 368 OFFCURVE",
"1042 425 CURVE SMOOTH",
"1042 722 OFFCURVE",
"871 924 OFFCURVE",
"599 924 CURVE SMOOTH",
"323 924 OFFCURVE",
"140 716 OFFCURVE",
"140 425 CURVE SMOOTH",
"140 150 OFFCURVE",
"304 -11 OFFCURVE",
"591 -11 CURVE SMOOTH"
);
},
{
closed = 1;
nodes = (
"380 138 OFFCURVE",
"290 242 OFFCURVE",
"290 429 CURVE SMOOTH",
"290 637 OFFCURVE",
"406 774 OFFCURVE",
"591 774 CURVE SMOOTH",
"778 774 OFFCURVE",
"893 638 OFFCURVE",
"893 429 CURVE SMOOTH",
"893 242 OFFCURVE",
"800 138 OFFCURVE",
"591 138 CURVE SMOOTH"
);
}
);
width = 1173;
}
);
note = g33;
},
{
glyphname = uni0719;
lastChange = "2016-11-30 01:17:22 +0000";
layers = (
{
layerId = "BBACE0B0-BA28-44BD-A35B-EF629929FF1A";
paths = (
{
closed = 1;
nodes = (
"392 4 LINE SMOOTH",
"404 151 OFFCURVE",
"411 316 OFFCURVE",
"411 487 CURVE SMOOTH",
"411 588 OFFCURVE",
"400 660 OFFCURVE",
"379 704 CURVE SMOOTH",
"357 747 OFFCURVE",
"322 769 OFFCURVE",
"273 769 CURVE SMOOTH",
"176 769 OFFCURVE",
"120 677 OFFCURVE",
"120 472 CURVE SMOOTH",
"120 276 OFFCURVE",
"165 138 OFFCURVE",
"277 53 CURVE",
"266 -130 LINE",
"379 -159 LINE"
);
}
);
width = 551;
}
);
note = uni0719;
unicode = 0719;
},
{
glyphname = g35;
lastChange = "2016-11-30 01:17:22 +0000";
layers = (
{
layerId = "BBACE0B0-BA28-44BD-A35B-EF629929FF1A";
paths = (
{
closed = 1;
nodes = (
"442 20 LINE",
"502 5 OFFCURVE",
"570 0 OFFCURVE",
"605 0 CURVE SMOOTH",
"650 0 LINE",
"650 155 LINE",
"605 155 LINE SMOOTH",
"553 155 OFFCURVE",
"499 160 OFFCURVE",
"452 172 CURVE",
"457 268 OFFCURVE",
"460 366 OFFCURVE",
"460 487 CURVE SMOOTH",
"460 588 OFFCURVE",
"449 660 OFFCURVE",
"428 704 CURVE SMOOTH",
"406 747 OFFCURVE",
"371 769 OFFCURVE",
"322 769 CURVE SMOOTH",
"225 769 OFFCURVE",
"169 677 OFFCURVE",
"169 472 CURVE SMOOTH",
"169 276 OFFCURVE",
"214 138 OFFCURVE",
"326 53 CURVE",
"315 -130 LINE",
"428 -159 LINE"
);
}
);
width = 650;
}
);
note = g35;
},
{
glyphname = uni071A;
lastChange = "2016-11-30 01:17:22 +0000";
layers = (
{
layerId = "BBACE0B0-BA28-44BD-A35B-EF629929FF1A";
paths = (
{
closed = 1;
nodes = (
"1794 77 LINE",
"1399 485 LINE",
"1275 485 LINE",
"1263 170 LINE",
"1254 177 OFFCURVE",
"1243 187 OFFCURVE",
"1229 200 CURVE SMOOTH",
"1184 244 LINE SMOOTH",
"1152 275 OFFCURVE",
"1119 308 OFFCURVE",
"1095 335 CURVE SMOOTH",
"958 485 LINE",
"834 485 LINE",
"820 155 LINE",
"537 155 LINE SMOOTH",
"357 155 OFFCURVE",
"264 180 OFFCURVE",
"192 283 CURVE",
"100 160 LINE",
"143 61 OFFCURVE",
"279 0 OFFCURVE",
"491 0 CURVE SMOOTH",
"943 0 LINE",
"954 303 LINE",
"958 303 LINE",
"1016 237 LINE SMOOTH",
"1117 124 OFFCURVE",
"1183 55 OFFCURVE",
"1216 31 CURVE SMOOTH",
"1248 7 OFFCURVE",
"1283 -5 OFFCURVE",
"1321 -5 CURVE SMOOTH",
"1344 -5 OFFCURVE",
"1368 -4 OFFCURVE",
"1384 0 CURVE",
"1395 300 LINE",
"1399 300 LINE",
"1679 -18 LINE"
);
}
);
width = 1924;
}
);
note = uni071A;
unicode = 071A;
},
{
glyphname = g37;
lastChange = "2016-11-30 01:17:22 +0000";
layers = (
{
layerId = "BBACE0B0-BA28-44BD-A35B-EF629929FF1A";
paths = (
{
closed = 1;
nodes = (
"1344 -5 OFFCURVE",
"1368 -4 OFFCURVE",
"1385 1 CURVE",
"1395 302 LINE",
"1399 302 LINE",
"1553 118 LINE SMOOTH",
"1622 35 OFFCURVE",
"1681 0 OFFCURVE",
"1761 0 CURVE",
"1761 155 LINE",
"1746 155 OFFCURVE",
"1729 161 OFFCURVE",
"1709 172 CURVE SMOOTH",
"1689 183 OFFCURVE",
"1665 204 OFFCURVE",
"1637 234 CURVE SMOOTH",
"1399 485 LINE",
"1276 485 LINE",
"1263 171 LINE",
"1246 184 OFFCURVE",
"1216 212 OFFCURVE",
"1185 244 CURVE SMOOTH",
"1138 291 LINE SMOOTH",
"1122 307 OFFCURVE",
"1108 322 OFFCURVE",
"1096 335 CURVE SMOOTH",
"958 485 LINE",
"835 485 LINE",
"820 155 LINE",
"537 155 LINE SMOOTH",
"357 155 OFFCURVE",
"264 180 OFFCURVE",
"192 283 CURVE",
"100 160 LINE",
"143 61 OFFCURVE",
"279 0 OFFCURVE",
"491 0 CURVE SMOOTH",
"943 0 LINE",
"954 303 LINE",
"958 303 LINE",
"1016 238 LINE SMOOTH",
"1112 130 OFFCURVE",
"1177 63 OFFCURVE",
"1211 36 CURVE SMOOTH",
"1244 9 OFFCURVE",
"1281 -5 OFFCURVE",
"1321 -5 CURVE SMOOTH"
);
}
);
width = 1761;
}
);
note = g37;
},
{
glyphname = g38;
lastChange = "2016-11-30 01:17:22 +0000";
layers = (
{
layerId = "BBACE0B0-BA28-44BD-A35B-EF629929FF1A";
paths = (
{
closed = 1;
nodes = (
"687 -5 OFFCURVE",
"711 -4 OFFCURVE",
"728 1 CURVE",
"738 302 LINE",
"742 302 LINE",
"896 118 LINE SMOOTH",
"965 35 OFFCURVE",
"1024 0 OFFCURVE",
"1104 0 CURVE",
"1104 155 LINE",
"1089 155 OFFCURVE",
"1072 161 OFFCURVE",
"1052 172 CURVE SMOOTH",
"1032 183 OFFCURVE",
"1008 204 OFFCURVE",
"980 234 CURVE SMOOTH",
"742 485 LINE",
"617 485 LINE",
"606 171 LINE",
"589 184 OFFCURVE",
"559 212 OFFCURVE",
"528 244 CURVE SMOOTH",
"481 291 LINE SMOOTH",
"465 307 OFFCURVE",
"451 322 OFFCURVE",
"439 335 CURVE SMOOTH",
"301 485 LINE",
"177 485 LINE",
"163 155 LINE",
"0 155 LINE SMOOTH",
"-44 155 OFFCURVE",
"-80 125 OFFCURVE",
"-80 77 CURVE SMOOTH",
"-80 29 OFFCURVE",
"-44 0 OFFCURVE",
"0 0 CURVE SMOOTH",
"286 0 LINE",
"297 303 LINE",
"301 303 LINE",
"359 238 LINE SMOOTH",
"455 130 OFFCURVE",
"520 63 OFFCURVE",
"554 36 CURVE SMOOTH",
"587 9 OFFCURVE",
"624 -5 OFFCURVE",
"664 -5 CURVE SMOOTH"
);
}
);
width = 1104;
}
);
note = g38;
},
{
glyphname = g39;
lastChange = "2016-11-30 01:17:22 +0000";
layers = (
{
layerId = "BBACE0B0-BA28-44BD-A35B-EF629929FF1A";
paths = (
{
closed = 1;
nodes = (
"1137 77 LINE",
"742 485 LINE",
"618 485 LINE",
"606 170 LINE",
"597 177 OFFCURVE",
"586 187 OFFCURVE",
"572 200 CURVE SMOOTH",
"527 244 LINE SMOOTH",
"495 275 OFFCURVE",
"462 308 OFFCURVE",
"438 335 CURVE SMOOTH",
"301 485 LINE",
"177 485 LINE",
"163 154 LINE",
"0 154 LINE SMOOTH",
"-44 154 OFFCURVE",
"-80 125 OFFCURVE",
"-80 77 CURVE SMOOTH",
"-80 29 OFFCURVE",
"-44 0 OFFCURVE",
"0 0 CURVE SMOOTH",
"286 0 LINE",
"297 302 LINE",
"301 302 LINE",
"359 237 LINE SMOOTH",
"460 124 OFFCURVE",
"526 55 OFFCURVE",
"559 31 CURVE SMOOTH",
"591 7 OFFCURVE",
"626 -5 OFFCURVE",
"664 -5 CURVE SMOOTH",
"687 -5 OFFCURVE",
"711 -4 OFFCURVE",
"727 0 CURVE",
"738 300 LINE",
"742 300 LINE",
"1022 -18 LINE"
);
}
);
width = 1267;
}
);
note = g39;
},
{
glyphname = uni071B;
lastChange = "2016-11-30 01:17:22 +0000";
layers = (
{
layerId = "BBACE0B0-BA28-44BD-A35B-EF629929FF1A";
paths = (
{
closed = 1;
nodes = (
"1791 -584 LINE",
"2163 -6 LINE",
"2163 155 LINE",
"1527 155 LINE",
"878 1420 LINE",
"734 1350 LINE",
"1349 155 LINE",
"547 155 LINE SMOOTH",
"358 155 OFFCURVE",
"261 184 OFFCURVE",
"192 283 CURVE",
"100 160 LINE",
"143 61 OFFCURVE",
"279 0 OFFCURVE",
"491 0 CURVE SMOOTH",
"1429 0 LINE",
"1730 -584 LINE"
);
},
{
closed = 1;
nodes = (
"1607 0 LINE",
"2052 0 LINE",
"1805 -385 LINE"
);
}
);
width = 2303;
}
);
note = uni071B;
unicode = 071B;
},
{
glyphname = g41;
lastChange = "2016-11-30 01:17:22 +0000";
layers = (
{
layerId = "BBACE0B0-BA28-44BD-A35B-EF629929FF1A";
paths = (
{
closed = 1;
nodes = (
"1791 -584 LINE",
"2163 -6 LINE",
"2163 155 LINE",
"1527 155 LINE",
"878 1420 LINE",
"734 1350 LINE",
"1349 155 LINE",
"547 155 LINE SMOOTH",
"358 155 OFFCURVE",
"261 184 OFFCURVE",
"192 283 CURVE",
"100 160 LINE",
"143 61 OFFCURVE",
"279 0 OFFCURVE",
"491 0 CURVE SMOOTH",
"1429 0 LINE",
"1730 -584 LINE"
);
},
{
closed = 1;
nodes = (
"1607 0 LINE",
"2052 0 LINE",
"1805 -385 LINE"
);
}
);
width = 2053;
}
);
note = g41;
},
{
glyphname = g42;
lastChange = "2016-11-30 01:17:22 +0000";
layers = (
{
layerId = "BBACE0B0-BA28-44BD-A35B-EF629929FF1A";
paths = (
{
closed = 1;
nodes = (
"1009 -584 LINE",
"1381 -6 LINE",
"1381 155 LINE",
"745 155 LINE",
"96 1420 LINE",
"-48 1350 LINE",
"567 155 LINE",
"0 155 LINE SMOOTH",
"-44 155 OFFCURVE",
"-80 125 OFFCURVE",
"-80 77 CURVE SMOOTH",
"-80 29 OFFCURVE",
"-44 0 OFFCURVE",
"0 0 CURVE SMOOTH",
"647 0 LINE",
"948 -584 LINE"
);
},
{
closed = 1;
nodes = (
"825 0 LINE",
"1270 0 LINE",
"1023 -385 LINE"
);
}
);
width = 1271;
}
);
note = g42;
},
{
glyphname = g43;
lastChange = "2016-11-30 01:17:22 +0000";
layers = (
{
layerId = "BBACE0B0-BA28-44BD-A35B-EF629929FF1A";
paths = (
{
closed = 1;
nodes = (
"1009 -584 LINE",
"1381 -6 LINE",
"1381 155 LINE",
"745 155 LINE",
"96 1420 LINE",
"-48 1350 LINE",
"567 155 LINE",
"0 155 LINE SMOOTH",
"-44 155 OFFCURVE",
"-80 125 OFFCURVE",
"-80 77 CURVE SMOOTH",
"-80 29 OFFCURVE",
"-44 0 OFFCURVE",
"0 0 CURVE SMOOTH",
"647 0 LINE",
"948 -584 LINE"
);
},
{
closed = 1;
nodes = (
"825 0 LINE",
"1270 0 LINE",
"1023 -385 LINE"
);
}
);
width = 1521;
}
);
note = g43;
},
{
glyphname = uni071C;
lastChange = "2016-11-30 01:17:22 +0000";
layers = (
{
layerId = "BBACE0B0-BA28-44BD-A35B-EF629929FF1A";
paths = (
{
closed = 1;
nodes = (
"1806 -614 LINE",
"2193 -6 LINE",
"2193 155 LINE",
"1527 155 LINE",
"878 1420 LINE",
"734 1350 LINE",
"1349 155 LINE",
"547 155 LINE SMOOTH",
"358 155 OFFCURVE",
"261 184 OFFCURVE",
"192 283 CURVE",
"100 160 LINE",
"143 61 OFFCURVE",
"279 0 OFFCURVE",
"491 0 CURVE SMOOTH",
"1429 0 LINE",
"1745 -614 LINE"
);
},
{
closed = 1;
nodes = (
"1696 -382 OFFCURVE",
"1573 -165 OFFCURVE",
"1573 0 CURVE",
"2087 0 LINE",
"2019 -177 OFFCURVE",
"1859 -410 OFFCURVE",
"1792 -465 CURVE"
);
},
{
closed = 1;
nodes = (
"1883 -246 LINE",
"1883 -83 LINE",
"1724 -83 LINE",
"1724 -246 LINE"
);
}
);
width = 2333;
}
);
note = uni071C;
unicode = 071C;
},
{
glyphname = g45;
lastChange = "2016-11-30 01:17:22 +0000";
layers = (
{
layerId = "BBACE0B0-BA28-44BD-A35B-EF629929FF1A";
paths = (
{
closed = 1;
nodes = (
"1806 -614 LINE",
"2193 -6 LINE",
"2193 155 LINE",
"1527 155 LINE",
"878 1420 LINE",
"734 1350 LINE",
"1349 155 LINE",
"547 155 LINE SMOOTH",
"358 155 OFFCURVE",
"261 184 OFFCURVE",
"192 283 CURVE",
"100 160 LINE",
"143 61 OFFCURVE",
"279 0 OFFCURVE",
"491 0 CURVE SMOOTH",
"1429 0 LINE",
"1745 -614 LINE"
);
},
{
closed = 1;
nodes = (
"1696 -382 OFFCURVE",
"1573 -165 OFFCURVE",
"1573 0 CURVE",
"2087 0 LINE",
"2019 -177 OFFCURVE",
"1859 -410 OFFCURVE",
"1792 -465 CURVE"
);
},
{
closed = 1;
nodes = (
"1883 -246 LINE",
"1883 -83 LINE",
"1724 -83 LINE",
"1724 -246 LINE"
);
}
);
width = 2083;
}
);
note = g45;
},
{
glyphname = g46;
lastChange = "2016-11-30 01:17:22 +0000";
layers = (
{
layerId = "BBACE0B0-BA28-44BD-A35B-EF629929FF1A";
paths = (
{
closed = 1;
nodes = (
"1024 -614 LINE",
"1411 -6 LINE",
"1411 155 LINE",
"745 155 LINE",
"96 1420 LINE",
"-48 1350 LINE",
"567 155 LINE",
"0 155 LINE SMOOTH",
"-44 155 OFFCURVE",
"-80 125 OFFCURVE",
"-80 77 CURVE SMOOTH",
"-80 29 OFFCURVE",
"-44 0 OFFCURVE",
"0 0 CURVE SMOOTH",
"647 0 LINE",
"963 -614 LINE"
);
},
{
closed = 1;
nodes = (
"914 -382 OFFCURVE",
"791 -165 OFFCURVE",
"791 0 CURVE",
"1305 0 LINE",
"1237 -177 OFFCURVE",
"1077 -410 OFFCURVE",
"1010 -465 CURVE"
);
},
{
closed = 1;
nodes = (
"1101 -246 LINE",
"1101 -83 LINE",
"942 -83 LINE",
"942 -246 LINE"
);
}
);
width = 1301;
}
);
note = g46;
},
{
glyphname = g47;
lastChange = "2016-11-30 01:17:22 +0000";
layers = (
{
layerId = "BBACE0B0-BA28-44BD-A35B-EF629929FF1A";
paths = (
{
closed = 1;
nodes = (
"1024 -614 LINE",
"1411 -6 LINE",
"1411 155 LINE",
"745 155 LINE",
"96 1420 LINE",
"-48 1350 LINE",
"567 155 LINE",
"0 155 LINE SMOOTH",
"-44 155 OFFCURVE",
"-80 125 OFFCURVE",
"-80 77 CURVE SMOOTH",
"-80 29 OFFCURVE",
"-44 0 OFFCURVE",
"0 0 CURVE SMOOTH",
"647 0 LINE",
"963 -614 LINE"
);
},
{
closed = 1;
nodes = (
"914 -382 OFFCURVE",
"791 -165 OFFCURVE",
"791 0 CURVE",
"1305 0 LINE",
"1237 -177 OFFCURVE",
"1077 -410 OFFCURVE",
"1010 -465 CURVE"
);
},
{
closed = 1;
nodes = (
"1101 -246 LINE",
"1101 -83 LINE",
"942 -83 LINE",
"942 -246 LINE"
);
}
);
width = 1551;
}
);
note = g47;
},
{
glyphname = uni071D;
lastChange = "2016-11-30 01:17:22 +0000";
layers = (
{
layerId = "BBACE0B0-BA28-44BD-A35B-EF629929FF1A";
paths = (
{
closed = 1;
nodes = (
"1373 70 LINE",
"958 467 LINE",
"853 467 LINE",
"842 155 LINE",
"537 155 LINE SMOOTH",
"357 155 OFFCURVE",
"264 180 OFFCURVE",
"192 283 CURVE",
"100 160 LINE",
"143 61 OFFCURVE",
"279 0 OFFCURVE",
"491 0 CURVE SMOOTH",
"963 0 LINE",
"966 270 LINE",
"970 270 LINE",
"1258 -18 LINE"
);
}
);
width = 1503;
}
);
note = uni071D;
unicode = 071D;
},
{
glyphname = g49;
lastChange = "2016-11-30 01:17:22 +0000";
layers = (
{
layerId = "BBACE0B0-BA28-44BD-A35B-EF629929FF1A";
paths = (
{
closed = 1;
nodes = (
"963 0 LINE",
"966 270 LINE",
"970 270 LINE",
"1134 105 LINE SMOOTH",
"1197 40 OFFCURVE",
"1257 0 OFFCURVE",
"1340 0 CURVE",
"1340 155 LINE",
"1311 155 OFFCURVE",
"1271 169 OFFCURVE",
"1215 222 CURVE SMOOTH",
"958 467 LINE",
"853 467 LINE",
"842 155 LINE",
"537 155 LINE SMOOTH",
"357 155 OFFCURVE",
"264 180 OFFCURVE",
"192 283 CURVE",
"100 160 LINE",
"143 61 OFFCURVE",
"279 0 OFFCURVE",
"491 0 CURVE SMOOTH"
);
}
);
width = 1340;
}
);
note = g49;
},
{
glyphname = g50;
lastChange = "2016-11-30 01:17:22 +0000";
layers = (
{
layerId = "BBACE0B0-BA28-44BD-A35B-EF629929FF1A";
paths = (
{
closed = 1;
nodes = (
"286 0 LINE",
"288 270 LINE",
"292 270 LINE",
"457 105 LINE SMOOTH",
"520 40 OFFCURVE",
"580 0 OFFCURVE",
"663 0 CURVE",
"663 155 LINE",
"634 155 OFFCURVE",
"594 169 OFFCURVE",
"538 222 CURVE SMOOTH",
"280 467 LINE",
"175 467 LINE",
"164 155 LINE",
"0 155 LINE SMOOTH",
"-44 155 OFFCURVE",
"-80 125 OFFCURVE",
"-80 77 CURVE SMOOTH",
"-80 29 OFFCURVE",
"-44 0 OFFCURVE",
"0 0 CURVE SMOOTH"
);
}
);
width = 663;
}
);
note = g50;
},
{
glyphname = g51;
lastChange = "2016-11-30 01:17:22 +0000";
layers = (
{
layerId = "BBACE0B0-BA28-44BD-A35B-EF629929FF1A";
paths = (
{
closed = 1;
nodes = (
"695 70 LINE",
"280 467 LINE",
"175 467 LINE",
"164 155 LINE",
"0 155 LINE SMOOTH",
"-44 155 OFFCURVE",
"-80 125 OFFCURVE",
"-80 77 CURVE SMOOTH",
"-80 29 OFFCURVE",
"-44 0 OFFCURVE",
"0 0 CURVE SMOOTH",
"285 0 LINE",
"288 270 LINE",
"292 270 LINE",
"580 -18 LINE"
);
}
);
width = 825;
}
);
note = g51;
},
{
glyphname = uni071F;
lastChange = "2016-11-30 01:17:22 +0000";
layers = (
{
layerId = "BBACE0B0-BA28-44BD-A35B-EF629929FF1A";
paths = (
{
closed = 1;
nodes = (
"1115 -381 OFFCURVE",
"1276 -97 OFFCURVE",
"1276 147 CURVE SMOOTH",
"1276 376 OFFCURVE",
"1143 503 OFFCURVE",
"920 503 CURVE SMOOTH",
"757 503 OFFCURVE",
"633 397 OFFCURVE",
"561 206 CURVE",
"553 206 LINE",
"528 250 OFFCURVE",
"496 309 OFFCURVE",
"469 364 CURVE SMOOTH",
"377 542 LINE SMOOTH",
"364 568 OFFCURVE",
"352 591 OFFCURVE",
"343 611 CURVE SMOOTH",
"322 654 LINE",
"315 673 LINE SMOOTH",
"312 681 OFFCURVE",
"310 688 OFFCURVE",
"310 693 CURVE SMOOTH",
"310 712 OFFCURVE",
"318 734 OFFCURVE",
"333 761 CURVE",
"860 761 LINE",
"860 911 LINE",
"235 911 LINE",
"140 686 LINE",
"204 531 OFFCURVE",
"373 219 OFFCURVE",
"508 0 CURVE",
"613 0 LINE",
"696 249 OFFCURVE",
"790 353 OFFCURVE",
"915 353 CURVE SMOOTH",
"1044 353 OFFCURVE",
"1118 273 OFFCURVE",
"1118 137 CURVE SMOOTH",
"1118 -56 OFFCURVE",
"999 -266 OFFCURVE",
"702 -605 CURVE",
"804 -694 LINE"
);
}
);
width = 1416;
}
);
note = uni071F;
unicode = 071F;
},
{
glyphname = g54;
lastChange = "2016-11-30 01:17:22 +0000";
layers = (
{
layerId = "BBACE0B0-BA28-44BD-A35B-EF629929FF1A";
paths = (
{
closed = 1;
nodes = (
"1261 -736 OFFCURVE",
"1313 -731 OFFCURVE",
"1354 -715 CURVE",
"1334 -585 LINE",
"1327 -588 OFFCURVE",
"1316 -591 OFFCURVE",
"1304 -591 CURVE",
"1273 -593 LINE",
"1188 -593 OFFCURVE",
"1111 -553 OFFCURVE",
"1042 -473 CURVE SMOOTH",
"905 -313 OFFCURVE",
"602 46 OFFCURVE",
"439 283 CURVE SMOOTH",
"357 401 OFFCURVE",
"316 469 OFFCURVE",
"316 487 CURVE SMOOTH",
"316 504 OFFCURVE",
"324 528 OFFCURVE",
"339 551 CURVE",
"428 551 LINE",
"497 552 LINE SMOOTH",
"525 552 OFFCURVE",
"555 553 OFFCURVE",
"587 554 CURVE SMOOTH",
"685 557 LINE",
"777 561 LINE SMOOTH",
"806 562 OFFCURVE",
"830 564 OFFCURVE",
"850 566 CURVE",
"869 567 OFFCURVE",
"882 569 OFFCURVE",
"889 571 CURVE",
"889 218 LINE SMOOTH",
"889 63 OFFCURVE",
"962 0 OFFCURVE",
"1097 0 CURVE SMOOTH",
"1259 0 LINE",
"1259 155 LINE",
"1120 155 LINE SMOOTH",
"1047 155 OFFCURVE",
"1029 172 OFFCURVE",
"1029 247 CURVE SMOOTH",
"1029 812 LINE",
"889 812 LINE",
"889 717 LINE",
"850 708 OFFCURVE",
"636 701 OFFCURVE",
"435 701 CURVE SMOOTH",
"235 701 LINE",
"140 471 LINE",
"372 67 OFFCURVE",
"783 -419 OFFCURVE",
"951 -600 CURVE SMOOTH",
"1035 -691 OFFCURVE",
"1132 -736 OFFCURVE",
"1241 -736 CURVE SMOOTH"
);
}
);
width = 1259;
}
);
note = g54;
},
{
glyphname = g55;
lastChange = "2016-11-30 01:17:22 +0000";
layers = (
{
layerId = "BBACE0B0-BA28-44BD-A35B-EF629929FF1A";
paths = (
{
closed = 1;
nodes = (
"975 0 LINE",
"1012 94 LINE",
"1016 94 LINE",
"1059 29 OFFCURVE",
"1107 0 OFFCURVE",
"1182 0 CURVE SMOOTH",
"1202 0 LINE",
"1202 155 LINE",
"1182 155 LINE SMOOTH",
"1176 155 OFFCURVE",
"1168 159 OFFCURVE",
"1157 167 CURVE",
"1146 174 OFFCURVE",
"1114 236 OFFCURVE",
"1059 351 CURVE SMOOTH",
"1021 431 LINE SMOOTH",
"866 752 OFFCURVE",
"717 896 OFFCURVE",
"477 896 CURVE SMOOTH",
"277 896 OFFCURVE",
"136 796 OFFCURVE",
"119 625 CURVE",
"260 625 LINE",
"280 701 OFFCURVE",
"349 741 OFFCURVE",
"466 741 CURVE SMOOTH",
"625 741 OFFCURVE",
"742 648 OFFCURVE",
"897 331 CURVE SMOOTH",
"983 155 LINE",
"0 155 LINE SMOOTH",
"-44 155 OFFCURVE",
"-80 125 OFFCURVE",
"-80 77 CURVE SMOOTH",
"-80 29 OFFCURVE",
"-44 0 OFFCURVE",
"0 0 CURVE SMOOTH"
);
}
);
width = 1202;
}
);
note = g55;
},
{
glyphname = g56;
lastChange = "2016-11-30 01:17:22 +0000";
layers = (
{
layerId = "BBACE0B0-BA28-44BD-A35B-EF629929FF1A";
paths = (
{
closed = 1;
nodes = (
"1089 0 LINE",
"1162 129 LINE",
"1153 153 OFFCURVE",
"1134 193 OFFCURVE",
"1113 240 CURVE SMOOTH",
"1012 450 LINE SMOOTH",
"849 775 OFFCURVE",
"705 896 OFFCURVE",
"477 896 CURVE SMOOTH",
"277 896 OFFCURVE",
"136 796 OFFCURVE",
"119 625 CURVE",
"260 625 LINE",
"280 701 OFFCURVE",
"349 741 OFFCURVE",
"466 741 CURVE SMOOTH",
"625 741 OFFCURVE",
"742 648 OFFCURVE",
"897 331 CURVE SMOOTH",
"983 155 LINE",
"0 155 LINE SMOOTH",
"-44 155 OFFCURVE",
"-80 125 OFFCURVE",
"-80 77 CURVE SMOOTH",
"-80 29 OFFCURVE",
"-44 0 OFFCURVE",
"0 0 CURVE SMOOTH"
);
}
);
width = 1302;
}
);
note = g56;
},
{
glyphname = uni0720;
lastChange = "2016-11-30 01:17:22 +0000";
layers = (
{
layerId = "BBACE0B0-BA28-44BD-A35B-EF629929FF1A";
paths = (
{
closed = 1;
nodes = (
"1443 0 LINE",
"1538 141 LINE",
"878 1420 LINE",
"734 1350 LINE",
"1349 155 LINE",
"547 155 LINE SMOOTH",
"358 155 OFFCURVE",
"261 184 OFFCURVE",
"192 283 CURVE",
"100 160 LINE",
"143 61 OFFCURVE",
"279 0 OFFCURVE",
"491 0 CURVE SMOOTH"
);
}
);
width = 1638;
}
);
note = uni0720;
unicode = 0720;
},
{
glyphname = g58;
lastChange = "2016-11-30 01:17:22 +0000";
layers = (
{
layerId = "BBACE0B0-BA28-44BD-A35B-EF629929FF1A";
paths = (
{
closed = 1;
nodes = (
"1348 0 LINE",
"1384 93 LINE",
"1388 93 LINE",
"1429 37 OFFCURVE",
"1479 0 OFFCURVE",
"1552 0 CURVE SMOOTH",
"1567 0 LINE",
"1567 155 LINE",
"1544 155 OFFCURVE",
"1523 174 OFFCURVE",
"1504 211 CURVE SMOOTH",
"1484 248 OFFCURVE",
"1472 269 OFFCURVE",
"1469 275 CURVE SMOOTH",
"878 1420 LINE",
"734 1350 LINE",
"1350 155 LINE",
"547 155 LINE SMOOTH",
"358 155 OFFCURVE",
"261 184 OFFCURVE",
"192 283 CURVE",
"100 160 LINE",
"143 61 OFFCURVE",
"279 0 OFFCURVE",
"491 0 CURVE SMOOTH"
);
}
);
width = 1567;
}
);
note = g58;
},
{
glyphname = g59;
lastChange = "2016-11-30 01:17:22 +0000";
layers = (
{
layerId = "BBACE0B0-BA28-44BD-A35B-EF629929FF1A";
paths = (
{
closed = 1;
nodes = (
"565 0 LINE",
"602 93 LINE",
"606 93 LINE",
"647 36 OFFCURVE",
"694 0 OFFCURVE",
"769 0 CURVE SMOOTH",
"784 0 LINE",
"784 155 LINE",
"741 155 OFFCURVE",
"706 239 OFFCURVE",
"687 275 CURVE SMOOTH",
"96 1420 LINE",
"-48 1350 LINE",
"568 155 LINE",
"0 155 LINE SMOOTH",
"-44 155 OFFCURVE",
"-80 125 OFFCURVE",
"-80 77 CURVE SMOOTH",
"-80 29 OFFCURVE",
"-44 0 OFFCURVE",
"0 0 CURVE SMOOTH"
);
}
);
width = 784;
}
);
note = g59;
},
{
glyphname = g60;
lastChange = "2016-11-30 01:17:22 +0000";
layers = (
{
layerId = "BBACE0B0-BA28-44BD-A35B-EF629929FF1A";
paths = (
{
closed = 1;
nodes = (
"661 0 LINE",
"756 141 LINE",
"96 1420 LINE",
"-48 1350 LINE",
"567 155 LINE",
"0 155 LINE SMOOTH",
"-44 155 OFFCURVE",
"-80 125 OFFCURVE",
"-80 77 CURVE SMOOTH",
"-80 29 OFFCURVE",
"-44 0 OFFCURVE",
"0 0 CURVE SMOOTH"
);
}
);
width = 856;
}
);
note = g60;
},
{
glyphname = uni0721;
lastChange = "2016-11-30 01:17:22 +0000";
layers = (
{
layerId = "BBACE0B0-BA28-44BD-A35B-EF629929FF1A";
paths = (
{
closed = 1;
nodes = (
"504 0 LINE",
"1223 0 LINE",
"1303 110 LINE",
"1303 872 LINE",
"554 872 LINE SMOOTH",
"389 872 OFFCURVE",
"144 887 OFFCURVE",
"100 898 CURVE",
"100 752 LINE",
"148 739 OFFCURVE",
"384 722 OFFCURVE",
"561 722 CURVE SMOOTH",
"577 722 LINE",
"271 -285 LINE",
"406 -325 LINE"
);
},
{
closed = 1;
nodes = (
"724 722 LINE",
"1153 722 LINE",
"1153 155 LINE",
"551 155 LINE"
);
}
);
width = 1443;
}
);
note = uni0721;
unicode = 0721;
},
{
glyphname = g62;
lastChange = "2016-11-30 01:15:49 +0000";
layers = (
{
layerId = "BBACE0B0-BA28-44BD-A35B-EF629929FF1A";
paths = (
{
closed = 1;
nodes = (
"504 0 LINE",
"1154 0 LINE",
"1189 93 LINE",
"1193 93 LINE",
"1229 33 OFFCURVE",
"1292 0 OFFCURVE",
"1392 0 CURVE SMOOTH",
"1518 0 LINE",
"1518 155 LINE",
"1415 155 LINE SMOOTH",
"1324 155 OFFCURVE",
"1303 180 OFFCURVE",
"1303 276 CURVE SMOOTH",
"1303 872 LINE",
"554 872 LINE SMOOTH",
"389 872 OFFCURVE",
"144 887 OFFCURVE",
"100 898 CURVE",
"100 752 LINE",
"148 739 OFFCURVE",
"384 722 OFFCURVE",
"561 722 CURVE SMOOTH",
"577 722 LINE",
"271 -285 LINE",
"406 -325 LINE"
);
},
{
closed = 1;
nodes = (
"724 722 LINE",
"1153 722 LINE",
"1153 263 LINE SMOOTH",
"1153 222 OFFCURVE",
"1157 186 OFFCURVE",
"1166 155 CURVE",
"551 155 LINE"
);
}
);
width = 1518;
}
);
note = g62;
},
{
glyphname = g63;
lastChange = "2016-11-30 01:17:22 +0000";
layers = (
{
layerId = "BBACE0B0-BA28-44BD-A35B-EF629929FF1A";
paths = (
{
closed = 1;
nodes = (
"1136 -11 OFFCURVE",
"1239 26 OFFCURVE",
"1310 94 CURVE",
"1316 94 LINE",
"1360 31 OFFCURVE",
"1432 0 OFFCURVE",
"1528 0 CURVE SMOOTH",
"1558 0 LINE",
"1558 155 LINE",
"1528 155 LINE SMOOTH",
"1457 155 OFFCURVE",
"1412 178 OFFCURVE",
"1397 233 CURVE",
"1411 277 OFFCURVE",
"1418 326 OFFCURVE",
"1418 379 CURVE SMOOTH",
"1418 652 OFFCURVE",
"1256 848 OFFCURVE",
"1007 848 CURVE SMOOTH",
"835 848 OFFCURVE",
"695 756 OFFCURVE",
"626 596 CURVE",
"435 742 LINE SMOOTH",
"353 805 OFFCURVE",
"292 854 OFFCURVE",
"252 891 CURVE SMOOTH",
"211 928 OFFCURVE",
"179 958 OFFCURVE",
"154 983 CURVE",
"54 868 LINE",
"114 808 OFFCURVE",
"231 707 OFFCURVE",
"400 578 CURVE SMOOTH",
"586 438 LINE",
"584 419 OFFCURVE",
"583 399 OFFCURVE",
"583 379 CURVE SMOOTH",
"583 290 OFFCURVE",
"602 216 OFFCURVE",
"639 155 CURVE",
"0 155 LINE SMOOTH",
"-44 155 OFFCURVE",
"-80 125 OFFCURVE",
"-80 77 CURVE SMOOTH",
"-80 29 OFFCURVE",
"-44 0 OFFCURVE",
"0 0 CURVE SMOOTH",
"649 0 LINE",
"685 94 LINE",
"689 94 LINE",
"760 24 OFFCURVE",
"864 -11 OFFCURVE",
"999 -11 CURVE SMOOTH"
);
},
{
closed = 1;
nodes = (
"812 136 OFFCURVE",
"724 221 OFFCURVE",
"724 384 CURVE SMOOTH",
"724 563 OFFCURVE",
"835 700 OFFCURVE",
"999 700 CURVE SMOOTH",
"1164 700 OFFCURVE",
"1271 571 OFFCURVE",
"1271 384 CURVE SMOOTH",
"1271 221 OFFCURVE",
"1187 136 OFFCURVE",
"999 136 CURVE SMOOTH"
);
}
);
width = 1558;
}
);
note = g63;
},
{
glyphname = g64;
lastChange = "2016-11-30 01:17:22 +0000";
layers = (
{
layerId = "BBACE0B0-BA28-44BD-A35B-EF629929FF1A";
paths = (
{
closed = 1;
nodes = (
"1266 -11 OFFCURVE",
"1418 134 OFFCURVE",
"1418 379 CURVE SMOOTH",
"1418 652 OFFCURVE",
"1256 848 OFFCURVE",
"1007 848 CURVE SMOOTH",
"835 848 OFFCURVE",
"695 756 OFFCURVE",
"626 596 CURVE",
"435 742 LINE SMOOTH",
"353 805 OFFCURVE",
"292 854 OFFCURVE",
"252 891 CURVE SMOOTH",
"211 928 OFFCURVE",
"179 958 OFFCURVE",
"154 983 CURVE",
"54 868 LINE",
"114 808 OFFCURVE",
"231 707 OFFCURVE",
"400 578 CURVE SMOOTH",
"586 438 LINE",
"584 419 OFFCURVE",
"583 399 OFFCURVE",
"583 379 CURVE SMOOTH",
"583 290 OFFCURVE",
"602 216 OFFCURVE",
"639 155 CURVE",
"0 155 LINE SMOOTH",
"-44 155 OFFCURVE",
"-80 125 OFFCURVE",
"-80 77 CURVE SMOOTH",
"-80 29 OFFCURVE",
"-44 0 OFFCURVE",
"0 0 CURVE SMOOTH",
"647 0 LINE",
"684 95 LINE",
"688 95 LINE",
"759 26 OFFCURVE",
"862 -11 OFFCURVE",
"999 -11 CURVE SMOOTH"
);
},
{
closed = 1;
nodes = (
"812 136 OFFCURVE",
"724 221 OFFCURVE",
"724 384 CURVE SMOOTH",
"724 563 OFFCURVE",
"835 700 OFFCURVE",
"999 700 CURVE SMOOTH",
"1164 700 OFFCURVE",
"1271 571 OFFCURVE",
"1271 384 CURVE SMOOTH",
"1271 221 OFFCURVE",
"1187 136 OFFCURVE",
"999 136 CURVE SMOOTH"
);
}
);
width = 1558;
}
);
note = g64;
},
{
glyphname = uni0722;
lastChange = "2016-11-30 01:17:22 +0000";
layers = (
{
layerId = "BBACE0B0-BA28-44BD-A35B-EF629929FF1A";
paths = (
{
closed = 1;
nodes = (
"1461 -675 LINE",
"1370 -592 OFFCURVE",
"1174 -425 OFFCURVE",
"1041 -316 CURVE SMOOTH",
"862 -169 LINE SMOOTH",
"751 -78 OFFCURVE",
"632 19 OFFCURVE",
"521 108 CURVE SMOOTH",
"382 218 LINE SMOOTH",
"341 251 OFFCURVE",
"307 277 OFFCURVE",
"281 296 CURVE",
"122 108 LINE",
"297 -34 LINE",
"363 40 LINE",
"728 -251 LINE",
"859 -357 LINE",
"1000 -472 LINE",
"1140 -587 LINE",
"1268 -693 LINE",
"1372 -780 LINE"
);
}
);
width = 874;
}
);
note = uni0722;
unicode = 0722;
},
{
glyphname = g66;
lastChange = "2016-11-30 01:17:22 +0000";
layers = (
{
layerId = "BBACE0B0-BA28-44BD-A35B-EF629929FF1A";
paths = (
{
closed = 1;
nodes = (
"558 -719 LINE",
"317 -419 OFFCURVE",
"245 -219 OFFCURVE",
"245 16 CURVE",
"246 44 LINE",
"246 56 OFFCURVE",
"247 69 OFFCURVE",
"250 84 CURVE",
"258 84 LINE",
"321 35 OFFCURVE",
"413 0 OFFCURVE",
"545 0 CURVE",
"545 155 LINE",
"414 155 OFFCURVE",
"336 189 OFFCURVE",
"267 258 CURVE",
"143 258 LINE",
"118 190 OFFCURVE",
"100 73 OFFCURVE",
"100 -3 CURVE SMOOTH",
"100 -296 OFFCURVE",
"221 -575 OFFCURVE",
"454 -802 CURVE"
);
}
);
width = 545;
}
);
note = g66;
},
{
glyphname = g67;
lastChange = "2016-11-30 01:17:22 +0000";
layers = (
{
layerId = "BBACE0B0-BA28-44BD-A35B-EF629929FF1A";
paths = (
{
closed = 1;
nodes = (
"426 0 LINE",
"461 95 LINE",
"465 95 LINE",
"518 24 OFFCURVE",
"586 0 OFFCURVE",
"677 0 CURVE SMOOTH",
"687 0 LINE",
"687 155 LINE",
"677 155 LINE SMOOTH",
"618 155 OFFCURVE",
"576 184 OFFCURVE",
"550 241 CURVE SMOOTH",
"498 356 OFFCURVE",
"467 571 OFFCURVE",
"467 815 CURVE SMOOTH",
"467 872 LINE",
"309 872 LINE SMOOTH",
"258 872 OFFCURVE",
"206 873 OFFCURVE",
"155 877 CURVE",
"155 728 LINE",
"196 724 OFFCURVE",
"258 722 OFFCURVE",
"309 722 CURVE SMOOTH",
"324 722 LINE",
"335 466 OFFCURVE",
"373 268 OFFCURVE",
"426 155 CURVE",
"0 155 LINE SMOOTH",
"-44 155 OFFCURVE",
"-80 125 OFFCURVE",
"-80 77 CURVE SMOOTH",
"-80 29 OFFCURVE",
"-44 0 OFFCURVE",
"0 0 CURVE SMOOTH"
);
}
);
width = 687;
}
);
note = g67;
},
{
glyphname = g68;
lastChange = "2016-11-30 01:17:22 +0000";
layers = (
{
layerId = "BBACE0B0-BA28-44BD-A35B-EF629929FF1A";
paths = (
{
closed = 1;
nodes = (
"555 0 LINE",
"605 110 LINE",
"524 281 OFFCURVE",
"467 559 OFFCURVE",
"467 760 CURVE SMOOTH",
"467 872 LINE",
"309 872 LINE SMOOTH",
"258 872 OFFCURVE",
"206 873 OFFCURVE",
"155 877 CURVE",
"155 728 LINE",
"196 724 OFFCURVE",
"258 722 OFFCURVE",
"309 722 CURVE SMOOTH",
"324 722 LINE",
"331 563 OFFCURVE",
"350 430 OFFCURVE",
"379 325 CURVE SMOOTH",
"408 219 OFFCURVE",
"424 162 OFFCURVE",
"426 155 CURVE",
"0 155 LINE SMOOTH",
"-44 155 OFFCURVE",
"-80 125 OFFCURVE",
"-80 77 CURVE SMOOTH",
"-80 29 OFFCURVE",
"-44 0 OFFCURVE",
"0 0 CURVE SMOOTH"
);
}
);
width = 745;
}
);
note = g68;
},
{
glyphname = uni0723;
lastChange = "2016-11-30 01:17:22 +0000";
layers = (
{
layerId = "BBACE0B0-BA28-44BD-A35B-EF629929FF1A";
paths = (
{
closed = 1;
nodes = (
"1721 -5 OFFCURVE",
"1907 161 OFFCURVE",
"1907 473 CURVE SMOOTH",
"1907 666 OFFCURVE",
"1764 803 OFFCURVE",
"1584 803 CURVE SMOOTH",
"1468 803 OFFCURVE",
"1393 767 OFFCURVE",
"1334 696 CURVE",
"1326 699 LINE",
"1321 870 OFFCURVE",
"1184 975 OFFCURVE",
"972 975 CURVE SMOOTH",
"771 975 OFFCURVE",
"601 790 OFFCURVE",
"601 579 CURVE SMOOTH",
"601 384 OFFCURVE",
"680 248 OFFCURVE",
"848 152 CURVE",
"842 146 LINE",
"795 149 LINE",
"648 154 LINE",
"606 155 LINE",
"537 155 LINE SMOOTH",
"357 155 OFFCURVE",
"264 180 OFFCURVE",
"192 283 CURVE",
"100 160 LINE",
"143 61 OFFCURVE",
"279 0 OFFCURVE",
"491 0 CURVE SMOOTH",
"953 0 LINE",
"1037 58 LINE",
"1146 18 OFFCURVE",
"1265 -5 OFFCURVE",
"1386 -5 CURVE SMOOTH"
);
},
{
closed = 1;
nodes = (
"837 299 OFFCURVE",
"754 421 OFFCURVE",
"754 585 CURVE SMOOTH",
"754 728 OFFCURVE",
"853 830 OFFCURVE",
"988 830 CURVE SMOOTH",
"1109 830 OFFCURVE",
"1183 761 OFFCURVE",
"1183 644 CURVE SMOOTH",
"1183 473 OFFCURVE",
"1084 315 OFFCURVE",
"1013 227 CURVE"
);
},
{
closed = 1;
nodes = (
"1303 143 OFFCURVE",
"1224 156 OFFCURVE",
"1147 181 CURVE",
"1178 224 OFFCURVE",
"1233 313 OFFCURVE",
"1314 448 CURVE SMOOTH",
"1395 582 OFFCURVE",
"1479 649 OFFCURVE",
"1566 649 CURVE SMOOTH",
"1681 649 OFFCURVE",
"1754 574 OFFCURVE",
"1754 461 CURVE SMOOTH",
"1754 261 OFFCURVE",
"1623 143 OFFCURVE",
"1407 143 CURVE SMOOTH"
);
}
);
width = 2048;
}
);
note = uni0723;
unicode = 0723;
},
{
glyphname = g70;
lastChange = "2016-11-30 01:17:22 +0000";
layers = (
{
layerId = "BBACE0B0-BA28-44BD-A35B-EF629929FF1A";
paths = (
{
closed = 1;
nodes = (
"1531 -5 OFFCURVE",
"1654 26 OFFCURVE",
"1745 95 CURVE",
"1754 95 LINE",
"1803 36 OFFCURVE",
"1904 0 OFFCURVE",
"2035 0 CURVE",
"2035 155 LINE",
"1946 155 OFFCURVE",
"1880 173 OFFCURVE",
"1844 206 CURVE",
"1884 277 OFFCURVE",
"1907 364 OFFCURVE",
"1907 473 CURVE SMOOTH",
"1907 666 OFFCURVE",
"1764 803 OFFCURVE",
"1584 803 CURVE SMOOTH",
"1468 803 OFFCURVE",
"1393 767 OFFCURVE",
"1334 696 CURVE",
"1326 699 LINE",
"1321 870 OFFCURVE",
"1184 975 OFFCURVE",
"972 975 CURVE SMOOTH",
"771 975 OFFCURVE",
"601 790 OFFCURVE",
"601 579 CURVE SMOOTH",
"601 384 OFFCURVE",
"680 248 OFFCURVE",
"848 152 CURVE",
"842 146 LINE",
"795 149 LINE",
"648 154 LINE",
"606 155 LINE",
"537 155 LINE SMOOTH",
"357 155 OFFCURVE",
"264 180 OFFCURVE",
"192 283 CURVE",
"100 160 LINE",
"143 61 OFFCURVE",
"279 0 OFFCURVE",
"491 0 CURVE SMOOTH",
"953 0 LINE",
"1037 58 LINE",
"1146 18 OFFCURVE",
"1265 -5 OFFCURVE",
"1386 -5 CURVE SMOOTH"
);
},
{
closed = 1;
nodes = (
"837 299 OFFCURVE",
"754 421 OFFCURVE",
"754 585 CURVE SMOOTH",
"754 728 OFFCURVE",
"853 830 OFFCURVE",
"988 830 CURVE SMOOTH",
"1109 830 OFFCURVE",
"1183 761 OFFCURVE",
"1183 644 CURVE SMOOTH",
"1183 473 OFFCURVE",
"1084 315 OFFCURVE",
"1013 227 CURVE"
);
},
{
closed = 1;
nodes = (
"1303 143 OFFCURVE",
"1224 156 OFFCURVE",
"1147 181 CURVE",
"1178 224 OFFCURVE",
"1233 313 OFFCURVE",
"1314 448 CURVE SMOOTH",
"1395 582 OFFCURVE",
"1479 649 OFFCURVE",
"1566 649 CURVE SMOOTH",
"1681 649 OFFCURVE",
"1754 574 OFFCURVE",
"1754 461 CURVE SMOOTH",
"1754 261 OFFCURVE",
"1623 143 OFFCURVE",
"1407 143 CURVE SMOOTH"
);
}
);
width = 2035;
}
);
note = g70;
},
{
glyphname = g71;
lastChange = "2016-11-30 01:17:22 +0000";
layers = (
{
layerId = "BBACE0B0-BA28-44BD-A35B-EF629929FF1A";
paths = (
{
closed = 1;
nodes = (
"1068 -5 OFFCURVE",
"1191 26 OFFCURVE",
"1282 95 CURVE",
"1291 95 LINE",
"1340 36 OFFCURVE",
"1441 0 OFFCURVE",
"1572 0 CURVE",
"1572 155 LINE",
"1483 155 OFFCURVE",
"1417 173 OFFCURVE",
"1381 206 CURVE",
"1421 277 OFFCURVE",
"1444 364 OFFCURVE",
"1444 473 CURVE SMOOTH",
"1444 666 OFFCURVE",
"1301 803 OFFCURVE",
"1121 803 CURVE SMOOTH",
"1005 803 OFFCURVE",
"930 767 OFFCURVE",
"871 696 CURVE",
"863 699 LINE",
"858 870 OFFCURVE",
"721 975 OFFCURVE",
"509 975 CURVE SMOOTH",
"308 975 OFFCURVE",
"138 790 OFFCURVE",
"138 579 CURVE SMOOTH",
"138 384 OFFCURVE",
"217 248 OFFCURVE",
"385 152 CURVE",
"379 146 LINE",
"332 149 LINE",
"185 154 LINE",
"143 155 LINE",
"0 155 LINE SMOOTH",
"-44 155 OFFCURVE",
"-80 125 OFFCURVE",
"-80 77 CURVE SMOOTH",
"-80 29 OFFCURVE",
"-44 0 OFFCURVE",
"0 0 CURVE SMOOTH",
"490 0 LINE",
"574 58 LINE",
"683 18 OFFCURVE",
"802 -5 OFFCURVE",
"923 -5 CURVE SMOOTH"
);
},
{
closed = 1;
nodes = (
"374 299 OFFCURVE",
"291 421 OFFCURVE",
"291 585 CURVE SMOOTH",
"291 728 OFFCURVE",
"390 830 OFFCURVE",
"525 830 CURVE SMOOTH",
"646 830 OFFCURVE",
"720 761 OFFCURVE",
"720 644 CURVE SMOOTH",
"720 473 OFFCURVE",
"621 315 OFFCURVE",
"550 227 CURVE"
);
},
{
closed = 1;
nodes = (
"840 143 OFFCURVE",
"761 156 OFFCURVE",
"684 181 CURVE",
"715 224 OFFCURVE",
"770 313 OFFCURVE",
"851 448 CURVE SMOOTH",
"932 582 OFFCURVE",
"1016 649 OFFCURVE",
"1103 649 CURVE SMOOTH",
"1218 649 OFFCURVE",
"1291 574 OFFCURVE",
"1291 461 CURVE SMOOTH",
"1291 261 OFFCURVE",
"1160 143 OFFCURVE",
"944 143 CURVE SMOOTH"
);
}
);
width = 1572;
}
);
note = g71;
},
{
glyphname = g72;
lastChange = "2016-11-30 01:17:22 +0000";
layers = (
{
layerId = "BBACE0B0-BA28-44BD-A35B-EF629929FF1A";
paths = (
{
closed = 1;
nodes = (
"1264 -5 OFFCURVE",
"1444 168 OFFCURVE",
"1444 473 CURVE SMOOTH",
"1444 666 OFFCURVE",
"1301 803 OFFCURVE",
"1121 803 CURVE SMOOTH",
"1005 803 OFFCURVE",
"930 767 OFFCURVE",
"871 696 CURVE",
"863 699 LINE",
"858 870 OFFCURVE",
"721 975 OFFCURVE",
"509 975 CURVE SMOOTH",
"308 975 OFFCURVE",
"138 790 OFFCURVE",
"138 579 CURVE SMOOTH",
"138 384 OFFCURVE",
"217 248 OFFCURVE",
"385 152 CURVE",
"379 146 LINE",
"332 149 LINE",
"185 154 LINE",
"143 155 LINE",
"0 155 LINE SMOOTH",
"-44 155 OFFCURVE",
"-80 125 OFFCURVE",
"-80 77 CURVE SMOOTH",
"-80 29 OFFCURVE",
"-44 0 OFFCURVE",
"0 0 CURVE SMOOTH",
"490 0 LINE",
"574 58 LINE",
"683 18 OFFCURVE",
"802 -5 OFFCURVE",
"923 -5 CURVE SMOOTH"
);
},
{
closed = 1;
nodes = (
"374 299 OFFCURVE",
"291 421 OFFCURVE",
"291 585 CURVE SMOOTH",
"291 728 OFFCURVE",
"390 830 OFFCURVE",
"525 830 CURVE SMOOTH",
"646 830 OFFCURVE",
"720 761 OFFCURVE",
"720 644 CURVE SMOOTH",
"720 473 OFFCURVE",
"621 315 OFFCURVE",
"550 227 CURVE"
);
},
{
closed = 1;
nodes = (
"840 143 OFFCURVE",
"761 156 OFFCURVE",
"684 181 CURVE",
"715 224 OFFCURVE",
"770 313 OFFCURVE",
"851 448 CURVE SMOOTH",
"932 582 OFFCURVE",
"1016 649 OFFCURVE",
"1103 649 CURVE SMOOTH",
"1218 649 OFFCURVE",
"1291 574 OFFCURVE",
"1291 461 CURVE SMOOTH",
"1291 261 OFFCURVE",
"1160 143 OFFCURVE",
"944 143 CURVE SMOOTH"
);
}
);
width = 1578;
}
);
note = g72;
},
{
glyphname = uni0724;
lastChange = "2016-11-30 01:17:22 +0000";
layers = (
{
layerId = "BBACE0B0-BA28-44BD-A35B-EF629929FF1A";
paths = (
{
closed = 1;
nodes = (
"634 32 LINE",
"726 8 OFFCURVE",
"822 -5 OFFCURVE",
"919 -5 CURVE SMOOTH",
"1254 -5 OFFCURVE",
"1440 161 OFFCURVE",
"1440 473 CURVE SMOOTH",
"1440 665 OFFCURVE",
"1291 807 OFFCURVE",
"1111 807 CURVE SMOOTH",
"1027 807 OFFCURVE",
"945 773 OFFCURVE",
"865 685 CURVE",
"857 688 LINE",
"857 861 OFFCURVE",
"723 975 OFFCURVE",
"515 975 CURVE SMOOTH",
"312 975 OFFCURVE",
"140 793 OFFCURVE",
"140 582 CURVE SMOOTH",
"140 357 OFFCURVE",
"271 179 OFFCURVE",
"502 78 CURVE",
"353 -220 LINE",
"469 -278 LINE"
);
},
{
closed = 1;
nodes = (
"388 296 OFFCURVE",
"293 427 OFFCURVE",
"293 588 CURVE SMOOTH",
"293 727 OFFCURVE",
"394 830 OFFCURVE",
"531 830 CURVE SMOOTH",
"648 830 OFFCURVE",
"723 753 OFFCURVE",
"723 634 CURVE SMOOTH",
"723 555 OFFCURVE",
"702 489 OFFCURVE",
"661 405 CURVE SMOOTH",
"572 221 LINE"
);
},
{
closed = 1;
nodes = (
"860 143 OFFCURVE",
"787 153 OFFCURVE",
"707 176 CURVE",
"790 351 LINE SMOOTH",
"891 567 OFFCURVE",
"974 653 OFFCURVE",
"1093 653 CURVE SMOOTH",
"1208 653 OFFCURVE",
"1287 574 OFFCURVE",
"1287 461 CURVE SMOOTH",
"1287 261 OFFCURVE",
"1156 143 OFFCURVE",
"940 143 CURVE SMOOTH"
);
}
);
width = 1580;
}
);
note = uni0724;
unicode = 0724;
},
{
glyphname = g74;
lastChange = "2016-11-30 01:17:22 +0000";
layers = (
{
layerId = "BBACE0B0-BA28-44BD-A35B-EF629929FF1A";
paths = (
{
closed = 1;
nodes = (
"638 32 LINE",
"730 8 OFFCURVE",
"826 -5 OFFCURVE",
"923 -5 CURVE SMOOTH",
"1068 -5 OFFCURVE",
"1191 26 OFFCURVE",
"1282 95 CURVE",
"1291 95 LINE",
"1340 36 OFFCURVE",
"1440 0 OFFCURVE",
"1567 0 CURVE",
"1567 155 LINE",
"1483 155 OFFCURVE",
"1416 173 OFFCURVE",
"1381 206 CURVE",
"1421 277 OFFCURVE",
"1444 364 OFFCURVE",
"1444 473 CURVE SMOOTH",
"1444 665 OFFCURVE",
"1295 807 OFFCURVE",
"1115 807 CURVE SMOOTH",
"1031 807 OFFCURVE",
"949 773 OFFCURVE",
"869 685 CURVE",
"861 688 LINE",
"861 861 OFFCURVE",
"727 975 OFFCURVE",
"519 975 CURVE SMOOTH",
"316 975 OFFCURVE",
"144 793 OFFCURVE",
"144 582 CURVE SMOOTH",
"144 357 OFFCURVE",
"275 179 OFFCURVE",
"506 78 CURVE",
"357 -220 LINE",
"473 -278 LINE"
);
},
{
closed = 1;
nodes = (
"392 296 OFFCURVE",
"297 427 OFFCURVE",
"297 588 CURVE SMOOTH",
"297 727 OFFCURVE",
"398 830 OFFCURVE",
"535 830 CURVE SMOOTH",
"652 830 OFFCURVE",
"727 753 OFFCURVE",
"727 634 CURVE SMOOTH",
"727 555 OFFCURVE",
"706 489 OFFCURVE",
"665 405 CURVE SMOOTH",
"576 221 LINE"
);
},
{
closed = 1;
nodes = (
"864 143 OFFCURVE",
"791 153 OFFCURVE",
"711 176 CURVE",
"794 351 LINE SMOOTH",
"895 567 OFFCURVE",
"978 653 OFFCURVE",
"1097 653 CURVE SMOOTH",
"1212 653 OFFCURVE",
"1291 574 OFFCURVE",
"1291 461 CURVE SMOOTH",
"1291 261 OFFCURVE",
"1160 143 OFFCURVE",
"944 143 CURVE SMOOTH"
);
}
);
width = 1567;
}
);
note = g74;
},
{
glyphname = g75;
lastChange = "2016-11-30 01:17:22 +0000";
layers = (
{
layerId = "BBACE0B0-BA28-44BD-A35B-EF629929FF1A";
paths = (
{
closed = 1;
nodes = (
"1068 -5 OFFCURVE",
"1191 26 OFFCURVE",
"1282 95 CURVE",
"1291 95 LINE",
"1340 36 OFFCURVE",
"1441 0 OFFCURVE",
"1572 0 CURVE",
"1572 155 LINE",
"1483 155 OFFCURVE",
"1417 173 OFFCURVE",
"1381 206 CURVE",
"1421 277 OFFCURVE",
"1444 364 OFFCURVE",
"1444 473 CURVE SMOOTH",
"1444 666 OFFCURVE",
"1301 803 OFFCURVE",
"1121 803 CURVE SMOOTH",
"1005 803 OFFCURVE",
"930 767 OFFCURVE",
"871 696 CURVE",
"863 699 LINE",
"858 870 OFFCURVE",
"721 975 OFFCURVE",
"509 975 CURVE SMOOTH",
"308 975 OFFCURVE",
"138 790 OFFCURVE",
"138 579 CURVE SMOOTH",
"138 384 OFFCURVE",
"217 248 OFFCURVE",
"385 152 CURVE",
"379 146 LINE",
"332 149 LINE",
"185 154 LINE",
"143 155 LINE",
"0 155 LINE SMOOTH",
"-44 155 OFFCURVE",
"-80 125 OFFCURVE",
"-80 77 CURVE SMOOTH",
"-80 29 OFFCURVE",
"-44 0 OFFCURVE",
"0 0 CURVE SMOOTH",
"490 0 LINE",
"574 58 LINE",
"683 18 OFFCURVE",
"802 -5 OFFCURVE",
"923 -5 CURVE SMOOTH"
);
},
{
closed = 1;
nodes = (
"374 299 OFFCURVE",
"291 421 OFFCURVE",
"291 585 CURVE SMOOTH",
"291 728 OFFCURVE",
"390 830 OFFCURVE",
"525 830 CURVE SMOOTH",
"646 830 OFFCURVE",
"720 761 OFFCURVE",
"720 644 CURVE SMOOTH",
"720 473 OFFCURVE",
"621 315 OFFCURVE",
"550 227 CURVE"
);
},
{
closed = 1;
nodes = (
"840 143 OFFCURVE",
"761 156 OFFCURVE",
"684 181 CURVE",
"715 224 OFFCURVE",
"770 313 OFFCURVE",
"851 448 CURVE SMOOTH",
"932 582 OFFCURVE",
"1016 649 OFFCURVE",
"1103 649 CURVE SMOOTH",
"1218 649 OFFCURVE",
"1291 574 OFFCURVE",
"1291 461 CURVE SMOOTH",
"1291 261 OFFCURVE",
"1160 143 OFFCURVE",
"944 143 CURVE SMOOTH"
);
}
);
width = 1565;
}
);
note = g75;
},
{
glyphname = g76;
lastChange = "2016-11-30 01:17:22 +0000";
layers = (
{
layerId = "BBACE0B0-BA28-44BD-A35B-EF629929FF1A";
paths = (
{
closed = 1;
nodes = (
"1264 -5 OFFCURVE",
"1444 168 OFFCURVE",
"1444 473 CURVE SMOOTH",
"1444 666 OFFCURVE",
"1301 803 OFFCURVE",
"1121 803 CURVE SMOOTH",
"1005 803 OFFCURVE",
"930 767 OFFCURVE",
"871 696 CURVE",
"863 699 LINE",
"858 870 OFFCURVE",
"721 975 OFFCURVE",
"509 975 CURVE SMOOTH",
"308 975 OFFCURVE",
"138 790 OFFCURVE",
"138 579 CURVE SMOOTH",
"138 384 OFFCURVE",
"217 248 OFFCURVE",
"385 152 CURVE",
"379 146 LINE",
"332 149 LINE",
"185 154 LINE",
"143 155 LINE",
"0 155 LINE SMOOTH",
"-44 155 OFFCURVE",
"-80 125 OFFCURVE",
"-80 77 CURVE SMOOTH",
"-80 29 OFFCURVE",
"-44 0 OFFCURVE",
"0 0 CURVE SMOOTH",
"490 0 LINE",
"574 58 LINE",
"683 18 OFFCURVE",
"802 -5 OFFCURVE",
"923 -5 CURVE SMOOTH"
);
},
{
closed = 1;
nodes = (
"374 299 OFFCURVE",
"291 421 OFFCURVE",
"291 585 CURVE SMOOTH",
"291 728 OFFCURVE",
"390 830 OFFCURVE",
"525 830 CURVE SMOOTH",
"646 830 OFFCURVE",
"720 761 OFFCURVE",
"720 644 CURVE SMOOTH",
"720 473 OFFCURVE",
"621 315 OFFCURVE",
"550 227 CURVE"
);
},
{
closed = 1;
nodes = (
"840 143 OFFCURVE",
"761 156 OFFCURVE",
"684 181 CURVE",
"715 224 OFFCURVE",
"770 313 OFFCURVE",
"851 448 CURVE SMOOTH",
"932 582 OFFCURVE",
"1016 649 OFFCURVE",
"1103 649 CURVE SMOOTH",
"1218 649 OFFCURVE",
"1291 574 OFFCURVE",
"1291 461 CURVE SMOOTH",
"1291 261 OFFCURVE",
"1160 143 OFFCURVE",
"944 143 CURVE SMOOTH"
);
}
);
width = 1578;
}
);
note = g76;
},
{
glyphname = uni0725;
lastChange = "2016-11-30 01:17:22 +0000";
layers = (
{
layerId = "BBACE0B0-BA28-44BD-A35B-EF629929FF1A";
paths = (
{
closed = 1;
nodes = (
"1465 -10 OFFCURVE",
"1564 49 OFFCURVE",
"1607 168 CURVE",
"1531 268 LINE",
"1526 268 LINE",
"1491 193 OFFCURVE",
"1437 145 OFFCURVE",
"1364 145 CURVE SMOOTH",
"1333 145 OFFCURVE",
"1304 154 OFFCURVE",
"1279 173 CURVE SMOOTH",
"1253 192 OFFCURVE",
"1212 242 OFFCURVE",
"1156 325 CURVE SMOOTH",
"647 1055 LINE",
"514 965 LINE",
"1008 255 LINE SMOOTH",
"1031 222 OFFCURVE",
"1064 182 OFFCURVE",
"1087 155 CURVE",
"547 155 LINE SMOOTH",
"358 155 OFFCURVE",
"261 184 OFFCURVE",
"192 283 CURVE",
"100 160 LINE",
"143 61 OFFCURVE",
"279 0 OFFCURVE",
"491 0 CURVE SMOOTH",
"1094 0 LINE",
"1133 94 LINE",
"1137 94 LINE",
"1196 27 OFFCURVE",
"1259 -10 OFFCURVE",
"1358 -10 CURVE SMOOTH"
);
}
);
width = 1707;
}
);
note = uni0725;
unicode = 0725;
},
{
glyphname = g78;
lastChange = "2016-11-30 01:17:22 +0000";
layers = (
{
layerId = "BBACE0B0-BA28-44BD-A35B-EF629929FF1A";
paths = (
{
closed = 1;
nodes = (
"1094 0 LINE",
"1133 94 LINE",
"1137 94 LINE",
"1196 30 OFFCURVE",
"1250 0 OFFCURVE",
"1306 0 CURVE",
"1306 155 LINE",
"1291 155 OFFCURVE",
"1274 167 OFFCURVE",
"1254 191 CURVE SMOOTH",
"1234 214 OFFCURVE",
"1201 259 OFFCURVE",
"1156 325 CURVE SMOOTH",
"647 1055 LINE",
"514 965 LINE",
"1009 255 LINE SMOOTH",
"1032 222 OFFCURVE",
"1064 182 OFFCURVE",
"1087 155 CURVE",
"547 155 LINE SMOOTH",
"358 155 OFFCURVE",
"261 184 OFFCURVE",
"192 283 CURVE",
"100 160 LINE",
"143 61 OFFCURVE",
"279 0 OFFCURVE",
"491 0 CURVE SMOOTH"
);
}
);
width = 1306;
}
);
note = g78;
},
{
glyphname = g79;
lastChange = "2016-11-30 01:17:22 +0000";
layers = (
{
layerId = "BBACE0B0-BA28-44BD-A35B-EF629929FF1A";
paths = (
{
closed = 1;
nodes = (
"651 0 LINE",
"690 94 LINE",
"694 94 LINE",
"753 30 OFFCURVE",
"807 0 OFFCURVE",
"863 0 CURVE",
"863 155 LINE",
"848 155 OFFCURVE",
"831 167 OFFCURVE",
"811 191 CURVE SMOOTH",
"791 214 OFFCURVE",
"758 259 OFFCURVE",
"713 325 CURVE SMOOTH",
"204 1055 LINE",
"71 965 LINE",
"566 255 LINE SMOOTH",
"589 222 OFFCURVE",
"621 182 OFFCURVE",
"644 155 CURVE",
"0 155 LINE SMOOTH",
"-44 155 OFFCURVE",
"-80 125 OFFCURVE",
"-80 77 CURVE SMOOTH",
"-80 29 OFFCURVE",
"-44 0 OFFCURVE",
"0 0 CURVE SMOOTH"
);
}
);
width = 863;
}
);
note = g79;
},
{
glyphname = g80;
lastChange = "2016-11-30 01:17:22 +0000";
layers = (
{
layerId = "BBACE0B0-BA28-44BD-A35B-EF629929FF1A";
paths = (
{
closed = 1;
nodes = (
"1023 -10 OFFCURVE",
"1122 49 OFFCURVE",
"1165 168 CURVE",
"1089 268 LINE",
"1084 268 LINE",
"1049 193 OFFCURVE",
"995 145 OFFCURVE",
"922 145 CURVE SMOOTH",
"891 145 OFFCURVE",
"862 154 OFFCURVE",
"837 173 CURVE SMOOTH",
"811 192 OFFCURVE",
"770 242 OFFCURVE",
"714 325 CURVE SMOOTH",
"205 1055 LINE",
"72 965 LINE",
"566 255 LINE SMOOTH",
"589 222 OFFCURVE",
"622 182 OFFCURVE",
"645 155 CURVE",
"0 155 LINE SMOOTH",
"-44 155 OFFCURVE",
"-80 125 OFFCURVE",
"-80 77 CURVE SMOOTH",
"-80 29 OFFCURVE",
"-44 0 OFFCURVE",
"0 0 CURVE SMOOTH",
"652 0 LINE",
"691 94 LINE",
"695 94 LINE",
"754 27 OFFCURVE",
"817 -10 OFFCURVE",
"916 -10 CURVE SMOOTH"
);
}
);
width = 1265;
}
);
note = g80;
},
{
glyphname = uni0726;
lastChange = "2016-11-30 01:17:22 +0000";
layers = (
{
layerId = "BBACE0B0-BA28-44BD-A35B-EF629929FF1A";
paths = (
{
closed = 1;
nodes = (
"1328 0 LINE",
"1395 135 LINE",
"1108 1206 LINE",
"960 1158 LINE",
"636 1102 OFFCURVE",
"461 951 OFFCURVE",
"461 735 CURVE SMOOTH",
"461 534 OFFCURVE",
"601 408 OFFCURVE",
"834 408 CURVE SMOOTH",
"1160 408 LINE",
"1227 155 LINE",
"537 155 LINE SMOOTH",
"357 155 OFFCURVE",
"264 180 OFFCURVE",
"192 283 CURVE",
"100 160 LINE",
"143 61 OFFCURVE",
"279 0 OFFCURVE",
"491 0 CURVE SMOOTH"
);
},
{
closed = 1;
nodes = (
"699 553 OFFCURVE",
"623 615 OFFCURVE",
"623 752 CURVE SMOOTH",
"623 887 OFFCURVE",
"748 978 OFFCURVE",
"999 1011 CURVE",
"1121 553 LINE",
"852 553 LINE SMOOTH"
);
}
);
width = 1515;
}
);
note = uni0726;
unicode = 0726;
},
{
glyphname = g82;
lastChange = "2016-11-30 01:17:22 +0000";
layers = (
{
layerId = "BBACE0B0-BA28-44BD-A35B-EF629929FF1A";
paths = (
{
closed = 1;
nodes = (
"1210 0 LINE",
"1250 97 LINE",
"1254 97 LINE",
"1286 41 OFFCURVE",
"1340 0 OFFCURVE",
"1444 0 CURVE SMOOTH",
"1480 0 LINE",
"1480 155 LINE",
"1443 155 LINE SMOOTH",
"1382 155 OFFCURVE",
"1372 227 OFFCURVE",
"1357 280 CURVE SMOOTH",
"1108 1206 LINE",
"960 1158 LINE",
"636 1102 OFFCURVE",
"461 951 OFFCURVE",
"461 735 CURVE SMOOTH",
"461 534 OFFCURVE",
"601 408 OFFCURVE",
"834 408 CURVE SMOOTH",
"1159 408 LINE",
"1228 155 LINE",
"537 155 LINE SMOOTH",
"357 155 OFFCURVE",
"264 180 OFFCURVE",
"192 283 CURVE",
"100 160 LINE",
"143 61 OFFCURVE",
"279 0 OFFCURVE",
"491 0 CURVE SMOOTH"
);
},
{
closed = 1;
nodes = (
"699 553 OFFCURVE",
"623 615 OFFCURVE",
"623 752 CURVE SMOOTH",
"623 887 OFFCURVE",
"748 978 OFFCURVE",
"999 1011 CURVE",
"1121 553 LINE",
"852 553 LINE SMOOTH"
);
}
);
width = 1480;
}
);
note = g82;
},
{
glyphname = g83;
lastChange = "2016-11-30 01:17:22 +0000";
layers = (
{
layerId = "BBACE0B0-BA28-44BD-A35B-EF629929FF1A";
paths = (
{
closed = 1;
nodes = (
"859 0 LINE",
"899 97 LINE",
"903 97 LINE",
"935 41 OFFCURVE",
"989 0 OFFCURVE",
"1093 0 CURVE SMOOTH",
"1129 0 LINE",
"1129 155 LINE",
"1092 155 LINE SMOOTH",
"1031 155 OFFCURVE",
"1021 227 OFFCURVE",
"1006 280 CURVE SMOOTH",
"757 1206 LINE",
"610 1158 LINE",
"297 1107 OFFCURVE",
"110 956 OFFCURVE",
"110 735 CURVE SMOOTH",
"110 534 OFFCURVE",
"250 408 OFFCURVE",
"483 408 CURVE SMOOTH",
"808 408 LINE",
"877 155 LINE",
"0 155 LINE SMOOTH",
"-44 155 OFFCURVE",
"-80 125 OFFCURVE",
"-80 77 CURVE SMOOTH",
"-80 29 OFFCURVE",
"-44 0 OFFCURVE",
"0 0 CURVE SMOOTH"
);
},
{
closed = 1;
nodes = (
"348 553 OFFCURVE",
"272 615 OFFCURVE",
"272 752 CURVE SMOOTH",
"272 887 OFFCURVE",
"397 978 OFFCURVE",
"648 1011 CURVE",
"770 553 LINE",
"501 553 LINE SMOOTH"
);
}
);
width = 1129;
}
);
note = g83;
},
{
glyphname = g84;
lastChange = "2016-11-30 01:17:22 +0000";
layers = (
{
layerId = "BBACE0B0-BA28-44BD-A35B-EF629929FF1A";
paths = (
{
closed = 1;
nodes = (
"977 0 LINE",
"1044 135 LINE",
"757 1206 LINE",
"609 1158 LINE",
"285 1102 OFFCURVE",
"110 951 OFFCURVE",
"110 735 CURVE SMOOTH",
"110 534 OFFCURVE",
"250 408 OFFCURVE",
"483 408 CURVE SMOOTH",
"809 408 LINE",
"876 155 LINE",
"0 155 LINE SMOOTH",
"-44 155 OFFCURVE",
"-80 125 OFFCURVE",
"-80 77 CURVE SMOOTH",
"-80 29 OFFCURVE",
"-44 0 OFFCURVE",
"0 0 CURVE SMOOTH"
);
},
{
closed = 1;
nodes = (
"348 553 OFFCURVE",
"272 615 OFFCURVE",
"272 752 CURVE SMOOTH",
"272 887 OFFCURVE",
"397 978 OFFCURVE",
"648 1011 CURVE",
"770 553 LINE",
"501 553 LINE SMOOTH"
);
}
);
width = 1164;
}
);
note = g84;
},
{
glyphname = uni0727;
lastChange = "2016-11-30 01:17:22 +0000";
layers = (
{
layerId = "BBACE0B0-BA28-44BD-A35B-EF629929FF1A";
paths = (
{
closed = 1;
nodes = (
"1361 0 LINE",
"1406 144 LINE",
"1360 144 LINE SMOOTH",
"921 144 OFFCURVE",
"661 296 OFFCURVE",
"661 584 CURVE SMOOTH",
"661 753 OFFCURVE",
"793 867 OFFCURVE",
"968 867 CURVE SMOOTH",
"1116 867 OFFCURVE",
"1223 794 OFFCURVE",
"1223 683 CURVE SMOOTH",
"1223 584 OFFCURVE",
"1170 522 OFFCURVE",
"1075 522 CURVE SMOOTH",
"999 522 OFFCURVE",
"945 569 OFFCURVE",
"945 654 CURVE",
"824 654 LINE",
"823 649 OFFCURVE",
"823 643 OFFCURVE",
"823 634 CURVE SMOOTH",
"823 481 OFFCURVE",
"919 387 OFFCURVE",
"1075 387 CURVE SMOOTH",
"1263 387 OFFCURVE",
"1367 503 OFFCURVE",
"1367 695 CURVE SMOOTH",
"1367 879 OFFCURVE",
"1193 1017 OFFCURVE",
"968 1017 CURVE SMOOTH",
"704 1017 OFFCURVE",
"510 834 OFFCURVE",
"510 577 CURVE SMOOTH",
"510 392 OFFCURVE",
"589 245 OFFCURVE",
"730 158 CURVE",
"727 151 LINE",
"680 154 OFFCURVE",
"632 155 OFFCURVE",
"588 155 CURVE SMOOTH",
"537 155 LINE SMOOTH",
"357 155 OFFCURVE",
"264 180 OFFCURVE",
"192 283 CURVE",
"100 160 LINE",
"143 61 OFFCURVE",
"279 0 OFFCURVE",
"491 0 CURVE SMOOTH"
);
},
{
closed = 1;
nodes = (
"864 1199 LINE",
"864 1374 LINE",
"697 1374 LINE",
"697 1199 LINE"
);
},
{
closed = 1;
nodes = (
"1242 1199 LINE",
"1242 1374 LINE",
"1075 1374 LINE",
"1075 1199 LINE"
);
}
);
width = 1546;
}
);
note = uni0727;
unicode = 0727;
},
{
glyphname = g86;
lastChange = "2016-11-30 01:17:22 +0000";
layers = (
{
layerId = "BBACE0B0-BA28-44BD-A35B-EF629929FF1A";
paths = (
{
closed = 1;
nodes = (
"1503 0 LINE",
"1503 155 LINE",
"1320 155 LINE SMOOTH",
"900 155 OFFCURVE",
"661 303 OFFCURVE",
"661 584 CURVE SMOOTH",
"661 753 OFFCURVE",
"793 867 OFFCURVE",
"968 867 CURVE SMOOTH",
"1116 867 OFFCURVE",
"1223 794 OFFCURVE",
"1223 683 CURVE SMOOTH",
"1223 584 OFFCURVE",
"1170 522 OFFCURVE",
"1075 522 CURVE SMOOTH",
"999 522 OFFCURVE",
"945 570 OFFCURVE",
"945 654 CURVE",
"824 654 LINE",
"823 649 OFFCURVE",
"823 643 OFFCURVE",
"823 634 CURVE SMOOTH",
"823 481 OFFCURVE",
"919 387 OFFCURVE",
"1075 387 CURVE SMOOTH",
"1263 387 OFFCURVE",
"1367 503 OFFCURVE",
"1367 695 CURVE SMOOTH",
"1367 879 OFFCURVE",
"1193 1017 OFFCURVE",
"968 1017 CURVE SMOOTH",
"704 1017 OFFCURVE",
"510 834 OFFCURVE",
"510 577 CURVE SMOOTH",
"510 392 OFFCURVE",
"589 245 OFFCURVE",
"730 158 CURVE",
"727 151 LINE",
"680 154 OFFCURVE",
"632 155 OFFCURVE",
"588 155 CURVE SMOOTH",
"537 155 LINE SMOOTH",
"357 155 OFFCURVE",
"264 180 OFFCURVE",
"192 283 CURVE",
"100 160 LINE",
"143 61 OFFCURVE",
"279 0 OFFCURVE",
"491 0 CURVE SMOOTH"
);
},
{
closed = 1;
nodes = (
"864 1199 LINE",
"864 1374 LINE",
"697 1374 LINE",
"697 1199 LINE"
);
},
{
closed = 1;
nodes = (
"1242 1199 LINE",
"1242 1374 LINE",
"1075 1374 LINE",
"1075 1199 LINE"
);
}
);
width = 1503;
}
);
note = g86;
},
{
glyphname = g87;
lastChange = "2016-11-30 01:17:22 +0000";
layers = (
{
layerId = "BBACE0B0-BA28-44BD-A35B-EF629929FF1A";
paths = (
{
closed = 1;
nodes = (
"1120 0 LINE",
"1120 155 LINE",
"937 155 LINE SMOOTH",
"517 155 OFFCURVE",
"278 303 OFFCURVE",
"278 584 CURVE SMOOTH",
"278 753 OFFCURVE",
"410 867 OFFCURVE",
"585 867 CURVE SMOOTH",
"733 867 OFFCURVE",
"840 794 OFFCURVE",
"840 683 CURVE SMOOTH",
"840 584 OFFCURVE",
"787 522 OFFCURVE",
"692 522 CURVE SMOOTH",
"616 522 OFFCURVE",
"562 570 OFFCURVE",
"562 654 CURVE",
"441 654 LINE",
"440 649 OFFCURVE",
"440 643 OFFCURVE",
"440 634 CURVE SMOOTH",
"440 481 OFFCURVE",
"536 387 OFFCURVE",
"692 387 CURVE SMOOTH",
"880 387 OFFCURVE",
"984 503 OFFCURVE",
"984 695 CURVE SMOOTH",
"984 879 OFFCURVE",
"810 1017 OFFCURVE",
"585 1017 CURVE SMOOTH",
"321 1017 OFFCURVE",
"127 834 OFFCURVE",
"127 577 CURVE SMOOTH",
"127 392 OFFCURVE",
"206 245 OFFCURVE",
"347 158 CURVE",
"344 151 LINE",
"297 154 OFFCURVE",
"249 155 OFFCURVE",
"205 155 CURVE SMOOTH",
"0 155 LINE SMOOTH",
"-44 155 OFFCURVE",
"-80 125 OFFCURVE",
"-80 77 CURVE SMOOTH",
"-80 29 OFFCURVE",
"-44 0 OFFCURVE",
"0 0 CURVE SMOOTH"
);
},
{
closed = 1;
nodes = (
"479 1199 LINE",
"479 1374 LINE",
"312 1374 LINE",
"312 1199 LINE"
);
},
{
closed = 1;
nodes = (
"857 1199 LINE",
"857 1374 LINE",
"690 1374 LINE",
"690 1199 LINE"
);
}
);
width = 1120;
}
);
note = g87;
},
{
glyphname = g88;
lastChange = "2016-11-30 01:17:22 +0000";
layers = (
{
layerId = "BBACE0B0-BA28-44BD-A35B-EF629929FF1A";
paths = (
{
closed = 1;
nodes = (
"978 0 LINE",
"1023 144 LINE",
"977 144 LINE SMOOTH",
"538 144 OFFCURVE",
"278 296 OFFCURVE",
"278 584 CURVE SMOOTH",
"278 753 OFFCURVE",
"410 867 OFFCURVE",
"585 867 CURVE SMOOTH",
"733 867 OFFCURVE",
"840 794 OFFCURVE",
"840 683 CURVE SMOOTH",
"840 584 OFFCURVE",
"787 522 OFFCURVE",
"692 522 CURVE SMOOTH",
"616 522 OFFCURVE",
"562 569 OFFCURVE",
"562 654 CURVE",
"441 654 LINE",
"440 649 OFFCURVE",
"440 643 OFFCURVE",
"440 634 CURVE SMOOTH",
"440 481 OFFCURVE",
"536 387 OFFCURVE",
"692 387 CURVE SMOOTH",
"880 387 OFFCURVE",
"984 503 OFFCURVE",
"984 695 CURVE SMOOTH",
"984 879 OFFCURVE",
"810 1017 OFFCURVE",
"585 1017 CURVE SMOOTH",
"321 1017 OFFCURVE",
"127 834 OFFCURVE",
"127 577 CURVE SMOOTH",
"127 392 OFFCURVE",
"206 245 OFFCURVE",
"347 158 CURVE",
"344 151 LINE",
"297 154 OFFCURVE",
"249 155 OFFCURVE",
"205 155 CURVE SMOOTH",
"0 155 LINE SMOOTH",
"-44 155 OFFCURVE",
"-80 125 OFFCURVE",
"-80 77 CURVE SMOOTH",
"-80 29 OFFCURVE",
"-44 0 OFFCURVE",
"0 0 CURVE SMOOTH"
);
},
{
closed = 1;
nodes = (
"479 1199 LINE",
"479 1374 LINE",
"312 1374 LINE",
"312 1199 LINE"
);
},
{
closed = 1;
nodes = (
"857 1199 LINE",
"857 1374 LINE",
"690 1374 LINE",
"690 1199 LINE"
);
}
);
width = 1163;
}
);
note = g88;
},
{
glyphname = uni0728;
lastChange = "2016-11-30 01:17:22 +0000";
layers = (
{
layerId = "BBACE0B0-BA28-44BD-A35B-EF629929FF1A";
paths = (
{
closed = 1;
nodes = (
"911 -780 LINE",
"940 -660 LINE",
"525 -451 OFFCURVE",
"299 -148 OFFCURVE",
"299 188 CURVE",
"292 228 LINE",
"300 229 LINE",
"341 90 OFFCURVE",
"456 0 OFFCURVE",
"593 0 CURVE SMOOTH",
"746 0 OFFCURVE",
"848 73 OFFCURVE",
"901 220 CURVE",
"907 220 LINE",
"975 1 LINE",
"1105 43 LINE",
"983 396 LINE",
"859 396 LINE",
"815 225 OFFCURVE",
"726 155 OFFCURVE",
"605 155 CURVE SMOOTH",
"468 155 OFFCURVE",
"360 277 OFFCURVE",
"337 397 CURVE",
"207 394 LINE",
"178 302 OFFCURVE",
"171 221 OFFCURVE",
"171 126 CURVE SMOOTH",
"171 -207 OFFCURVE",
"389 -534 OFFCURVE",
"692 -654 CURVE",
"690 -662 LINE",
"574 -647 OFFCURVE",
"462 -640 OFFCURVE",
"374 -640 CURVE SMOOTH",
"141 -640 LINE",
"141 -780 LINE"
);
}
);
width = 1203;
}
);
note = uni0728;
unicode = 0728;
},
{
glyphname = g90;
lastChange = "2016-11-30 01:17:22 +0000";
layers = (
{
layerId = "BBACE0B0-BA28-44BD-A35B-EF629929FF1A";
paths = (
{
closed = 1;
nodes = (
"911 -780 LINE",
"940 -660 LINE",
"525 -451 OFFCURVE",
"299 -148 OFFCURVE",
"299 188 CURVE",
"292 228 LINE",
"300 229 LINE",
"341 90 OFFCURVE",
"456 0 OFFCURVE",
"593 0 CURVE SMOOTH",
"744 0 OFFCURVE",
"835 62 OFFCURVE",
"888 210 CURVE",
"913 162 LINE",
"964 50 OFFCURVE",
"1030 0 OFFCURVE",
"1139 0 CURVE",
"1139 155 LINE",
"1086 155 OFFCURVE",
"1049 199 OFFCURVE",
"1016 279 CURVE SMOOTH",
"968 396 LINE",
"848 396 LINE",
"804 225 OFFCURVE",
"726 155 OFFCURVE",
"605 155 CURVE SMOOTH",
"468 155 OFFCURVE",
"360 277 OFFCURVE",
"337 397 CURVE",
"207 394 LINE",
"178 302 OFFCURVE",
"171 221 OFFCURVE",
"171 126 CURVE SMOOTH",
"171 -207 OFFCURVE",
"389 -534 OFFCURVE",
"692 -654 CURVE",
"690 -662 LINE",
"574 -647 OFFCURVE",
"462 -640 OFFCURVE",
"374 -640 CURVE SMOOTH",
"141 -640 LINE",
"141 -780 LINE"
);
}
);
width = 1139;
}
);
note = g90;
},
{
glyphname = uni0729;
lastChange = "2016-11-30 01:17:22 +0000";
layers = (
{
layerId = "BBACE0B0-BA28-44BD-A35B-EF629929FF1A";
paths = (
{
closed = 1;
nodes = (
"802 0 LINE",
"838 94 LINE",
"842 94 LINE",
"879 34 OFFCURVE",
"942 0 OFFCURVE",
"1041 0 CURVE SMOOTH",
"1591 0 LINE",
"1671 110 LINE",
"1671 898 LINE",
"1620 886 OFFCURVE",
"1482 872 OFFCURVE",
"1357 872 CURVE SMOOTH",
"1117 872 LINE SMOOTH",
"992 872 OFFCURVE",
"854 886 OFFCURVE",
"803 898 CURVE",
"803 263 LINE SMOOTH",
"803 222 OFFCURVE",
"807 186 OFFCURVE",
"816 155 CURVE",
"537 155 LINE SMOOTH",
"357 155 OFFCURVE",
"264 180 OFFCURVE",
"192 283 CURVE",
"100 160 LINE",
"143 61 OFFCURVE",
"279 0 OFFCURVE",
"491 0 CURVE SMOOTH"
);
},
{
closed = 1;
nodes = (
"971 155 OFFCURVE",
"953 183 OFFCURVE",
"953 276 CURVE SMOOTH",
"953 731 LINE",
"1013 726 OFFCURVE",
"1078 722 OFFCURVE",
"1127 722 CURVE SMOOTH",
"1347 722 LINE SMOOTH",
"1396 722 OFFCURVE",
"1461 724 OFFCURVE",
"1521 731 CURVE",
"1521 155 LINE",
"1064 155 LINE SMOOTH"
);
}
);
width = 1811;
}
);
note = uni0729;
unicode = 0729;
},
{
glyphname = g92;
lastChange = "2016-11-30 01:17:22 +0000";
layers = (
{
layerId = "BBACE0B0-BA28-44BD-A35B-EF629929FF1A";
paths = (
{
closed = 1;
nodes = (
"802 0 LINE",
"838 94 LINE",
"842 94 LINE",
"879 34 OFFCURVE",
"942 0 OFFCURVE",
"1041 0 CURVE SMOOTH",
"1522 0 LINE",
"1557 94 LINE",
"1561 94 LINE",
"1597 34 OFFCURVE",
"1660 0 OFFCURVE",
"1760 0 CURVE SMOOTH",
"1886 0 LINE",
"1886 155 LINE",
"1783 155 LINE SMOOTH",
"1692 155 OFFCURVE",
"1671 180 OFFCURVE",
"1671 276 CURVE SMOOTH",
"1671 898 LINE",
"1620 886 OFFCURVE",
"1482 872 OFFCURVE",
"1357 872 CURVE SMOOTH",
"1117 872 LINE SMOOTH",
"992 872 OFFCURVE",
"854 886 OFFCURVE",
"803 898 CURVE",
"803 263 LINE SMOOTH",
"803 222 OFFCURVE",
"807 186 OFFCURVE",
"816 155 CURVE",
"537 155 LINE SMOOTH",
"357 155 OFFCURVE",
"264 180 OFFCURVE",
"192 283 CURVE",
"100 160 LINE",
"143 61 OFFCURVE",
"279 0 OFFCURVE",
"491 0 CURVE SMOOTH"
);
},
{
closed = 1;
nodes = (
"971 155 OFFCURVE",
"953 183 OFFCURVE",
"953 276 CURVE SMOOTH",
"953 731 LINE",
"1013 726 OFFCURVE",
"1078 722 OFFCURVE",
"1127 722 CURVE SMOOTH",
"1347 722 LINE SMOOTH",
"1396 722 OFFCURVE",
"1461 724 OFFCURVE",
"1521 731 CURVE",
"1521 263 LINE SMOOTH",
"1521 222 OFFCURVE",
"1525 186 OFFCURVE",
"1534 155 CURVE",
"1064 155 LINE SMOOTH"
);
}
);
width = 1886;
}
);
note = g92;
},
{
glyphname = g93;
lastChange = "2016-11-30 01:17:22 +0000";
layers = (
{
layerId = "BBACE0B0-BA28-44BD-A35B-EF629929FF1A";
paths = (
{
closed = 1;
nodes = (
"214 0 LINE",
"251 94 LINE",
"255 94 LINE",
"292 34 OFFCURVE",
"354 0 OFFCURVE",
"453 0 CURVE SMOOTH",
"934 0 LINE",
"969 94 LINE",
"973 94 LINE",
"1009 34 OFFCURVE",
"1072 0 OFFCURVE",
"1172 0 CURVE SMOOTH",
"1298 0 LINE",
"1298 155 LINE",
"1195 155 LINE SMOOTH",
"1104 155 OFFCURVE",
"1083 180 OFFCURVE",
"1083 276 CURVE SMOOTH",
"1083 898 LINE",
"1032 886 OFFCURVE",
"894 872 OFFCURVE",
"769 872 CURVE SMOOTH",
"529 872 LINE SMOOTH",
"404 872 OFFCURVE",
"266 886 OFFCURVE",
"215 898 CURVE",
"215 263 LINE SMOOTH",
"215 222 OFFCURVE",
"219 186 OFFCURVE",
"228 155 CURVE",
"0 155 LINE SMOOTH",
"-44 155 OFFCURVE",
"-80 125 OFFCURVE",
"-80 77 CURVE SMOOTH",
"-80 29 OFFCURVE",
"-44 0 OFFCURVE",
"0 0 CURVE SMOOTH"
);
},
{
closed = 1;
nodes = (
"383 155 OFFCURVE",
"365 183 OFFCURVE",
"365 276 CURVE SMOOTH",
"365 731 LINE",
"425 724 OFFCURVE",
"490 722 OFFCURVE",
"539 722 CURVE SMOOTH",
"759 722 LINE SMOOTH",
"808 722 OFFCURVE",
"873 724 OFFCURVE",
"933 731 CURVE",
"933 263 LINE SMOOTH",
"933 222 OFFCURVE",
"937 186 OFFCURVE",
"946 155 CURVE",
"476 155 LINE SMOOTH"
);
}
);
width = 1298;
}
);
note = g93;
},
{
glyphname = g94;
lastChange = "2016-11-30 01:17:22 +0000";
layers = (
{
layerId = "BBACE0B0-BA28-44BD-A35B-EF629929FF1A";
paths = (
{
closed = 1;
nodes = (
"214 0 LINE",
"251 94 LINE",
"255 94 LINE",
"292 34 OFFCURVE",
"354 0 OFFCURVE",
"453 0 CURVE SMOOTH",
"1003 0 LINE",
"1083 110 LINE",
"1083 898 LINE",
"1032 886 OFFCURVE",
"894 872 OFFCURVE",
"769 872 CURVE SMOOTH",
"529 872 LINE SMOOTH",
"404 872 OFFCURVE",
"266 886 OFFCURVE",
"215 898 CURVE",
"215 263 LINE SMOOTH",
"215 222 OFFCURVE",
"219 186 OFFCURVE",
"228 155 CURVE",
"0 155 LINE SMOOTH",
"-44 155 OFFCURVE",
"-80 125 OFFCURVE",
"-80 77 CURVE SMOOTH",
"-80 29 OFFCURVE",
"-44 0 OFFCURVE",
"0 0 CURVE SMOOTH"
);
},
{
closed = 1;
nodes = (
"383 155 OFFCURVE",
"365 183 OFFCURVE",
"365 276 CURVE SMOOTH",
"365 731 LINE",
"425 724 OFFCURVE",
"490 722 OFFCURVE",
"539 722 CURVE SMOOTH",
"759 722 LINE SMOOTH",
"808 722 OFFCURVE",
"873 724 OFFCURVE",
"933 731 CURVE",
"933 155 LINE",
"476 155 LINE SMOOTH"
);
}
);
width = 1223;
}
);
note = g94;
},
{
glyphname = g96;
lastChange = "2016-11-30 01:17:22 +0000";
layers = (
{
layerId = "BBACE0B0-BA28-44BD-A35B-EF629929FF1A";
paths = (
{
closed = 1;
nodes = (
"805 0 LINE",
"841 94 LINE",
"845 94 LINE",
"885 31 OFFCURVE",
"946 0 OFFCURVE",
"1028 0 CURVE SMOOTH",
"1061 0 LINE",
"1061 155 LINE",
"1028 155 LINE SMOOTH",
"991 155 OFFCURVE",
"959 176 OFFCURVE",
"946 247 CURVE SMOOTH",
"903 474 LINE SMOOTH",
"854 746 OFFCURVE",
"698 881 OFFCURVE",
"438 881 CURVE SMOOTH",
"341 881 OFFCURVE",
"233 853 OFFCURVE",
"185 816 CURVE",
"185 680 LINE",
"244 711 OFFCURVE",
"340 731 OFFCURVE",
"407 731 CURVE SMOOTH",
"619 731 OFFCURVE",
"727 626 OFFCURVE",
"768 391 CURVE SMOOTH",
"793 245 LINE SMOOTH",
"800 210 OFFCURVE",
"805 182 OFFCURVE",
"816 155 CURVE",
"160 155 LINE",
"160 0 LINE"
);
},
{
closed = 1;
nodes = (
"595 1069 LINE",
"595 1244 LINE",
"428 1244 LINE",
"428 1069 LINE"
);
}
);
width = 1061;
}
);
note = g96;
},
{
glyphname = uni072B;
lastChange = "2016-11-30 01:17:22 +0000";
layers = (
{
layerId = "BBACE0B0-BA28-44BD-A35B-EF629929FF1A";
paths = (
{
closed = 1;
nodes = (
"1260 0 LINE",
"1296 94 LINE",
"1300 94 LINE",
"1348 26 OFFCURVE",
"1424 0 OFFCURVE",
"1521 0 CURVE SMOOTH",
"1887 0 LINE",
"1887 155 LINE",
"1534 155 LINE SMOOTH",
"1491 155 OFFCURVE",
"1461 161 OFFCURVE",
"1444 173 CURVE SMOOTH",
"1410 197 OFFCURVE",
"1389 245 OFFCURVE",
"1389 348 CURVE SMOOTH",
"1389 697 LINE",
"1537 700 OFFCURVE",
"1700 724 OFFCURVE",
"1757 755 CURVE",
"1728 901 LINE",
"1700 889 OFFCURVE",
"1651 877 OFFCURVE",
"1581 865 CURVE SMOOTH",
"1511 853 OFFCURVE",
"1422 847 OFFCURVE",
"1314 847 CURVE SMOOTH",
"1206 847 OFFCURVE",
"1117 853 OFFCURVE",
"1047 865 CURVE SMOOTH",
"977 877 OFFCURVE",
"928 889 OFFCURVE",
"900 901 CURVE",
"871 755 LINE",
"928 724 OFFCURVE",
"1091 700 OFFCURVE",
"1239 697 CURVE",
"1239 335 LINE SMOOTH",
"1239 262 OFFCURVE",
"1248 202 OFFCURVE",
"1266 155 CURVE",
"537 155 LINE SMOOTH",
"357 155 OFFCURVE",
"264 180 OFFCURVE",
"192 283 CURVE",
"100 160 LINE",
"143 61 OFFCURVE",
"279 0 OFFCURVE",
"491 0 CURVE SMOOTH"
);
}
);
width = 1987;
}
);
note = uni072B;
unicode = 072B;
},
{
glyphname = g98;
lastChange = "2016-11-30 01:17:22 +0000";
layers = (
{
layerId = "BBACE0B0-BA28-44BD-A35B-EF629929FF1A";
paths = (
{
closed = 1;
nodes = (
"1260 0 LINE",
"1296 94 LINE",
"1300 94 LINE",
"1348 26 OFFCURVE",
"1424 0 OFFCURVE",
"1521 0 CURVE SMOOTH",
"1892 0 LINE",
"1892 155 LINE",
"1534 155 LINE SMOOTH",
"1491 155 OFFCURVE",
"1461 161 OFFCURVE",
"1444 173 CURVE SMOOTH",
"1410 197 OFFCURVE",
"1389 245 OFFCURVE",
"1389 348 CURVE SMOOTH",
"1389 697 LINE",
"1537 700 OFFCURVE",
"1700 724 OFFCURVE",
"1757 755 CURVE",
"1728 901 LINE",
"1700 889 OFFCURVE",
"1651 877 OFFCURVE",
"1581 865 CURVE SMOOTH",
"1511 853 OFFCURVE",
"1422 847 OFFCURVE",
"1314 847 CURVE SMOOTH",
"1206 847 OFFCURVE",
"1117 853 OFFCURVE",
"1047 865 CURVE SMOOTH",
"977 877 OFFCURVE",
"928 889 OFFCURVE",
"900 901 CURVE",
"871 755 LINE",
"928 724 OFFCURVE",
"1091 700 OFFCURVE",
"1239 697 CURVE",
"1239 335 LINE SMOOTH",
"1239 262 OFFCURVE",
"1248 202 OFFCURVE",
"1266 155 CURVE",
"537 155 LINE SMOOTH",
"357 155 OFFCURVE",
"264 180 OFFCURVE",
"192 283 CURVE",
"100 160 LINE",
"143 61 OFFCURVE",
"279 0 OFFCURVE",
"491 0 CURVE SMOOTH"
);
}
);
width = 1892;
}
);
note = g98;
},
{
glyphname = g99;
lastChange = "2016-11-30 01:17:22 +0000";
layers = (
{
layerId = "BBACE0B0-BA28-44BD-A35B-EF629929FF1A";
paths = (
{
closed = 1;
nodes = (
"524 0 LINE",
"560 94 LINE",
"564 94 LINE",
"612 26 OFFCURVE",
"688 0 OFFCURVE",
"785 0 CURVE SMOOTH",
"1156 0 LINE",
"1156 155 LINE",
"798 155 LINE SMOOTH",
"755 155 OFFCURVE",
"725 161 OFFCURVE",
"708 173 CURVE SMOOTH",
"674 197 OFFCURVE",
"653 245 OFFCURVE",
"653 348 CURVE SMOOTH",
"653 697 LINE",
"801 700 OFFCURVE",
"964 724 OFFCURVE",
"1021 755 CURVE",
"992 901 LINE",
"964 889 OFFCURVE",
"915 877 OFFCURVE",
"845 865 CURVE SMOOTH",
"775 853 OFFCURVE",
"686 847 OFFCURVE",
"578 847 CURVE SMOOTH",
"470 847 OFFCURVE",
"381 853 OFFCURVE",
"311 865 CURVE SMOOTH",
"241 877 OFFCURVE",
"192 889 OFFCURVE",
"164 901 CURVE",
"135 755 LINE",
"192 724 OFFCURVE",
"355 700 OFFCURVE",
"503 697 CURVE",
"503 335 LINE SMOOTH",
"503 262 OFFCURVE",
"512 202 OFFCURVE",
"530 155 CURVE",
"0 155 LINE SMOOTH",
"-44 155 OFFCURVE",
"-80 125 OFFCURVE",
"-80 77 CURVE SMOOTH",
"-80 29 OFFCURVE",
"-44 0 OFFCURVE",
"0 0 CURVE SMOOTH"
);
}
);
width = 1156;
}
);
note = g99;
},
{
glyphname = g100;
lastChange = "2016-11-30 01:17:22 +0000";
layers = (
{
layerId = "BBACE0B0-BA28-44BD-A35B-EF629929FF1A";
paths = (
{
closed = 1;
nodes = (
"525 0 LINE",
"560 94 LINE",
"564 94 LINE",
"612 26 OFFCURVE",
"688 0 OFFCURVE",
"785 0 CURVE SMOOTH",
"1131 0 LINE",
"1131 155 LINE",
"798 155 LINE SMOOTH",
"755 155 OFFCURVE",
"725 161 OFFCURVE",
"708 173 CURVE SMOOTH",
"674 197 OFFCURVE",
"653 245 OFFCURVE",
"653 348 CURVE SMOOTH",
"653 697 LINE",
"801 700 OFFCURVE",
"964 724 OFFCURVE",
"1021 755 CURVE",
"992 901 LINE",
"964 889 OFFCURVE",
"915 877 OFFCURVE",
"845 865 CURVE SMOOTH",
"775 853 OFFCURVE",
"686 847 OFFCURVE",
"578 847 CURVE SMOOTH",
"470 847 OFFCURVE",
"381 853 OFFCURVE",
"311 865 CURVE SMOOTH",
"241 877 OFFCURVE",
"192 889 OFFCURVE",
"164 901 CURVE",
"135 755 LINE",
"192 724 OFFCURVE",
"355 700 OFFCURVE",
"503 697 CURVE",
"503 335 LINE SMOOTH",
"503 262 OFFCURVE",
"512 202 OFFCURVE",
"530 155 CURVE",
"0 155 LINE SMOOTH",
"-44 155 OFFCURVE",
"-80 125 OFFCURVE",
"-80 77 CURVE SMOOTH",
"-80 29 OFFCURVE",
"-44 0 OFFCURVE",
"0 0 CURVE SMOOTH"
);
}
);
width = 1231;
}
);
note = g100;
},
{
glyphname = uni072C;
lastChange = "2016-11-30 01:17:22 +0000";
layers = (
{
layerId = "BBACE0B0-BA28-44BD-A35B-EF629929FF1A";
paths = (
{
closed = 1;
nodes = (
"1219 -19 LINE",
"1332 94 LINE",
"590 1112 LINE",
"472 1106 LINE",
"343 841 OFFCURVE",
"140 358 OFFCURVE",
"140 163 CURVE SMOOTH",
"140 58 OFFCURVE",
"194 0 OFFCURVE",
"281 0 CURVE SMOOTH",
"312 0 OFFCURVE",
"355 12 OFFCURVE",
"409 37 CURVE SMOOTH",
"463 61 OFFCURVE",
"512 73 OFFCURVE",
"555 73 CURVE SMOOTH",
"642 73 OFFCURVE",
"688 46 OFFCURVE",
"715 -5 CURVE",
"880 -1 LINE",
"844 152 OFFCURVE",
"736 230 OFFCURVE",
"549 230 CURVE SMOOTH",
"477 230 OFFCURVE",
"382 195 OFFCURVE",
"303 142 CURVE",
"298 146 OFFCURVE",
"294 156 OFFCURVE",
"294 165 CURVE",
"292 189 LINE",
"292 304 OFFCURVE",
"409 623 OFFCURVE",
"542 911 CURVE",
"1214 -19 LINE"
);
}
);
width = 1432;
}
);
note = uni072C;
unicode = 072C;
},
{
glyphname = g102;
lastChange = "2016-11-30 01:17:22 +0000";
layers = (
{
layerId = "BBACE0B0-BA28-44BD-A35B-EF629929FF1A";
paths = (
{
closed = 1;
nodes = (
"880 -1 LINE",
"844 152 OFFCURVE",
"736 230 OFFCURVE",
"549 230 CURVE SMOOTH",
"478 230 OFFCURVE",
"382 197 OFFCURVE",
"302 142 CURVE",
"297 146 OFFCURVE",
"293 156 OFFCURVE",
"293 165 CURVE",
"291 189 LINE",
"291 304 OFFCURVE",
"401 598 OFFCURVE",
"541 910 CURVE",
"1113 99 LINE SMOOTH",
"1154 39 OFFCURVE",
"1212 0 OFFCURVE",
"1280 0 CURVE",
"1280 155 LINE",
"1265 155 OFFCURVE",
"1257 165 OFFCURVE",
"1245 181 CURVE SMOOTH",
"590 1112 LINE",
"472 1106 LINE",
"343 841 OFFCURVE",
"140 358 OFFCURVE",
"140 163 CURVE SMOOTH",
"140 58 OFFCURVE",
"194 0 OFFCURVE",
"281 0 CURVE SMOOTH",
"312 0 OFFCURVE",
"355 12 OFFCURVE",
"409 37 CURVE SMOOTH",
"463 61 OFFCURVE",
"512 73 OFFCURVE",
"555 73 CURVE SMOOTH",
"642 73 OFFCURVE",
"688 46 OFFCURVE",
"715 -5 CURVE"
);
}
);
width = 1280;
}
);
note = g102;
},
{
glyphname = uni072D;
lastChange = "2016-11-30 01:17:22 +0000";
layers = (
{
layerId = "BBACE0B0-BA28-44BD-A35B-EF629929FF1A";
paths = (
{
closed = 1;
nodes = (
"1369 0 LINE",
"1449 110 LINE",
"1449 872 LINE",
"1061 872 LINE",
"962 871 LINE",
"941 870 OFFCURVE",
"921 870 OFFCURVE",
"902 869 CURVE SMOOTH",
"883 868 OFFCURVE",
"870 867 OFFCURVE",
"863 867 CURVE",
"863 875 LINE",
"941 950 LINE SMOOTH",
"954 963 OFFCURVE",
"968 977 OFFCURVE",
"981 991 CURVE SMOOTH",
"1019 1031 LINE",
"1177 1202 LINE",
"1056 1295 LINE",
"664 848 LINE",
"714 737 LINE",
"758 728 OFFCURVE",
"848 723 OFFCURVE",
"965 723 CURVE SMOOTH",
"1057 722 LINE",
"1299 722 LINE",
"1299 155 LINE",
"537 155 LINE SMOOTH",
"357 155 OFFCURVE",
"264 180 OFFCURVE",
"192 283 CURVE",
"100 160 LINE",
"143 61 OFFCURVE",
"279 0 OFFCURVE",
"491 0 CURVE SMOOTH"
);
}
);
width = 1589;
}
);
note = uni072D;
unicode = 072D;
},
{
glyphname = g104;
lastChange = "2016-11-30 01:17:22 +0000";
layers = (
{
layerId = "BBACE0B0-BA28-44BD-A35B-EF629929FF1A";
paths = (
{
closed = 1;
nodes = (
"1320 0 LINE",
"1356 94 LINE",
"1360 94 LINE",
"1408 26 OFFCURVE",
"1484 0 OFFCURVE",
"1581 0 CURVE SMOOTH",
"1664 0 LINE",
"1664 155 LINE",
"1594 155 LINE SMOOTH",
"1551 155 OFFCURVE",
"1521 161 OFFCURVE",
"1504 173 CURVE SMOOTH",
"1470 197 OFFCURVE",
"1449 245 OFFCURVE",
"1449 348 CURVE SMOOTH",
"1449 872 LINE",
"1058 872 LINE",
"960 871 LINE",
"939 870 OFFCURVE",
"919 870 OFFCURVE",
"900 869 CURVE SMOOTH",
"881 868 OFFCURVE",
"868 867 OFFCURVE",
"861 867 CURVE",
"861 875 LINE",
"939 950 LINE SMOOTH",
"952 963 OFFCURVE",
"966 977 OFFCURVE",
"979 991 CURVE SMOOTH",
"1017 1031 LINE",
"1177 1202 LINE",
"1057 1297 LINE",
"664 848 LINE",
"664 722 LINE",
"1299 722 LINE",
"1299 335 LINE SMOOTH",
"1299 262 OFFCURVE",
"1308 202 OFFCURVE",
"1326 155 CURVE",
"537 155 LINE SMOOTH",
"357 155 OFFCURVE",
"264 180 OFFCURVE",
"192 283 CURVE",
"100 160 LINE",
"143 61 OFFCURVE",
"279 0 OFFCURVE",
"491 0 CURVE SMOOTH"
);
}
);
width = 1664;
}
);
note = g104;
},
{
glyphname = g105;
lastChange = "2016-11-30 01:17:22 +0000";
layers = (
{
layerId = "BBACE0B0-BA28-44BD-A35B-EF629929FF1A";
paths = (
{
closed = 1;
nodes = (
"833 0 LINE",
"869 94 LINE",
"873 94 LINE",
"921 26 OFFCURVE",
"997 0 OFFCURVE",
"1094 0 CURVE SMOOTH",
"1177 0 LINE",
"1177 155 LINE",
"1107 155 LINE SMOOTH",
"1064 155 OFFCURVE",
"1034 161 OFFCURVE",
"1017 173 CURVE SMOOTH",
"983 197 OFFCURVE",
"962 245 OFFCURVE",
"962 348 CURVE SMOOTH",
"962 872 LINE",
"571 872 LINE",
"473 871 LINE",
"452 870 OFFCURVE",
"432 870 OFFCURVE",
"413 869 CURVE SMOOTH",
"394 868 OFFCURVE",
"381 867 OFFCURVE",
"374 867 CURVE",
"374 875 LINE",
"452 950 LINE SMOOTH",
"465 963 OFFCURVE",
"479 977 OFFCURVE",
"492 991 CURVE SMOOTH",
"530 1031 LINE",
"690 1202 LINE",
"570 1297 LINE",
"177 848 LINE",
"177 722 LINE",
"812 722 LINE",
"812 335 LINE SMOOTH",
"812 262 OFFCURVE",
"821 202 OFFCURVE",
"839 155 CURVE",
"0 155 LINE SMOOTH",
"-44 155 OFFCURVE",
"-80 125 OFFCURVE",
"-80 77 CURVE SMOOTH",
"-80 29 OFFCURVE",
"-44 0 OFFCURVE",
"0 0 CURVE SMOOTH"
);
}
);
width = 1177;
}
);
note = g105;
},
{
glyphname = g106;
lastChange = "2016-11-30 01:17:22 +0000";
layers = (
{
layerId = "BBACE0B0-BA28-44BD-A35B-EF629929FF1A";
paths = (
{
closed = 1;
nodes = (
"882 0 LINE",
"962 110 LINE",
"962 872 LINE",
"571 872 LINE",
"473 871 LINE",
"452 870 OFFCURVE",
"432 870 OFFCURVE",
"413 869 CURVE SMOOTH",
"394 868 OFFCURVE",
"381 867 OFFCURVE",
"374 867 CURVE",
"374 875 LINE",
"452 950 LINE SMOOTH",
"465 963 OFFCURVE",
"479 977 OFFCURVE",
"492 991 CURVE SMOOTH",
"530 1031 LINE",
"690 1202 LINE",
"570 1297 LINE",
"177 848 LINE",
"177 722 LINE",
"812 722 LINE",
"812 155 LINE",
"0 155 LINE SMOOTH",
"-44 155 OFFCURVE",
"-80 125 OFFCURVE",
"-80 77 CURVE SMOOTH",
"-80 29 OFFCURVE",
"-44 0 OFFCURVE",
"0 0 CURVE SMOOTH"
);
}
);
width = 1102;
}
);
note = g106;
},
{
glyphname = uni072E;
lastChange = "2016-11-30 01:15:49 +0000";
layers = (
{
layerId = "BBACE0B0-BA28-44BD-A35B-EF629929FF1A";
paths = (
{
closed = 1;
nodes = (
"1856 -492 LINE",
"1856 -288 LINE",
"1761 -288 LINE",
"1149 892 LINE",
"1156 896 LINE",
"1177 887 OFFCURVE",
"1203 884 OFFCURVE",
"1222 884 CURVE SMOOTH",
"1359 884 OFFCURVE",
"1435 974 OFFCURVE",
"1435 1105 CURVE SMOOTH",
"1435 1165 OFFCURVE",
"1413 1229 OFFCURVE",
"1380 1294 CURVE SMOOTH",
"1315 1420 LINE",
"1186 1352 LINE",
"1253 1225 LINE SMOOTH",
"1278 1178 OFFCURVE",
"1290 1135 OFFCURVE",
"1290 1100 CURVE SMOOTH",
"1290 1040 OFFCURVE",
"1245 1006 OFFCURVE",
"1181 1006 CURVE SMOOTH",
"1112 1006 OFFCURVE",
"1074 1040 OFFCURVE",
"1045 1095 CURVE SMOOTH",
"878 1420 LINE",
"734 1350 LINE",
"1349 155 LINE",
"547 155 LINE SMOOTH",
"358 155 OFFCURVE",
"261 184 OFFCURVE",
"192 283 CURVE",
"100 160 LINE",
"143 61 OFFCURVE",
"279 0 OFFCURVE",
"491 0 CURVE SMOOTH",
"1498 0 LINE",
"1659 -312 LINE",
"1659 -492 LINE"
);
}
);
width = 1706;
}
);
note = uni072E;
unicode = 072E;
},
{
glyphname = g108;
lastChange = "2016-11-30 01:17:22 +0000";
layers = (
{
layerId = "BBACE0B0-BA28-44BD-A35B-EF629929FF1A";
paths = (
{
closed = 1;
nodes = (
"1793 -492 LINE",
"1793 -288 LINE",
"1698 -288 LINE",
"1548 0 LINE",
"1565 0 LINE",
"1565 155 LINE",
"1549 155 OFFCURVE",
"1535 164 OFFCURVE",
"1522 182 CURVE SMOOTH",
"1509 199 OFFCURVE",
"1491 230 OFFCURVE",
"1468 275 CURVE SMOOTH",
"1149 892 LINE",
"1156 896 LINE",
"1177 887 OFFCURVE",
"1203 884 OFFCURVE",
"1222 884 CURVE SMOOTH",
"1359 884 OFFCURVE",
"1435 974 OFFCURVE",
"1435 1105 CURVE SMOOTH",
"1435 1165 OFFCURVE",
"1413 1229 OFFCURVE",
"1380 1294 CURVE SMOOTH",
"1315 1420 LINE",
"1186 1352 LINE",
"1253 1225 LINE SMOOTH",
"1278 1178 OFFCURVE",
"1290 1135 OFFCURVE",
"1290 1100 CURVE SMOOTH",
"1290 1040 OFFCURVE",
"1245 1006 OFFCURVE",
"1181 1006 CURVE SMOOTH",
"1112 1006 OFFCURVE",
"1074 1040 OFFCURVE",
"1045 1095 CURVE SMOOTH",
"879 1420 LINE",
"735 1349 LINE",
"1350 155 LINE",
"547 155 LINE SMOOTH",
"358 155 OFFCURVE",
"261 184 OFFCURVE",
"192 283 CURVE",
"100 160 LINE",
"143 61 OFFCURVE",
"279 0 OFFCURVE",
"491 0 CURVE SMOOTH",
"1346 0 LINE",
"1383 94 LINE",
"1387 94 LINE",
"1596 -312 LINE",
"1596 -492 LINE"
);
}
);
width = 1565;
}
);
note = g108;
},
{
glyphname = g109;
lastChange = "2016-11-30 01:15:49 +0000";
layers = (
{
layerId = "BBACE0B0-BA28-44BD-A35B-EF629929FF1A";
paths = (
{
closed = 1;
nodes = (
"1010 -492 LINE",
"1010 -288 LINE",
"915 -288 LINE",
"765 0 LINE",
"782 0 LINE",
"782 155 LINE",
"766 155 OFFCURVE",
"752 164 OFFCURVE",
"739 182 CURVE SMOOTH",
"726 199 OFFCURVE",
"708 230 OFFCURVE",
"685 275 CURVE SMOOTH",
"367 892 LINE",
"374 896 LINE",
"395 887 OFFCURVE",
"421 884 OFFCURVE",
"440 884 CURVE SMOOTH",
"577 884 OFFCURVE",
"653 974 OFFCURVE",
"653 1105 CURVE SMOOTH",
"653 1165 OFFCURVE",
"631 1229 OFFCURVE",
"598 1294 CURVE SMOOTH",
"533 1420 LINE",
"404 1352 LINE",
"471 1225 LINE SMOOTH",
"496 1178 OFFCURVE",
"508 1135 OFFCURVE",
"508 1100 CURVE SMOOTH",
"508 1040 OFFCURVE",
"463 1006 OFFCURVE",
"399 1006 CURVE SMOOTH",
"330 1006 OFFCURVE",
"292 1040 OFFCURVE",
"263 1095 CURVE SMOOTH",
"96 1420 LINE",
"-48 1350 LINE",
"567 155 LINE",
"0 155 LINE SMOOTH",
"-44 155 OFFCURVE",
"-80 125 OFFCURVE",
"-80 77 CURVE SMOOTH",
"-80 29 OFFCURVE",
"-44 0 OFFCURVE",
"0 0 CURVE SMOOTH",
"563 0 LINE",
"600 94 LINE",
"604 94 LINE",
"813 -312 LINE",
"813 -492 LINE"
);
}
);
width = 782;
}
);
note = g109;
},
{
glyphname = g110;
lastChange = "2016-11-30 01:15:49 +0000";
layers = (
{
layerId = "BBACE0B0-BA28-44BD-A35B-EF629929FF1A";
paths = (
{
closed = 1;
nodes = (
"1074 -492 LINE",
"1074 -288 LINE",
"979 -288 LINE",
"367 892 LINE",
"374 896 LINE",
"395 887 OFFCURVE",
"421 884 OFFCURVE",
"440 884 CURVE SMOOTH",
"577 884 OFFCURVE",
"653 974 OFFCURVE",
"653 1105 CURVE SMOOTH",
"653 1165 OFFCURVE",
"631 1229 OFFCURVE",
"598 1294 CURVE SMOOTH",
"533 1420 LINE",
"404 1352 LINE",
"471 1225 LINE SMOOTH",
"496 1178 OFFCURVE",
"508 1135 OFFCURVE",
"508 1100 CURVE SMOOTH",
"508 1040 OFFCURVE",
"463 1006 OFFCURVE",
"399 1006 CURVE SMOOTH",
"330 1006 OFFCURVE",
"292 1040 OFFCURVE",
"263 1095 CURVE SMOOTH",
"96 1420 LINE",
"-48 1350 LINE",
"567 155 LINE",
"0 155 LINE SMOOTH",
"-44 155 OFFCURVE",
"-80 125 OFFCURVE",
"-80 77 CURVE SMOOTH",
"-80 29 OFFCURVE",
"-44 0 OFFCURVE",
"0 0 CURVE SMOOTH",
"716 0 LINE",
"877 -312 LINE",
"877 -492 LINE"
);
}
);
width = 924;
}
);
note = g110;
},
{
glyphname = g112;
lastChange = "2016-11-30 01:17:22 +0000";
layers = (
{
layerId = "BBACE0B0-BA28-44BD-A35B-EF629929FF1A";
paths = (
{
closed = 1;
nodes = (
"1160 0 LINE",
"1196 94 LINE",
"1200 94 LINE",
"1240 31 OFFCURVE",
"1301 0 OFFCURVE",
"1383 0 CURVE SMOOTH",
"1416 0 LINE",
"1416 155 LINE",
"1383 155 LINE SMOOTH",
"1346 155 OFFCURVE",
"1314 176 OFFCURVE",
"1301 247 CURVE SMOOTH",
"1258 474 LINE SMOOTH",
"1209 746 OFFCURVE",
"1053 881 OFFCURVE",
"793 881 CURVE SMOOTH",
"696 881 OFFCURVE",
"588 853 OFFCURVE",
"540 816 CURVE",
"540 680 LINE",
"599 711 OFFCURVE",
"695 731 OFFCURVE",
"762 731 CURVE SMOOTH",
"974 731 OFFCURVE",
"1082 626 OFFCURVE",
"1123 391 CURVE SMOOTH",
"1148 245 LINE SMOOTH",
"1155 210 OFFCURVE",
"1160 182 OFFCURVE",
"1171 155 CURVE",
"515 155 LINE",
"515 0 LINE"
);
},
{
closed = 1;
nodes = (
"469 -327 LINE",
"469 -152 LINE",
"302 -152 LINE",
"302 -327 LINE"
);
},
{
closed = 1;
nodes = (
"283 10 LINE",
"283 185 LINE",
"116 185 LINE",
"116 10 LINE"
);
}
);
width = 1416;
}
);
note = g112;
},
{
glyphname = uni074D;
lastChange = "2016-11-30 01:17:22 +0000";
layers = (
{
layerId = "BBACE0B0-BA28-44BD-A35B-EF629929FF1A";
paths = (
{
closed = 1;
nodes = (
"620 -740 LINE",
"800 -491 OFFCURVE",
"1018 40 OFFCURVE",
"1054 503 CURVE",
"913 503 LINE",
"886 192 OFFCURVE",
"776 -204 OFFCURVE",
"584 -552 CURVE",
"456 -225 OFFCURVE",
"360 120 OFFCURVE",
"287 503 CURVE",
"140 503 LINE",
"189 148 OFFCURVE",
"366 -448 OFFCURVE",
"499 -740 CURVE"
);
}
);
width = 1194;
}
);
note = uni074D;
unicode = 074D;
},
{
glyphname = g114;
lastChange = "2016-11-30 01:17:22 +0000";
layers = (
{
layerId = "BBACE0B0-BA28-44BD-A35B-EF629929FF1A";
paths = (
{
closed = 1;
nodes = (
"620 -740 LINE",
"748 -563 OFFCURVE",
"902 -217 OFFCURVE",
"977 66 CURVE",
"983 66 LINE",
"1022 23 OFFCURVE",
"1082 0 OFFCURVE",
"1194 0 CURVE",
"1194 155 LINE",
"1149 156 LINE SMOOTH",
"1090 156 OFFCURVE",
"1033 168 OFFCURVE",
"1009 192 CURVE",
"1030 288 OFFCURVE",
"1046 387 OFFCURVE",
"1054 503 CURVE",
"913 503 LINE",
"886 192 OFFCURVE",
"776 -204 OFFCURVE",
"584 -552 CURVE",
"456 -225 OFFCURVE",
"360 120 OFFCURVE",
"287 503 CURVE",
"140 503 LINE",
"189 148 OFFCURVE",
"366 -448 OFFCURVE",
"499 -740 CURVE"
);
}
);
width = 1194;
}
);
note = g114;
},
{
glyphname = uni074E;
lastChange = "2016-11-30 01:17:22 +0000";
layers = (
{
layerId = "BBACE0B0-BA28-44BD-A35B-EF629929FF1A";
paths = (
{
closed = 1;
nodes = (
"1369 0 LINE",
"1449 110 LINE",
"1449 872 LINE",
"1228 872 LINE SMOOTH",
"1184 872 OFFCURVE",
"1136 871 OFFCURVE",
"1089 868 CURVE",
"1086 875 LINE",
"1133 904 OFFCURVE",
"1157 967 OFFCURVE",
"1157 1035 CURVE SMOOTH",
"1157 1151 OFFCURVE",
"1088 1232 OFFCURVE",
"924 1288 CURVE SMOOTH",
"771 1339 LINE",
"726 1200 LINE",
"863 1155 LINE SMOOTH",
"960 1123 OFFCURVE",
"1003 1089 OFFCURVE",
"1003 1006 CURVE SMOOTH",
"1003 922 OFFCURVE",
"965 875 OFFCURVE",
"842 875 CURVE SMOOTH",
"823 875 OFFCURVE",
"786 876 OFFCURVE",
"746 880 CURVE SMOOTH",
"684 885 LINE SMOOTH",
"663 887 OFFCURVE",
"644 889 OFFCURVE",
"628 892 CURVE",
"628 746 LINE",
"651 740 OFFCURVE",
"697 735 OFFCURVE",
"764 730 CURVE SMOOTH",
"831 725 OFFCURVE",
"911 722 OFFCURVE",
"1002 722 CURVE SMOOTH",
"1299 722 LINE",
"1299 155 LINE",
"537 155 LINE SMOOTH",
"357 155 OFFCURVE",
"264 180 OFFCURVE",
"192 283 CURVE",
"100 160 LINE",
"143 61 OFFCURVE",
"279 0 OFFCURVE",
"491 0 CURVE SMOOTH"
);
}
);
width = 1589;
}
);
note = uni074E;
unicode = 074E;
},
{
glyphname = g116;
lastChange = "2016-11-30 01:17:22 +0000";
layers = (
{
layerId = "BBACE0B0-BA28-44BD-A35B-EF629929FF1A";
paths = (
{
closed = 1;
nodes = (
"1320 0 LINE",
"1356 94 LINE",
"1360 94 LINE",
"1408 26 OFFCURVE",
"1484 0 OFFCURVE",
"1581 0 CURVE SMOOTH",
"1664 0 LINE",
"1664 155 LINE",
"1594 155 LINE SMOOTH",
"1551 155 OFFCURVE",
"1521 161 OFFCURVE",
"1504 173 CURVE SMOOTH",
"1470 197 OFFCURVE",
"1449 245 OFFCURVE",
"1449 348 CURVE SMOOTH",
"1449 872 LINE",
"1228 872 LINE SMOOTH",
"1184 872 OFFCURVE",
"1136 871 OFFCURVE",
"1089 868 CURVE",
"1086 875 LINE",
"1133 904 OFFCURVE",
"1157 967 OFFCURVE",
"1157 1035 CURVE SMOOTH",
"1157 1151 OFFCURVE",
"1088 1232 OFFCURVE",
"924 1288 CURVE SMOOTH",
"771 1339 LINE",
"726 1200 LINE",
"863 1155 LINE SMOOTH",
"960 1123 OFFCURVE",
"1003 1089 OFFCURVE",
"1003 1006 CURVE SMOOTH",
"1003 922 OFFCURVE",
"965 875 OFFCURVE",
"842 875 CURVE SMOOTH",
"823 875 OFFCURVE",
"786 876 OFFCURVE",
"746 880 CURVE SMOOTH",
"684 885 LINE SMOOTH",
"663 887 OFFCURVE",
"644 889 OFFCURVE",
"628 892 CURVE",
"628 746 LINE",
"651 740 OFFCURVE",
"697 735 OFFCURVE",
"764 730 CURVE SMOOTH",
"831 725 OFFCURVE",
"911 722 OFFCURVE",
"1002 722 CURVE SMOOTH",
"1299 722 LINE",
"1299 335 LINE SMOOTH",
"1299 262 OFFCURVE",
"1308 202 OFFCURVE",
"1326 155 CURVE",
"537 155 LINE SMOOTH",
"357 155 OFFCURVE",
"264 180 OFFCURVE",
"192 283 CURVE",
"100 160 LINE",
"143 61 OFFCURVE",
"279 0 OFFCURVE",
"491 0 CURVE SMOOTH"
);
}
);
width = 1664;
}
);
note = g116;
},
{
glyphname = g117;
lastChange = "2016-11-30 01:17:22 +0000";
layers = (
{
layerId = "BBACE0B0-BA28-44BD-A35B-EF629929FF1A";
paths = (
{
closed = 1;
nodes = (
"833 0 LINE",
"869 94 LINE",
"873 94 LINE",
"921 26 OFFCURVE",
"997 0 OFFCURVE",
"1094 0 CURVE SMOOTH",
"1177 0 LINE",
"1177 155 LINE",
"1107 155 LINE SMOOTH",
"1064 155 OFFCURVE",
"1034 161 OFFCURVE",
"1017 173 CURVE SMOOTH",
"983 197 OFFCURVE",
"962 245 OFFCURVE",
"962 348 CURVE SMOOTH",
"962 872 LINE",
"740 872 LINE SMOOTH",
"696 872 OFFCURVE",
"648 871 OFFCURVE",
"601 868 CURVE",
"598 875 LINE",
"645 904 OFFCURVE",
"669 967 OFFCURVE",
"669 1035 CURVE SMOOTH",
"669 1151 OFFCURVE",
"600 1232 OFFCURVE",
"436 1288 CURVE SMOOTH",
"283 1339 LINE",
"238 1200 LINE",
"375 1155 LINE SMOOTH",
"472 1123 OFFCURVE",
"515 1089 OFFCURVE",
"515 1006 CURVE SMOOTH",
"515 922 OFFCURVE",
"477 875 OFFCURVE",
"354 875 CURVE SMOOTH",
"335 875 OFFCURVE",
"298 876 OFFCURVE",
"258 880 CURVE SMOOTH",
"196 885 LINE SMOOTH",
"175 887 OFFCURVE",
"156 889 OFFCURVE",
"140 892 CURVE",
"140 746 LINE",
"163 740 OFFCURVE",
"209 735 OFFCURVE",
"276 730 CURVE SMOOTH",
"343 725 OFFCURVE",
"423 722 OFFCURVE",
"514 722 CURVE SMOOTH",
"812 722 LINE",
"812 335 LINE SMOOTH",
"812 262 OFFCURVE",
"821 202 OFFCURVE",
"839 155 CURVE",
"0 155 LINE SMOOTH",
"-44 155 OFFCURVE",
"-80 125 OFFCURVE",
"-80 77 CURVE SMOOTH",
"-80 29 OFFCURVE",
"-44 0 OFFCURVE",
"0 0 CURVE SMOOTH"
);
}
);
width = 1177;
}
);
note = g117;
},
{
glyphname = g118;
lastChange = "2016-11-30 01:17:22 +0000";
layers = (
{
layerId = "BBACE0B0-BA28-44BD-A35B-EF629929FF1A";
paths = (
{
closed = 1;
nodes = (
"882 0 LINE",
"962 110 LINE",
"962 872 LINE",
"740 872 LINE SMOOTH",
"696 872 OFFCURVE",
"648 871 OFFCURVE",
"601 868 CURVE",
"598 875 LINE",
"645 904 OFFCURVE",
"669 967 OFFCURVE",
"669 1035 CURVE SMOOTH",
"669 1151 OFFCURVE",
"600 1232 OFFCURVE",
"436 1288 CURVE SMOOTH",
"283 1339 LINE",
"238 1200 LINE",
"375 1155 LINE SMOOTH",
"472 1123 OFFCURVE",
"515 1089 OFFCURVE",
"515 1006 CURVE SMOOTH",
"515 922 OFFCURVE",
"477 875 OFFCURVE",
"354 875 CURVE SMOOTH",
"335 875 OFFCURVE",
"298 876 OFFCURVE",
"258 880 CURVE SMOOTH",
"196 885 LINE SMOOTH",
"175 887 OFFCURVE",
"156 889 OFFCURVE",
"140 892 CURVE",
"140 746 LINE",
"163 740 OFFCURVE",
"209 735 OFFCURVE",
"276 730 CURVE SMOOTH",
"343 725 OFFCURVE",
"423 722 OFFCURVE",
"514 722 CURVE SMOOTH",
"812 722 LINE",
"812 155 LINE",
"0 155 LINE SMOOTH",
"-44 155 OFFCURVE",
"-80 125 OFFCURVE",
"-80 77 CURVE SMOOTH",
"-80 29 OFFCURVE",
"-44 0 OFFCURVE",
"0 0 CURVE SMOOTH"
);
}
);
width = 1102;
}
);
note = g118;
},
{
glyphname = uni074F;
lastChange = "2016-11-30 01:17:22 +0000";
layers = (
{
layerId = "BBACE0B0-BA28-44BD-A35B-EF629929FF1A";
paths = (
{
closed = 1;
nodes = (
"1325 81 LINE",
"1074 468 LINE",
"1078 473 LINE",
"1183 478 OFFCURVE",
"1262 555 OFFCURVE",
"1262 670 CURVE SMOOTH",
"1262 786 OFFCURVE",
"1183 863 OFFCURVE",
"1064 863 CURVE SMOOTH",
"987 863 OFFCURVE",
"927 829 OFFCURVE",
"894 761 CURVE",
"887 761 LINE",
"718 1025 LINE",
"592 939 LINE",
"1062 204 LINE",
"1054 187 OFFCURVE",
"1037 175 OFFCURVE",
"1010 167 CURVE SMOOTH",
"983 159 OFFCURVE",
"946 155 OFFCURVE",
"898 155 CURVE SMOOTH",
"547 155 LINE SMOOTH",
"358 155 OFFCURVE",
"261 184 OFFCURVE",
"192 283 CURVE",
"100 160 LINE",
"143 61 OFFCURVE",
"279 0 OFFCURVE",
"491 0 CURVE SMOOTH",
"876 0 LINE SMOOTH",
"1029 0 OFFCURVE",
"1103 28 OFFCURVE",
"1138 77 CURVE",
"1144 77 LINE",
"1197 -6 LINE"
);
},
{
closed = 1;
nodes = (
"1008 562 OFFCURVE",
"965 600 OFFCURVE",
"965 667 CURVE SMOOTH",
"965 734 OFFCURVE",
"1004 772 OFFCURVE",
"1064 772 CURVE SMOOTH",
"1121 772 OFFCURVE",
"1164 734 OFFCURVE",
"1164 667 CURVE SMOOTH",
"1164 600 OFFCURVE",
"1123 562 OFFCURVE",
"1064 562 CURVE SMOOTH"
);
}
);
width = 1425;
}
);
note = uni074F;
unicode = 074F;
},
{
glyphname = g120;
lastChange = "2016-11-30 01:17:22 +0000";
layers = (
{
layerId = "BBACE0B0-BA28-44BD-A35B-EF629929FF1A";
paths = (
{
closed = 1;
nodes = (
"876 0 LINE SMOOTH",
"1027 0 OFFCURVE",
"1110 25 OFFCURVE",
"1146 89 CURVE",
"1150 89 LINE",
"1201 30 OFFCURVE",
"1262 0 OFFCURVE",
"1349 0 CURVE",
"1349 155 LINE",
"1300 155 OFFCURVE",
"1257 184 OFFCURVE",
"1214 252 CURVE SMOOTH",
"1074 468 LINE",
"1078 473 LINE",
"1183 478 OFFCURVE",
"1262 555 OFFCURVE",
"1262 670 CURVE SMOOTH",
"1262 786 OFFCURVE",
"1183 863 OFFCURVE",
"1064 863 CURVE SMOOTH",
"987 863 OFFCURVE",
"927 829 OFFCURVE",
"894 761 CURVE",
"887 761 LINE",
"718 1025 LINE",
"592 939 LINE",
"1062 205 LINE",
"1054 188 OFFCURVE",
"1037 176 OFFCURVE",
"1011 168 CURVE SMOOTH",
"984 159 OFFCURVE",
"947 155 OFFCURVE",
"898 155 CURVE SMOOTH",
"547 155 LINE SMOOTH",
"358 155 OFFCURVE",
"261 184 OFFCURVE",
"192 283 CURVE",
"100 160 LINE",
"143 61 OFFCURVE",
"279 0 OFFCURVE",
"491 0 CURVE SMOOTH"
);
},
{
closed = 1;
nodes = (
"1008 562 OFFCURVE",
"965 600 OFFCURVE",
"965 667 CURVE SMOOTH",
"965 734 OFFCURVE",
"1004 772 OFFCURVE",
"1064 772 CURVE SMOOTH",
"1121 772 OFFCURVE",
"1164 734 OFFCURVE",
"1164 667 CURVE SMOOTH",
"1164 600 OFFCURVE",
"1123 562 OFFCURVE",
"1064 562 CURVE SMOOTH"
);
}
);
width = 1349;
}
);
note = g120;
},
{
glyphname = g121;
lastChange = "2016-11-30 01:17:22 +0000";
layers = (
{
layerId = "BBACE0B0-BA28-44BD-A35B-EF629929FF1A";
paths = (
{
closed = 1;
nodes = (
"444 0 LINE SMOOTH",
"595 0 OFFCURVE",
"678 25 OFFCURVE",
"714 89 CURVE",
"718 89 LINE",
"769 30 OFFCURVE",
"830 0 OFFCURVE",
"917 0 CURVE",
"917 155 LINE",
"868 155 OFFCURVE",
"825 184 OFFCURVE",
"782 252 CURVE SMOOTH",
"642 468 LINE",
"646 473 LINE",
"751 478 OFFCURVE",
"830 555 OFFCURVE",
"830 670 CURVE SMOOTH",
"830 786 OFFCURVE",
"751 863 OFFCURVE",
"632 863 CURVE SMOOTH",
"555 863 OFFCURVE",
"495 829 OFFCURVE",
"462 761 CURVE",
"455 761 LINE",
"286 1025 LINE",
"160 939 LINE",
"630 205 LINE",
"622 189 OFFCURVE",
"605 177 OFFCURVE",
"580 168 CURVE SMOOTH",
"554 159 OFFCURVE",
"516 155 OFFCURVE",
"466 155 CURVE SMOOTH",
"0 155 LINE SMOOTH",
"-44 155 OFFCURVE",
"-80 125 OFFCURVE",
"-80 77 CURVE SMOOTH",
"-80 29 OFFCURVE",
"-44 0 OFFCURVE",
"0 0 CURVE SMOOTH"
);
},
{
closed = 1;
nodes = (
"576 562 OFFCURVE",
"533 600 OFFCURVE",
"533 667 CURVE SMOOTH",
"533 734 OFFCURVE",
"572 772 OFFCURVE",
"632 772 CURVE SMOOTH",
"689 772 OFFCURVE",
"732 734 OFFCURVE",
"732 667 CURVE SMOOTH",
"732 600 OFFCURVE",
"691 562 OFFCURVE",
"632 562 CURVE SMOOTH"
);
}
);
width = 917;
}
);
note = g121;
},
{
glyphname = g122;
lastChange = "2016-11-30 01:17:22 +0000";
layers = (
{
layerId = "BBACE0B0-BA28-44BD-A35B-EF629929FF1A";
paths = (
{
closed = 1;
nodes = (
"893 81 LINE",
"642 468 LINE",
"646 473 LINE",
"751 478 OFFCURVE",
"830 555 OFFCURVE",
"830 670 CURVE SMOOTH",
"830 786 OFFCURVE",
"751 863 OFFCURVE",
"632 863 CURVE SMOOTH",
"555 863 OFFCURVE",
"495 829 OFFCURVE",
"462 761 CURVE",
"455 761 LINE",
"286 1025 LINE",
"160 939 LINE",
"630 204 LINE",
"622 187 OFFCURVE",
"605 175 OFFCURVE",
"578 167 CURVE SMOOTH",
"551 159 OFFCURVE",
"514 155 OFFCURVE",
"466 155 CURVE SMOOTH",
"0 155 LINE SMOOTH",
"-44 155 OFFCURVE",
"-80 125 OFFCURVE",
"-80 77 CURVE SMOOTH",
"-80 29 OFFCURVE",
"-44 0 OFFCURVE",
"0 0 CURVE SMOOTH",
"444 0 LINE SMOOTH",
"597 0 OFFCURVE",
"671 28 OFFCURVE",
"706 77 CURVE",
"712 77 LINE",
"765 -6 LINE"
);
},
{
closed = 1;
nodes = (
"576 562 OFFCURVE",
"533 600 OFFCURVE",
"533 667 CURVE SMOOTH",
"533 734 OFFCURVE",
"572 772 OFFCURVE",
"632 772 CURVE SMOOTH",
"689 772 OFFCURVE",
"732 734 OFFCURVE",
"732 667 CURVE SMOOTH",
"732 600 OFFCURVE",
"691 562 OFFCURVE",
"632 562 CURVE SMOOTH"
);
}
);
width = 993;
}
);
note = g122;
},
{
glyphname = afii57409;
lastChange = "2016-11-30 01:17:22 +0000";
layers = (
{
layerId = "BBACE0B0-BA28-44BD-A35B-EF629929FF1A";
paths = (
{
closed = 1;
nodes = (
"821 15 LINE",
"821 155 LINE",
"613 155 LINE SMOOTH",
"546 155 OFFCURVE",
"495 164 OFFCURVE",
"458 183 CURVE SMOOTH",
"384 219 OFFCURVE",
"327 303 OFFCURVE",
"327 395 CURVE SMOOTH",
"327 530 OFFCURVE",
"422 614 OFFCURVE",
"569 614 CURVE SMOOTH",
"618 614 OFFCURVE",
"670 606 OFFCURVE",
"726 591 CURVE",
"772 713 LINE",
"700 745 OFFCURVE",
"616 752 OFFCURVE",
"553 752 CURVE SMOOTH",
"345 752 OFFCURVE",
"179 604 OFFCURVE",
"179 392 CURVE SMOOTH",
"179 293 OFFCURVE",
"219 206 OFFCURVE",
"304 150 CURVE",
"304 144 LINE",
"110 144 LINE",
"110 15 LINE"
);
}
);
width = 965;
}
);
note = afii57409;
unicode = 0621;
},
{
glyphname = afii57440;
lastChange = "2016-11-30 01:17:22 +0000";
layers = (
{
layerId = "BBACE0B0-BA28-44BD-A35B-EF629929FF1A";
paths = (
{
closed = 1;
nodes = (
"777 0 LINE",
"777 155 LINE",
"0 155 LINE SMOOTH",
"-44 155 OFFCURVE",
"-80 125 OFFCURVE",
"-80 77 CURVE SMOOTH",
"-80 29 OFFCURVE",
"-44 0 OFFCURVE",
"0 0 CURVE SMOOTH"
);
}
);
width = 777;
}
);
note = afii57440;
unicode = 0640;
},
{
glyphname = uni070A;
lastChange = "2016-11-30 01:17:22 +0000";
layers = (
{
layerId = "BBACE0B0-BA28-44BD-A35B-EF629929FF1A";
paths = (
{
closed = 1;
nodes = (
"941 871 LINE",
"941 996 LINE",
"879 996 LINE SMOOTH",
"819 996 OFFCURVE",
"790 1020 OFFCURVE",
"790 1075 CURVE SMOOTH",
"790 1174 LINE",
"700 1174 LINE",
"700 1075 LINE SMOOTH",
"700 1020 OFFCURVE",
"668 996 OFFCURVE",
"607 996 CURVE SMOOTH",
"579 996 LINE SMOOTH",
"518 996 OFFCURVE",
"486 1020 OFFCURVE",
"486 1075 CURVE SMOOTH",
"486 1174 LINE",
"396 1174 LINE",
"396 1075 LINE SMOOTH",
"396 1020 OFFCURVE",
"367 996 OFFCURVE",
"307 996 CURVE SMOOTH",
"245 996 LINE",
"245 871 LINE"
);
},
{
closed = 1;
nodes = (
"685 0 LINE",
"685 189 LINE",
"504 189 LINE",
"504 0 LINE"
);
},
{
closed = 1;
nodes = (
"685 461 LINE",
"685 650 LINE",
"504 650 LINE",
"504 461 LINE"
);
}
);
width = 1186;
}
);
note = uni070A;
unicode = 070A;
},
{
glyphname = uni070B;
lastChange = "2016-11-30 01:15:49 +0000";
layers = (
{
layerId = "BBACE0B0-BA28-44BD-A35B-EF629929FF1A";
paths = (
{
closed = 1;
nodes = (
"1646 1200 LINE",
"1646 1325 LINE",
"244 1325 LINE",
"244 1200 LINE"
);
},
{
closed = 1;
nodes = (
"1036 825 LINE",
"1036 1014 LINE",
"855 1014 LINE",
"855 825 LINE"
);
}
);
width = 1890;
}
);
note = uni070B;
unicode = 070B;
},
{
glyphname = uni070C;
lastChange = "2016-11-30 01:17:22 +0000";
layers = (
{
layerId = "BBACE0B0-BA28-44BD-A35B-EF629929FF1A";
paths = (
{
closed = 1;
nodes = (
"1162 743 OFFCURVE",
"1158 837 OFFCURVE",
"1149 940 CURVE",
"1139 940 LINE",
"1069 808 LINE",
"334 1543 LINE",
"260 1472 LINE",
"995 734 LINE",
"867 663 LINE",
"867 653 LINE",
"968 644 OFFCURVE",
"1061 640 OFFCURVE",
"1162 640 CURVE"
);
}
);
width = 1422;
}
);
note = uni070C;
unicode = 070C;
},
{
glyphname = uni070D;
lastChange = "2016-11-30 01:15:49 +0000";
layers = (
{
layerId = "BBACE0B0-BA28-44BD-A35B-EF629929FF1A";
paths = (
{
closed = 1;
nodes = (
"829 142 LINE",
"829 661 LINE",
"1328 661 LINE",
"1328 766 LINE",
"829 766 LINE",
"829 1285 LINE",
"724 1285 LINE",
"724 766 LINE",
"225 766 LINE",
"225 661 LINE",
"724 661 LINE",
"724 142 LINE"
);
},
{
closed = 1;
nodes = (
"604 368 LINE",
"604 543 LINE",
"437 543 LINE",
"437 368 LINE"
);
},
{
closed = 1;
nodes = (
"1115 368 LINE",
"1115 543 LINE",
"948 543 LINE",
"948 368 LINE"
);
},
{
closed = 1;
nodes = (
"604 883 LINE",
"604 1058 LINE",
"437 1058 LINE",
"437 883 LINE"
);
},
{
closed = 1;
nodes = (
"1115 883 LINE",
"1115 1058 LINE",
"948 1058 LINE",
"948 883 LINE"
);
}
);
width = 1553;
}
);
note = uni070D;
unicode = 070D;
},
{
glyphname = uni070F;
lastChange = "2016-11-30 01:17:22 +0000";
layers = (
{
layerId = "BBACE0B0-BA28-44BD-A35B-EF629929FF1A";
paths = (
{
closed = 1;
nodes = (
"49 -185 LINE",
"49 1595 LINE",
"199 1595 LINE",
"199 1665 LINE",
"-176 1665 LINE",
"-176 1595 LINE",
"-26 1595 LINE",
"-26 -185 LINE"
);
}
);
width = 0;
}
);
note = uni070F;
unicode = 070F;
},
{
glyphname = uni0730;
lastChange = "2016-11-30 01:17:22 +0000";
layers = (
{
layerId = "BBACE0B0-BA28-44BD-A35B-EF629929FF1A";
paths = (
{
closed = 1;
nodes = (
"229 1481 LINE",
"180 1534 LINE",
"124 1483 LINE",
"-179 1507 LINE",
"-183 1198 LINE",
"-243 1144 LINE",
"-194 1091 LINE"
);
},
{
closed = 1;
nodes = (
"-116 1262 LINE",
"-109 1427 LINE",
"54 1418 LINE",
"54 1413 LINE",
"41 1403 OFFCURVE",
"29 1392 OFFCURVE",
"16 1381 CURVE",
"-87 1286 LINE SMOOTH",
"-98 1276 OFFCURVE",
"-106 1268 OFFCURVE",
"-111 1261 CURVE"
);
}
);
width = 0;
}
);
note = uni0730;
unicode = 0730;
},
{
glyphname = uni0731;
lastChange = "2016-11-30 01:17:22 +0000";
layers = (
{
layerId = "BBACE0B0-BA28-44BD-A35B-EF629929FF1A";
paths = (
{
closed = 1;
nodes = (
"-125 -374 LINE",
"178 -398 LINE",
"182 -89 LINE",
"242 -35 LINE",
"193 18 LINE",
"-230 -372 LINE",
"-181 -425 LINE"
);
},
{
closed = 1;
nodes = (
"-55 -309 LINE",
"-55 -304 LINE",
"-42 -294 OFFCURVE",
"-30 -283 OFFCURVE",
"-17 -272 CURVE",
"86 -177 LINE SMOOTH",
"97 -167 OFFCURVE",
"105 -159 OFFCURVE",
"110 -152 CURVE",
"115 -153 LINE",
"108 -318 LINE"
);
}
);
width = 0;
}
);
note = uni0731;
unicode = 0731;
},
{
glyphname = uni0733;
lastChange = "2016-11-30 01:17:22 +0000";
layers = (
{
layerId = "BBACE0B0-BA28-44BD-A35B-EF629929FF1A";
paths = (
{
closed = 1;
nodes = (
"-57 1142 LINE SMOOTH",
"31 1203 OFFCURVE",
"89 1254 OFFCURVE",
"118 1294 CURVE SMOOTH",
"146 1334 OFFCURVE",
"160 1374 OFFCURVE",
"160 1415 CURVE SMOOTH",
"160 1487 OFFCURVE",
"114 1542 OFFCURVE",
"30 1542 CURVE SMOOTH",
"-67 1542 OFFCURVE",
"-123 1464 OFFCURVE",
"-123 1361 CURVE SMOOTH",
"-123 1308 OFFCURVE",
"-112 1264 OFFCURVE",
"-88 1211 CURVE",
"-178 1145 LINE",
"-136 1087 LINE"
);
},
{
closed = 1;
nodes = (
"-41 1284 OFFCURVE",
"-50 1322 OFFCURVE",
"-50 1361 CURVE SMOOTH",
"-50 1421 OFFCURVE",
"-23 1468 OFFCURVE",
"26 1468 CURVE SMOOTH",
"61 1468 OFFCURVE",
"83 1444 OFFCURVE",
"83 1407 CURVE SMOOTH",
"83 1355 OFFCURVE",
"49 1312 OFFCURVE",
"-22 1257 CURVE",
"-26 1257 LINE"
);
}
);
width = 0;
}
);
note = uni0733;
unicode = 0733;
},
{
glyphname = uni0734;
lastChange = "2016-11-30 01:17:22 +0000";
layers = (
{
layerId = "BBACE0B0-BA28-44BD-A35B-EF629929FF1A";
paths = (
{
closed = 1;
nodes = (
"67 -439 OFFCURVE",
"124 -362 OFFCURVE",
"124 -258 CURVE SMOOTH",
"124 -205 OFFCURVE",
"113 -161 OFFCURVE",
"89 -108 CURVE",
"179 -42 LINE",
"137 16 LINE",
"59 -38 LINE SMOOTH",
"-30 -100 OFFCURVE",
"-88 -151 OFFCURVE",
"-116 -191 CURVE SMOOTH",
"-145 -231 OFFCURVE",
"-159 -271 OFFCURVE",
"-159 -312 CURVE SMOOTH",
"-159 -384 OFFCURVE",
"-113 -439 OFFCURVE",
"-29 -439 CURVE SMOOTH"
);
},
{
closed = 1;
nodes = (
"-60 -365 OFFCURVE",
"-82 -341 OFFCURVE",
"-82 -304 CURVE SMOOTH",
"-82 -252 OFFCURVE",
"-48 -209 OFFCURVE",
"23 -154 CURVE",
"27 -154 LINE",
"42 -181 OFFCURVE",
"51 -219 OFFCURVE",
"51 -258 CURVE SMOOTH",
"51 -321 OFFCURVE",
"23 -365 OFFCURVE",
"-25 -365 CURVE SMOOTH"
);
}
);
width = 0;
}
);
note = uni0734;
unicode = 0734;
},
{
glyphname = uni0735;
lastChange = "2016-11-30 01:17:22 +0000";
layers = (
{
layerId = "BBACE0B0-BA28-44BD-A35B-EF629929FF1A";
paths = (
{
closed = 1;
nodes = (
"-21 1358 OFFCURVE",
"65 1474 OFFCURVE",
"65 1525 CURVE SMOOTH",
"65 1550 OFFCURVE",
"47 1572 OFFCURVE",
"18 1572 CURVE SMOOTH",
"-35 1572 OFFCURVE",
"-120 1457 OFFCURVE",
"-120 1405 CURVE SMOOTH",
"-120 1378 OFFCURVE",
"-104 1358 OFFCURVE",
"-73 1358 CURVE SMOOTH"
);
},
{
closed = 1;
nodes = (
"39 1117 OFFCURVE",
"125 1233 OFFCURVE",
"125 1284 CURVE SMOOTH",
"125 1309 OFFCURVE",
"107 1331 OFFCURVE",
"78 1331 CURVE SMOOTH",
"25 1331 OFFCURVE",
"-60 1216 OFFCURVE",
"-60 1164 CURVE SMOOTH",
"-60 1137 OFFCURVE",
"-44 1117 OFFCURVE",
"-13 1117 CURVE SMOOTH"
);
}
);
width = 0;
}
);
note = uni0735;
unicode = 0735;
},
{
glyphname = uni0736;
lastChange = "2016-11-30 01:17:22 +0000";
layers = (
{
layerId = "BBACE0B0-BA28-44BD-A35B-EF629929FF1A";
paths = (
{
closed = 1;
nodes = (
"222 1134 OFFCURVE",
"228 1171 OFFCURVE",
"228 1206 CURVE SMOOTH",
"228 1381 OFFCURVE",
"134 1448 OFFCURVE",
"7 1448 CURVE SMOOTH",
"-104 1448 OFFCURVE",
"-182 1391 OFFCURVE",
"-247 1244 CURVE",
"-177 1218 LINE",
"-125 1333 OFFCURVE",
"-72 1379 OFFCURVE",
"3 1379 CURVE",
"18 1378 LINE",
"-59 1175 LINE",
"12 1152 LINE",
"89 1356 LINE",
"130 1332 OFFCURVE",
"151 1286 OFFCURVE",
"151 1199 CURVE SMOOTH",
"151 1180 OFFCURVE",
"146 1144 OFFCURVE",
"142 1123 CURVE",
"215 1106 LINE"
);
}
);
width = 0;
}
);
note = uni0736;
unicode = 0736;
},
{
glyphname = uni0737;
lastChange = "2016-11-30 01:17:22 +0000";
layers = (
{
layerId = "BBACE0B0-BA28-44BD-A35B-EF629929FF1A";
paths = (
{
closed = 1;
nodes = (
"104 -339 OFFCURVE",
"182 -282 OFFCURVE",
"247 -135 CURVE",
"177 -109 LINE",
"128 -216 OFFCURVE",
"80 -270 OFFCURVE",
"-3 -270 CURVE",
"-18 -269 LINE",
"59 -66 LINE",
"-12 -43 LINE",
"-89 -247 LINE",
"-130 -223 OFFCURVE",
"-151 -177 OFFCURVE",
"-151 -90 CURVE SMOOTH",
"-151 -71 OFFCURVE",
"-146 -35 OFFCURVE",
"-142 -14 CURVE",
"-215 3 LINE",
"-222 -25 OFFCURVE",
"-228 -62 OFFCURVE",
"-228 -97 CURVE SMOOTH",
"-228 -272 OFFCURVE",
"-134 -339 OFFCURVE",
"-7 -339 CURVE SMOOTH"
);
}
);
width = 0;
}
);
note = uni0737;
unicode = 0737;
},
{
glyphname = uni073A;
lastChange = "2016-11-30 01:17:22 +0000";
layers = (
{
layerId = "BBACE0B0-BA28-44BD-A35B-EF629929FF1A";
paths = (
{
closed = 1;
nodes = (
"226 1358 LINE",
"178 1408 LINE",
"54 1300 LINE",
"-10 1373 LINE",
"116 1483 LINE",
"67 1533 LINE",
"-240 1268 LINE",
"-191 1216 LINE",
"-65 1325 LINE",
"-1 1253 LINE",
"-128 1142 LINE",
"-81 1091 LINE"
);
}
);
width = 0;
}
);
note = uni073A;
unicode = 073A;
},
{
glyphname = uni073B;
lastChange = "2016-11-30 01:17:22 +0000";
layers = (
{
layerId = "BBACE0B0-BA28-44BD-A35B-EF629929FF1A";
paths = (
{
closed = 1;
nodes = (
"240 -159 LINE",
"191 -107 LINE",
"65 -216 LINE",
"1 -144 LINE",
"128 -34 LINE",
"81 18 LINE",
"-226 -249 LINE",
"-178 -299 LINE",
"-54 -191 LINE",
"10 -264 LINE",
"-116 -374 LINE",
"-68 -425 LINE"
);
}
);
width = 0;
}
);
note = uni073B;
unicode = 073B;
},
{
glyphname = uni073D;
lastChange = "2016-11-30 01:17:22 +0000";
layers = (
{
layerId = "BBACE0B0-BA28-44BD-A35B-EF629929FF1A";
paths = (
{
closed = 1;
nodes = (
"213 1226 LINE",
"46 1407 LINE",
"143 1517 LINE",
"86 1561 LINE",
"-214 1225 LINE",
"-158 1180 LINE",
"-4 1351 LINE",
"158 1174 LINE"
);
},
{
closed = 1;
nodes = (
"48 1109 LINE",
"48 1221 LINE",
"-54 1221 LINE",
"-54 1109 LINE"
);
}
);
width = 0;
}
);
note = uni073D;
unicode = 073D;
},
{
glyphname = uni073E;
lastChange = "2016-11-30 01:17:22 +0000";
layers = (
{
layerId = "BBACE0B0-BA28-44BD-A35B-EF629929FF1A";
paths = (
{
closed = 1;
nodes = (
"214 -116 LINE",
"159 -71 LINE",
"4 -242 LINE",
"-158 -65 LINE",
"-214 -117 LINE",
"-47 -298 LINE",
"-143 -408 LINE",
"-87 -452 LINE"
);
},
{
closed = 1;
nodes = (
"54 -112 LINE",
"54 0 LINE",
"-48 0 LINE",
"-48 -112 LINE"
);
}
);
width = 0;
}
);
note = uni073E;
unicode = 073E;
},
{
glyphname = uni0747;
lastChange = "2016-11-30 01:17:22 +0000";
layers = (
{
layerId = "BBACE0B0-BA28-44BD-A35B-EF629929FF1A";
paths = (
{
closed = 1;
nodes = (
"253 1236 LINE",
"228 1315 LINE",
"-254 1194 LINE",
"-228 1113 LINE"
);
}
);
width = 0;
}
);
note = uni0747;
unicode = 0747;
},
{
glyphname = uni0748;
lastChange = "2016-11-30 01:17:22 +0000";
layers = (
{
layerId = "BBACE0B0-BA28-44BD-A35B-EF629929FF1A";
paths = (
{
closed = 1;
nodes = (
"254 -85 LINE",
"228 -4 LINE",
"-253 -127 LINE",
"-228 -206 LINE"
);
}
);
width = 0;
}
);
note = uni0748;
unicode = 0748;
},
{
glyphname = uni0749;
lastChange = "2016-11-30 01:17:22 +0000";
layers = (
{
layerId = "BBACE0B0-BA28-44BD-A35B-EF629929FF1A";
paths = (
{
closed = 1;
nodes = (
"188 1216 LINE",
"334 1133 LINE",
"361 1176 LINE",
"214 1261 LINE",
"273 1363 LINE",
"232 1387 LINE",
"173 1286 LINE",
"124 1314 LINE",
"183 1414 LINE",
"142 1439 LINE",
"83 1337 LINE",
"34 1365 LINE",
"92 1467 LINE",
"51 1490 LINE",
"-7 1390 LINE",
"-56 1417 LINE",
"2 1517 LINE",
"-41 1543 LINE",
"-98 1442 LINE",
"-146 1470 LINE",
"-89 1570 LINE",
"-132 1594 LINE",
"-189 1494 LINE",
"-326 1574 LINE",
"-353 1530 LINE",
"-214 1449 LINE",
"-277 1343 LINE",
"-235 1319 LINE",
"-173 1426 LINE",
"-124 1397 LINE",
"-187 1291 LINE",
"-145 1268 LINE",
"-83 1372 LINE",
"-34 1345 LINE",
"-95 1238 LINE",
"-53 1215 LINE",
"8 1320 LINE",
"56 1292 LINE",
"-5 1188 LINE",
"37 1163 LINE",
"98 1269 LINE",
"146 1241 LINE",
"85 1135 LINE",
"127 1111 LINE"
);
}
);
width = 0;
}
);
note = uni0749;
unicode = 0749;
},
{
glyphname = uni074A;
lastChange = "2016-11-30 01:15:49 +0000";
layers = (
{
layerId = "BBACE0B0-BA28-44BD-A35B-EF629929FF1A";
paths = (
{
closed = 1;
nodes = (
"24 1109 LINE",
"24 1342 LINE",
"247 1342 LINE",
"247 1390 LINE",
"24 1390 LINE",
"24 1623 LINE",
"-25 1623 LINE",
"-25 1390 LINE",
"-249 1390 LINE",
"-249 1342 LINE",
"-25 1342 LINE",
"-25 1109 LINE"
);
},
{
closed = 1;
nodes = (
"-83 1206 LINE",
"-83 1284 LINE",
"-159 1284 LINE",
"-159 1206 LINE"
);
},
{
closed = 1;
nodes = (
"158 1206 LINE",
"158 1284 LINE",
"82 1284 LINE",
"82 1206 LINE"
);
},
{
closed = 1;
nodes = (
"-83 1448 LINE",
"-83 1526 LINE",
"-159 1526 LINE",
"-159 1448 LINE"
);
},
{
closed = 1;
nodes = (
"158 1448 LINE",
"158 1526 LINE",
"82 1526 LINE",
"82 1448 LINE"
);
}
);
width = 0;
}
);
note = uni074A;
unicode = 074A;
},
{
glyphname = tildecomb;
lastChange = "2016-11-30 01:17:22 +0000";
layers = (
{
layerId = "BBACE0B0-BA28-44BD-A35B-EF629929FF1A";
paths = (
{
closed = 1;
nodes = (
"201 1108 OFFCURVE",
"257 1172 OFFCURVE",
"268 1289 CURVE",
"193 1289 LINE",
"182 1229 OFFCURVE",
"163 1205 OFFCURVE",
"116 1205 CURVE SMOOTH",
"94 1205 OFFCURVE",
"60 1219 OFFCURVE",
"14 1248 CURVE SMOOTH",
"-33 1277 OFFCURVE",
"-73 1291 OFFCURVE",
"-108 1291 CURVE SMOOTH",
"-199 1291 OFFCURVE",
"-255 1226 OFFCURVE",
"-267 1109 CURVE",
"-191 1109 LINE",
"-182 1169 OFFCURVE",
"-162 1193 OFFCURVE",
"-115 1193 CURVE SMOOTH",
"-90 1193 OFFCURVE",
"-55 1179 OFFCURVE",
"-8 1151 CURVE SMOOTH",
"39 1122 OFFCURVE",
"78 1108 OFFCURVE",
"110 1108 CURVE SMOOTH"
);
}
);
width = 0;
}
);
note = tildecomb;
unicode = 0303;
},
{
glyphname = uni0304;
lastChange = "2016-11-30 01:15:49 +0000";
layers = (
{
layerId = "BBACE0B0-BA28-44BD-A35B-EF629929FF1A";
paths = (
{
closed = 1;
nodes = (
"261 1127 LINE",
"261 1215 LINE",
"-261 1215 LINE",
"-261 1127 LINE"
);
}
);
width = 0;
}
);
note = uni0304;
unicode = 0304;
},
{
glyphname = uni030A;
lastChange = "2016-11-30 01:17:22 +0000";
layers = (
{
layerId = "BBACE0B0-BA28-44BD-A35B-EF629929FF1A";
paths = (
{
closed = 1;
nodes = (
"109 1143 LINE",
"109 1359 LINE",
"-109 1359 LINE",
"-109 1143 LINE"
);
},
{
closed = 1;
nodes = (
"-51 1305 LINE",
"50 1305 LINE",
"50 1197 LINE",
"-51 1197 LINE"
);
}
);
width = 0;
}
);
note = uni030A;
unicode = 030A;
},
{
glyphname = dotbelowcomb;
lastChange = "2016-11-30 01:15:49 +0000";
layers = (
{
layerId = "BBACE0B0-BA28-44BD-A35B-EF629929FF1A";
paths = (
{
closed = 1;
nodes = (
"84 -208 LINE",
"84 -33 LINE",
"-83 -33 LINE",
"-83 -208 LINE"
);
}
);
width = 0;
}
);
note = dotbelowcomb;
unicode = 0323;
},
{
glyphname = uni0325;
lastChange = "2016-11-30 01:17:22 +0000";
layers = (
{
layerId = "BBACE0B0-BA28-44BD-A35B-EF629929FF1A";
paths = (
{
closed = 1;
nodes = (
"109 -252 LINE",
"109 -36 LINE",
"-109 -36 LINE",
"-109 -252 LINE"
);
},
{
closed = 1;
nodes = (
"-51 -90 LINE",
"50 -90 LINE",
"50 -198 LINE",
"-51 -198 LINE"
);
}
);
width = 0;
}
);
note = uni0325;
unicode = 0325;
},
{
glyphname = uni032D;
lastChange = "2016-11-30 01:15:49 +0000";
layers = (
{
layerId = "BBACE0B0-BA28-44BD-A35B-EF629929FF1A";
paths = (
{
closed = 1;
nodes = (
"-154 -205 LINE",
"-131 -187 OFFCURVE",
"-106 -167 OFFCURVE",
"-79 -146 CURVE SMOOTH",
"-2 -83 LINE",
"73 -148 LINE SMOOTH",
"98 -170 OFFCURVE",
"121 -189 OFFCURVE",
"142 -205 CURVE",
"245 -205 LINE",
"245 -196 LINE",
"195 -149 LINE SMOOTH",
"142 -98 OFFCURVE",
"85 -43 OFFCURVE",
"46 0 CURVE",
"-43 0 LINE",
"-89 -46 LINE SMOOTH",
"-106 -63 OFFCURVE",
"-123 -81 OFFCURVE",
"-141 -98 CURVE SMOOTH",
"-194 -149 LINE",
"-245 -196 LINE",
"-245 -205 LINE"
);
}
);
width = 0;
}
);
note = uni032D;
unicode = 032D;
},
{
glyphname = uni032E;
lastChange = "2016-11-30 01:17:22 +0000";
layers = (
{
layerId = "BBACE0B0-BA28-44BD-A35B-EF629929FF1A";
paths = (
{
closed = 1;
nodes = (
"144 -124 OFFCURVE",
"251 -34 OFFCURVE",
"262 101 CURVE",
"183 101 LINE",
"168 25 OFFCURVE",
"104 -29 OFFCURVE",
"0 -29 CURVE SMOOTH",
"-101 -29 OFFCURVE",
"-161 16 OFFCURVE",
"-180 101 CURVE",
"-259 101 LINE",
"-252 -43 OFFCURVE",
"-155 -124 OFFCURVE",
"-4 -124 CURVE SMOOTH"
);
}
);
width = 0;
}
);
note = uni032E;
unicode = 032E;
},
{
glyphname = uni0330;
lastChange = "2016-11-30 01:17:22 +0000";
layers = (
{
layerId = "BBACE0B0-BA28-44BD-A35B-EF629929FF1A";
paths = (
{
closed = 1;
nodes = (
"199 -182 OFFCURVE",
"255 -117 OFFCURVE",
"267 0 CURVE",
"191 0 LINE",
"182 -60 OFFCURVE",
"162 -83 OFFCURVE",
"115 -83 CURVE SMOOTH",
"90 -83 OFFCURVE",
"55 -69 OFFCURVE",
"8 -40 CURVE SMOOTH",
"-39 -12 OFFCURVE",
"-78 2 OFFCURVE",
"-110 2 CURVE SMOOTH",
"-201 2 OFFCURVE",
"-257 -63 OFFCURVE",
"-268 -180 CURVE",
"-194 -180 LINE",
"-183 -120 OFFCURVE",
"-163 -97 OFFCURVE",
"-116 -97 CURVE SMOOTH",
"-93 -97 OFFCURVE",
"-59 -111 OFFCURVE",
"-13 -139 CURVE SMOOTH",
"33 -168 OFFCURVE",
"73 -182 OFFCURVE",
"108 -182 CURVE SMOOTH"
);
}
);
width = 0;
}
);
note = uni0330;
unicode = 0330;
},
{
glyphname = uni0320;
lastChange = "2016-11-30 01:17:22 +0000";
layers = (
{
layerId = "BBACE0B0-BA28-44BD-A35B-EF629929FF1A";
paths = (
{
closed = 1;
nodes = (
"261 -106 LINE",
"261 -18 LINE",
"-261 -18 LINE",
"-261 -106 LINE"
);
}
);
width = 0;
}
);
note = uni0320;
unicode = 0320;
},
{
glyphname = afii57451;
lastChange = "2016-11-30 01:17:22 +0000";
layers = (
{
layerId = "BBACE0B0-BA28-44BD-A35B-EF629929FF1A";
paths = (
{
closed = 1;
nodes = (
"180 1398 LINE",
"177 1470 LINE",
"-200 1328 LINE",
"-197 1256 LINE"
);
},
{
closed = 1;
nodes = (
"191 1243 LINE",
"188 1314 LINE",
"-189 1172 LINE",
"-186 1101 LINE"
);
}
);
width = 0;
}
);
note = afii57451;
unicode = 064B;
},
{
glyphname = afii57452;
lastChange = "2016-11-30 01:17:22 +0000";
layers = (
{
layerId = "BBACE0B0-BA28-44BD-A35B-EF629929FF1A";
paths = (
{
closed = 1;
nodes = (
"-82 1142 LINE SMOOTH",
"23 1181 OFFCURVE",
"95 1215 OFFCURVE",
"133 1243 CURVE SMOOTH",
"170 1270 OFFCURVE",
"189 1308 OFFCURVE",
"189 1355 CURVE SMOOTH",
"189 1422 OFFCURVE",
"137 1468 OFFCURVE",
"73 1468 CURVE SMOOTH",
"2 1468 OFFCURVE",
"-55 1412 OFFCURVE",
"-55 1341 CURVE SMOOTH",
"-55 1300 OFFCURVE",
"-37 1267 OFFCURVE",
"-10 1246 CURVE",
"-10 1242 LINE",
"-70 1217 LINE",
"-103 1202 LINE",
"-132 1188 LINE",
"-133 1192 LINE",
"-122 1209 OFFCURVE",
"-120 1228 OFFCURVE",
"-120 1244 CURVE SMOOTH",
"-120 1312 OFFCURVE",
"-170 1349 OFFCURVE",
"-238 1349 CURVE",
"-235 1281 LINE",
"-199 1278 OFFCURVE",
"-183 1252 OFFCURVE",
"-183 1225 CURVE SMOOTH",
"-183 1204 OFFCURVE",
"-188 1186 OFFCURVE",
"-201 1167 CURVE",
"-195 1100 LINE"
);
},
{
closed = 1;
nodes = (
"27 1287 OFFCURVE",
"11 1312 OFFCURVE",
"11 1341 CURVE SMOOTH",
"11 1376 OFFCURVE",
"37 1397 OFFCURVE",
"68 1397 CURVE SMOOTH",
"99 1397 OFFCURVE",
"120 1377 OFFCURVE",
"120 1346 CURVE SMOOTH",
"120 1311 OFFCURVE",
"93 1288 OFFCURVE",
"61 1275 CURVE SMOOTH",
"54 1272 LINE"
);
}
);
width = 0;
}
);
note = afii57452;
unicode = 064C;
},
{
glyphname = afii57453;
lastChange = "2016-11-30 01:17:22 +0000";
layers = (
{
layerId = "BBACE0B0-BA28-44BD-A35B-EF629929FF1A";
paths = (
{
closed = 1;
nodes = (
"180 -61 LINE",
"177 11 LINE",
"-200 -131 LINE",
"-197 -203 LINE"
);
},
{
closed = 1;
nodes = (
"191 -216 LINE",
"188 -145 LINE",
"-189 -287 LINE",
"-186 -358 LINE"
);
}
);
width = 0;
}
);
note = afii57453;
unicode = 064D;
},
{
glyphname = afii57454;
lastChange = "2016-11-30 01:17:22 +0000";
layers = (
{
layerId = "BBACE0B0-BA28-44BD-A35B-EF629929FF1A";
paths = (
{
closed = 1;
nodes = (
"191 1243 LINE",
"188 1314 LINE",
"-189 1172 LINE",
"-186 1101 LINE"
);
}
);
width = 0;
}
);
note = afii57454;
unicode = 064E;
},
{
glyphname = afii57455;
lastChange = "2016-11-30 01:17:22 +0000";
layers = (
{
layerId = "BBACE0B0-BA28-44BD-A35B-EF629929FF1A";
paths = (
{
closed = 1;
nodes = (
"-33 1156 OFFCURVE",
"69 1198 OFFCURVE",
"115 1228 CURVE SMOOTH",
"161 1258 OFFCURVE",
"184 1299 OFFCURVE",
"184 1351 CURVE SMOOTH",
"184 1418 OFFCURVE",
"128 1464 OFFCURVE",
"64 1464 CURVE SMOOTH",
"-8 1464 OFFCURVE",
"-69 1407 OFFCURVE",
"-69 1335 CURVE SMOOTH",
"-69 1291 OFFCURVE",
"-48 1264 OFFCURVE",
"-20 1243 CURVE",
"-20 1239 LINE",
"-33 1234 OFFCURVE",
"-48 1228 OFFCURVE",
"-64 1222 CURVE SMOOTH",
"-158 1187 LINE SMOOTH",
"-173 1182 OFFCURVE",
"-185 1177 OFFCURVE",
"-195 1174 CURVE",
"-192 1101 LINE"
);
},
{
closed = 1;
nodes = (
"18 1282 OFFCURVE",
"0 1306 OFFCURVE",
"0 1335 CURVE SMOOTH",
"0 1370 OFFCURVE",
"27 1391 OFFCURVE",
"59 1391 CURVE SMOOTH",
"98 1391 OFFCURVE",
"116 1369 OFFCURVE",
"116 1342 CURVE SMOOTH",
"116 1311 OFFCURVE",
"95 1289 OFFCURVE",
"52 1269 CURVE",
"45 1267 LINE"
);
}
);
width = 0;
}
);
note = afii57455;
unicode = 064F;
},
{
glyphname = afii57456;
lastChange = "2016-11-30 01:17:22 +0000";
layers = (
{
layerId = "BBACE0B0-BA28-44BD-A35B-EF629929FF1A";
paths = (
{
closed = 1;
nodes = (
"180 -61 LINE",
"177 11 LINE",
"-200 -131 LINE",
"-197 -203 LINE"
);
}
);
width = 0;
}
);
note = afii57456;
unicode = 0650;
},
{
glyphname = afii57457;
lastChange = "2016-11-30 01:17:22 +0000";
layers = (
{
layerId = "BBACE0B0-BA28-44BD-A35B-EF629929FF1A";
paths = (
{
closed = 1;
nodes = (
"-60 1113 OFFCURVE",
"-21 1153 OFFCURVE",
"-14 1217 CURVE",
"-10 1218 LINE",
"13 1187 OFFCURVE",
"46 1180 OFFCURVE",
"66 1180 CURVE SMOOTH",
"129 1180 OFFCURVE",
"175 1227 OFFCURVE",
"175 1304 CURVE SMOOTH",
"175 1347 OFFCURVE",
"159 1383 OFFCURVE",
"132 1410 CURVE",
"72 1387 LINE",
"88 1368 OFFCURVE",
"110 1341 OFFCURVE",
"110 1305 CURVE SMOOTH",
"110 1274 OFFCURVE",
"97 1250 OFFCURVE",
"62 1250 CURVE SMOOTH",
"46 1250 OFFCURVE",
"32 1257 OFFCURVE",
"20 1270 CURVE SMOOTH",
"8 1283 OFFCURVE",
"-3 1308 OFFCURVE",
"-14 1345 CURVE",
"-77 1321 LINE",
"-70 1302 OFFCURVE",
"-65 1277 OFFCURVE",
"-65 1254 CURVE SMOOTH",
"-65 1218 OFFCURVE",
"-79 1183 OFFCURVE",
"-120 1183 CURVE SMOOTH",
"-161 1183 OFFCURVE",
"-182 1225 OFFCURVE",
"-182 1288 CURVE",
"-241 1270 LINE",
"-241 1261 LINE SMOOTH",
"-241 1169 OFFCURVE",
"-197 1113 OFFCURVE",
"-128 1113 CURVE SMOOTH"
);
}
);
width = 0;
}
);
note = afii57457;
unicode = 0651;
},
{
glyphname = afii57458;
lastChange = "2016-11-30 01:17:22 +0000";
layers = (
{
layerId = "BBACE0B0-BA28-44BD-A35B-EF629929FF1A";
paths = (
{
closed = 1;
nodes = (
"68 1109 OFFCURVE",
"128 1167 OFFCURVE",
"128 1238 CURVE SMOOTH",
"128 1321 OFFCURVE",
"67 1381 OFFCURVE",
"-12 1381 CURVE SMOOTH",
"-81 1381 OFFCURVE",
"-146 1317 OFFCURVE",
"-146 1242 CURVE SMOOTH",
"-146 1163 OFFCURVE",
"-89 1109 OFFCURVE",
"-9 1109 CURVE SMOOTH"
);
},
{
closed = 1;
nodes = (
"-54 1174 OFFCURVE",
"-82 1205 OFFCURVE",
"-82 1244 CURVE SMOOTH",
"-82 1283 OFFCURVE",
"-52 1315 OFFCURVE",
"-9 1315 CURVE SMOOTH",
"34 1315 OFFCURVE",
"64 1288 OFFCURVE",
"64 1245 CURVE SMOOTH",
"64 1206 OFFCURVE",
"38 1174 OFFCURVE",
"-11 1174 CURVE SMOOTH"
);
}
);
width = 0;
}
);
note = afii57458;
unicode = 0652;
},
{
glyphname = uni0653;
lastChange = "2016-11-30 01:15:49 +0000";
layers = (
{
layerId = "BBACE0B0-BA28-44BD-A35B-EF629929FF1A";
paths = (
{
closed = 1;
nodes = (
"-170 1133 LINE SMOOTH",
"-159 1146 OFFCURVE",
"-150 1156 OFFCURVE",
"-145 1161 CURVE",
"-96 1138 OFFCURVE",
"-46 1125 OFFCURVE",
"30 1125 CURVE SMOOTH",
"101 1125 OFFCURVE",
"192 1152 OFFCURVE",
"237 1188 CURVE",
"195 1248 LINE",
"154 1223 OFFCURVE",
"98 1206 OFFCURVE",
"41 1206 CURVE SMOOTH",
"-18 1206 OFFCURVE",
"-69 1213 OFFCURVE",
"-160 1246 CURVE",
"-166 1241 OFFCURVE",
"-173 1233 OFFCURVE",
"-181 1224 CURVE SMOOTH",
"-208 1193 LINE SMOOTH",
"-227 1170 OFFCURVE",
"-245 1147 OFFCURVE",
"-260 1127 CURVE",
"-204 1092 LINE"
);
}
);
width = 0;
}
);
note = uni0653;
unicode = 0653;
},
{
glyphname = uni0654;
lastChange = "2016-11-30 01:17:22 +0000";
layers = (
{
layerId = "BBACE0B0-BA28-44BD-A35B-EF629929FF1A";
paths = (
{
closed = 1;
nodes = (
"138 1144 LINE",
"138 1220 LINE",
"46 1210 LINE",
"43 1209 OFFCURVE",
"39 1209 OFFCURVE",
"34 1209 CURVE",
"19 1208 LINE",
"-28 1208 OFFCURVE",
"-56 1244 OFFCURVE",
"-56 1281 CURVE SMOOTH",
"-56 1328 OFFCURVE",
"-23 1355 OFFCURVE",
"28 1355 CURVE SMOOTH",
"49 1355 OFFCURVE",
"72 1353 OFFCURVE",
"97 1344 CURVE",
"120 1410 LINE",
"89 1426 OFFCURVE",
"48 1432 OFFCURVE",
"21 1432 CURVE SMOOTH",
"-64 1432 OFFCURVE",
"-135 1369 OFFCURVE",
"-135 1280 CURVE SMOOTH",
"-135 1253 OFFCURVE",
"-125 1215 OFFCURVE",
"-94 1195 CURVE",
"-94 1191 LINE",
"-159 1184 LINE",
"-159 1109 LINE"
);
}
);
width = 0;
}
);
note = uni0654;
unicode = 0654;
},
{
glyphname = uni0655;
lastChange = "2016-11-30 01:17:22 +0000";
layers = (
{
layerId = "BBACE0B0-BA28-44BD-A35B-EF629929FF1A";
paths = (
{
closed = 1;
nodes = (
"138 -288 LINE",
"138 -212 LINE",
"46 -222 LINE",
"43 -223 OFFCURVE",
"39 -223 OFFCURVE",
"34 -223 CURVE",
"19 -224 LINE",
"-28 -224 OFFCURVE",
"-56 -188 OFFCURVE",
"-56 -151 CURVE SMOOTH",
"-56 -104 OFFCURVE",
"-23 -77 OFFCURVE",
"28 -77 CURVE SMOOTH",
"49 -77 OFFCURVE",
"72 -79 OFFCURVE",
"97 -88 CURVE",
"120 -22 LINE",
"89 -6 OFFCURVE",
"48 0 OFFCURVE",
"21 0 CURVE SMOOTH",
"-64 0 OFFCURVE",
"-135 -63 OFFCURVE",
"-135 -152 CURVE SMOOTH",
"-135 -179 OFFCURVE",
"-125 -217 OFFCURVE",
"-94 -237 CURVE",
"-94 -241 LINE",
"-159 -248 LINE",
"-159 -323 LINE"
);
}
);
width = 0;
}
);
note = uni0655;
unicode = 0655;
},
{
glyphname = uni0670;
lastChange = "2016-11-30 01:17:22 +0000";
layers = (
{
layerId = "BBACE0B0-BA28-44BD-A35B-EF629929FF1A";
paths = (
{
closed = 1;
nodes = (
"47 1109 LINE",
"47 1478 LINE",
"-47 1478 LINE",
"-47 1109 LINE"
);
}
);
width = 0;
}
);
note = uni0670;
unicode = 0670;
},
{
glyphname = g191;
lastChange = "2016-11-30 01:17:22 +0000";
layers = (
{
layerId = "BBACE0B0-BA28-44BD-A35B-EF629929FF1A";
paths = (
{
closed = 1;
nodes = (
"-129 1432 LINE SMOOTH",
"-24 1471 OFFCURVE",
"48 1505 OFFCURVE",
"86 1533 CURVE SMOOTH",
"123 1560 OFFCURVE",
"142 1598 OFFCURVE",
"142 1645 CURVE SMOOTH",
"142 1712 OFFCURVE",
"90 1758 OFFCURVE",
"26 1758 CURVE SMOOTH",
"-45 1758 OFFCURVE",
"-102 1702 OFFCURVE",
"-102 1631 CURVE SMOOTH",
"-102 1590 OFFCURVE",
"-84 1557 OFFCURVE",
"-57 1536 CURVE",
"-57 1532 LINE",
"-117 1507 LINE",
"-150 1492 LINE",
"-179 1478 LINE",
"-180 1482 LINE",
"-169 1499 OFFCURVE",
"-167 1518 OFFCURVE",
"-167 1534 CURVE SMOOTH",
"-167 1602 OFFCURVE",
"-217 1639 OFFCURVE",
"-285 1639 CURVE",
"-282 1571 LINE",
"-246 1568 OFFCURVE",
"-230 1542 OFFCURVE",
"-230 1515 CURVE SMOOTH",
"-230 1494 OFFCURVE",
"-235 1476 OFFCURVE",
"-248 1457 CURVE",
"-242 1390 LINE"
);
},
{
closed = 1;
nodes = (
"-60 1113 OFFCURVE",
"-21 1153 OFFCURVE",
"-14 1217 CURVE",
"-10 1218 LINE",
"13 1187 OFFCURVE",
"46 1180 OFFCURVE",
"66 1180 CURVE SMOOTH",
"129 1180 OFFCURVE",
"175 1227 OFFCURVE",
"175 1304 CURVE SMOOTH",
"175 1347 OFFCURVE",
"159 1383 OFFCURVE",
"132 1410 CURVE",
"72 1387 LINE",
"88 1368 OFFCURVE",
"110 1341 OFFCURVE",
"110 1305 CURVE SMOOTH",
"110 1274 OFFCURVE",
"97 1250 OFFCURVE",
"62 1250 CURVE SMOOTH",
"46 1250 OFFCURVE",
"32 1257 OFFCURVE",
"20 1270 CURVE SMOOTH",
"8 1283 OFFCURVE",
"-3 1308 OFFCURVE",
"-14 1345 CURVE",
"-77 1321 LINE",
"-70 1302 OFFCURVE",
"-65 1277 OFFCURVE",
"-65 1254 CURVE SMOOTH",
"-65 1218 OFFCURVE",
"-79 1183 OFFCURVE",
"-120 1183 CURVE SMOOTH",
"-161 1183 OFFCURVE",
"-182 1225 OFFCURVE",
"-182 1288 CURVE",
"-241 1270 LINE",
"-241 1261 LINE SMOOTH",
"-241 1169 OFFCURVE",
"-197 1113 OFFCURVE",
"-128 1113 CURVE SMOOTH"
);
},
{
closed = 1;
nodes = (
"-20 1577 OFFCURVE",
"-36 1602 OFFCURVE",
"-36 1631 CURVE SMOOTH",
"-36 1666 OFFCURVE",
"-10 1687 OFFCURVE",
"21 1687 CURVE SMOOTH",
"52 1687 OFFCURVE",
"73 1667 OFFCURVE",
"73 1636 CURVE SMOOTH",
"73 1601 OFFCURVE",
"46 1578 OFFCURVE",
"14 1565 CURVE SMOOTH",
"7 1562 LINE"
);
}
);
width = 0;
}
);
note = g191;
},
{
glyphname = g192;
lastChange = "2016-11-30 01:17:22 +0000";
layers = (
{
layerId = "BBACE0B0-BA28-44BD-A35B-EF629929FF1A";
paths = (
{
closed = 1;
nodes = (
"-62 1476 OFFCURVE",
"-23 1516 OFFCURVE",
"-16 1580 CURVE",
"-12 1581 LINE",
"11 1550 OFFCURVE",
"44 1543 OFFCURVE",
"64 1543 CURVE SMOOTH",
"127 1543 OFFCURVE",
"173 1590 OFFCURVE",
"173 1667 CURVE SMOOTH",
"173 1710 OFFCURVE",
"157 1746 OFFCURVE",
"130 1773 CURVE",
"70 1750 LINE",
"86 1731 OFFCURVE",
"108 1704 OFFCURVE",
"108 1668 CURVE SMOOTH",
"108 1637 OFFCURVE",
"95 1613 OFFCURVE",
"60 1613 CURVE SMOOTH",
"44 1613 OFFCURVE",
"30 1620 OFFCURVE",
"18 1633 CURVE SMOOTH",
"6 1646 OFFCURVE",
"-5 1671 OFFCURVE",
"-16 1708 CURVE",
"-79 1684 LINE",
"-72 1665 OFFCURVE",
"-67 1640 OFFCURVE",
"-67 1617 CURVE SMOOTH",
"-67 1581 OFFCURVE",
"-81 1546 OFFCURVE",
"-122 1546 CURVE SMOOTH",
"-163 1546 OFFCURVE",
"-184 1588 OFFCURVE",
"-184 1651 CURVE",
"-243 1633 LINE",
"-243 1624 LINE SMOOTH",
"-243 1532 OFFCURVE",
"-199 1476 OFFCURVE",
"-130 1476 CURVE SMOOTH"
);
},
{
closed = 1;
nodes = (
"191 1243 LINE",
"188 1314 LINE",
"-189 1172 LINE",
"-186 1101 LINE"
);
},
{
closed = 1;
nodes = (
"180 1398 LINE",
"177 1470 LINE",
"-200 1328 LINE",
"-197 1256 LINE"
);
}
);
width = 0;
}
);
note = g192;
},
{
glyphname = g193;
lastChange = "2016-11-30 01:17:22 +0000";
layers = (
{
layerId = "BBACE0B0-BA28-44BD-A35B-EF629929FF1A";
paths = (
{
closed = 1;
nodes = (
"-60 1113 OFFCURVE",
"-21 1153 OFFCURVE",
"-14 1217 CURVE",
"-10 1218 LINE",
"13 1187 OFFCURVE",
"46 1180 OFFCURVE",
"66 1180 CURVE SMOOTH",
"129 1180 OFFCURVE",
"175 1227 OFFCURVE",
"175 1304 CURVE SMOOTH",
"175 1347 OFFCURVE",
"159 1383 OFFCURVE",
"132 1410 CURVE",
"72 1387 LINE",
"88 1368 OFFCURVE",
"110 1341 OFFCURVE",
"110 1305 CURVE SMOOTH",
"110 1274 OFFCURVE",
"97 1250 OFFCURVE",
"62 1250 CURVE SMOOTH",
"46 1250 OFFCURVE",
"32 1257 OFFCURVE",
"20 1270 CURVE SMOOTH",
"8 1283 OFFCURVE",
"-3 1308 OFFCURVE",
"-14 1345 CURVE",
"-77 1321 LINE",
"-70 1302 OFFCURVE",
"-65 1277 OFFCURVE",
"-65 1254 CURVE SMOOTH",
"-65 1218 OFFCURVE",
"-79 1183 OFFCURVE",
"-120 1183 CURVE SMOOTH",
"-161 1183 OFFCURVE",
"-182 1225 OFFCURVE",
"-182 1288 CURVE",
"-241 1270 LINE",
"-241 1261 LINE SMOOTH",
"-241 1169 OFFCURVE",
"-197 1113 OFFCURVE",
"-128 1113 CURVE SMOOTH"
);
},
{
closed = 1;
nodes = (
"144 1525 LINE",
"141 1596 LINE",
"-236 1454 LINE",
"-233 1383 LINE"
);
},
{
closed = 1;
nodes = (
"133 1680 LINE",
"130 1752 LINE",
"-247 1610 LINE",
"-244 1538 LINE"
);
}
);
width = 0;
}
);
note = g193;
},
{
glyphname = g194;
lastChange = "2016-11-30 01:17:22 +0000";
layers = (
{
layerId = "BBACE0B0-BA28-44BD-A35B-EF629929FF1A";
paths = (
{
closed = 1;
nodes = (
"-60 1113 OFFCURVE",
"-21 1153 OFFCURVE",
"-14 1217 CURVE",
"-10 1218 LINE",
"13 1187 OFFCURVE",
"46 1180 OFFCURVE",
"66 1180 CURVE SMOOTH",
"129 1180 OFFCURVE",
"175 1227 OFFCURVE",
"175 1304 CURVE SMOOTH",
"175 1347 OFFCURVE",
"159 1383 OFFCURVE",
"132 1410 CURVE",
"72 1387 LINE",
"88 1368 OFFCURVE",
"110 1341 OFFCURVE",
"110 1305 CURVE SMOOTH",
"110 1274 OFFCURVE",
"97 1250 OFFCURVE",
"62 1250 CURVE SMOOTH",
"46 1250 OFFCURVE",
"32 1257 OFFCURVE",
"20 1270 CURVE SMOOTH",
"8 1283 OFFCURVE",
"-3 1308 OFFCURVE",
"-14 1345 CURVE",
"-77 1321 LINE",
"-70 1302 OFFCURVE",
"-65 1277 OFFCURVE",
"-65 1254 CURVE SMOOTH",
"-65 1218 OFFCURVE",
"-79 1183 OFFCURVE",
"-120 1183 CURVE SMOOTH",
"-161 1183 OFFCURVE",
"-182 1225 OFFCURVE",
"-182 1288 CURVE",
"-241 1270 LINE",
"-241 1261 LINE SMOOTH",
"-241 1169 OFFCURVE",
"-197 1113 OFFCURVE",
"-128 1113 CURVE SMOOTH"
);
},
{
closed = 1;
nodes = (
"144 1525 LINE",
"141 1596 LINE",
"-236 1454 LINE",
"-233 1383 LINE"
);
}
);
width = 0;
}
);
note = g194;
},
{
glyphname = g195;
lastChange = "2016-11-30 01:17:22 +0000";
layers = (
{
layerId = "BBACE0B0-BA28-44BD-A35B-EF629929FF1A";
paths = (
{
closed = 1;
nodes = (
"-80 1446 OFFCURVE",
"22 1488 OFFCURVE",
"68 1518 CURVE SMOOTH",
"114 1548 OFFCURVE",
"137 1589 OFFCURVE",
"137 1641 CURVE SMOOTH",
"137 1708 OFFCURVE",
"81 1754 OFFCURVE",
"17 1754 CURVE SMOOTH",
"-55 1754 OFFCURVE",
"-116 1697 OFFCURVE",
"-116 1625 CURVE SMOOTH",
"-116 1581 OFFCURVE",
"-95 1554 OFFCURVE",
"-67 1533 CURVE",
"-67 1529 LINE",
"-80 1524 OFFCURVE",
"-95 1518 OFFCURVE",
"-111 1512 CURVE SMOOTH",
"-205 1477 LINE SMOOTH",
"-220 1472 OFFCURVE",
"-232 1467 OFFCURVE",
"-242 1464 CURVE",
"-239 1391 LINE"
);
},
{
closed = 1;
nodes = (
"-60 1113 OFFCURVE",
"-21 1153 OFFCURVE",
"-14 1217 CURVE",
"-10 1218 LINE",
"13 1187 OFFCURVE",
"46 1180 OFFCURVE",
"66 1180 CURVE SMOOTH",
"129 1180 OFFCURVE",
"175 1227 OFFCURVE",
"175 1304 CURVE SMOOTH",
"175 1347 OFFCURVE",
"159 1383 OFFCURVE",
"132 1410 CURVE",
"72 1387 LINE",
"88 1368 OFFCURVE",
"110 1341 OFFCURVE",
"110 1305 CURVE SMOOTH",
"110 1274 OFFCURVE",
"97 1250 OFFCURVE",
"62 1250 CURVE SMOOTH",
"46 1250 OFFCURVE",
"32 1257 OFFCURVE",
"20 1270 CURVE SMOOTH",
"8 1283 OFFCURVE",
"-3 1308 OFFCURVE",
"-14 1345 CURVE",
"-77 1321 LINE",
"-70 1302 OFFCURVE",
"-65 1277 OFFCURVE",
"-65 1254 CURVE SMOOTH",
"-65 1218 OFFCURVE",
"-79 1183 OFFCURVE",
"-120 1183 CURVE SMOOTH",
"-161 1183 OFFCURVE",
"-182 1225 OFFCURVE",
"-182 1288 CURVE",
"-241 1270 LINE",
"-241 1261 LINE SMOOTH",
"-241 1169 OFFCURVE",
"-197 1113 OFFCURVE",
"-128 1113 CURVE SMOOTH"
);
},
{
closed = 1;
nodes = (
"-29 1572 OFFCURVE",
"-47 1596 OFFCURVE",
"-47 1625 CURVE SMOOTH",
"-47 1660 OFFCURVE",
"-20 1681 OFFCURVE",
"12 1681 CURVE SMOOTH",
"51 1681 OFFCURVE",
"69 1659 OFFCURVE",
"69 1632 CURVE SMOOTH",
"69 1601 OFFCURVE",
"48 1579 OFFCURVE",
"5 1559 CURVE",
"-2 1557 LINE"
);
}
);
width = 0;
}
);
note = g195;
},
{
glyphname = g196;
lastChange = "2016-11-30 01:17:22 +0000";
layers = (
{
layerId = "BBACE0B0-BA28-44BD-A35B-EF629929FF1A";
paths = (
{
closed = 1;
nodes = (
"-52 1321 OFFCURVE",
"-13 1361 OFFCURVE",
"-6 1425 CURVE",
"-2 1426 LINE",
"21 1395 OFFCURVE",
"54 1388 OFFCURVE",
"74 1388 CURVE SMOOTH",
"137 1388 OFFCURVE",
"183 1435 OFFCURVE",
"183 1512 CURVE SMOOTH",
"183 1555 OFFCURVE",
"167 1591 OFFCURVE",
"140 1618 CURVE",
"80 1595 LINE",
"96 1576 OFFCURVE",
"118 1549 OFFCURVE",
"118 1513 CURVE SMOOTH",
"118 1482 OFFCURVE",
"105 1458 OFFCURVE",
"70 1458 CURVE SMOOTH",
"54 1458 OFFCURVE",
"40 1465 OFFCURVE",
"28 1478 CURVE SMOOTH",
"16 1491 OFFCURVE",
"5 1516 OFFCURVE",
"-6 1553 CURVE",
"-69 1529 LINE",
"-62 1510 OFFCURVE",
"-57 1485 OFFCURVE",
"-57 1462 CURVE SMOOTH",
"-57 1426 OFFCURVE",
"-71 1391 OFFCURVE",
"-112 1391 CURVE SMOOTH",
"-153 1391 OFFCURVE",
"-174 1433 OFFCURVE",
"-174 1496 CURVE",
"-233 1478 LINE",
"-233 1469 LINE SMOOTH",
"-233 1377 OFFCURVE",
"-189 1321 OFFCURVE",
"-120 1321 CURVE SMOOTH"
);
},
{
closed = 1;
nodes = (
"191 1243 LINE",
"188 1314 LINE",
"-189 1172 LINE",
"-186 1101 LINE"
);
}
);
width = 0;
}
);
note = g196;
},
{
glyphname = g197;
lastChange = "2016-11-30 01:17:22 +0000";
layers = (
{
layerId = "BBACE0B0-BA28-44BD-A35B-EF629929FF1A";
paths = (
{
closed = 1;
nodes = (
"-60 1113 OFFCURVE",
"-23 1154 OFFCURVE",
"-15 1222 CURVE",
"2 1194 OFFCURVE",
"33 1180 OFFCURVE",
"66 1180 CURVE SMOOTH",
"129 1180 OFFCURVE",
"175 1227 OFFCURVE",
"175 1304 CURVE SMOOTH",
"175 1347 OFFCURVE",
"159 1383 OFFCURVE",
"132 1410 CURVE",
"72 1387 LINE",
"88 1368 OFFCURVE",
"110 1341 OFFCURVE",
"110 1305 CURVE SMOOTH",
"110 1274 OFFCURVE",
"97 1250 OFFCURVE",
"62 1250 CURVE SMOOTH",
"46 1250 OFFCURVE",
"32 1257 OFFCURVE",
"20 1270 CURVE SMOOTH",
"8 1283 OFFCURVE",
"-3 1308 OFFCURVE",
"-14 1345 CURVE",
"-77 1321 LINE",
"-70 1302 OFFCURVE",
"-65 1277 OFFCURVE",
"-65 1254 CURVE SMOOTH",
"-65 1218 OFFCURVE",
"-79 1183 OFFCURVE",
"-120 1183 CURVE SMOOTH",
"-161 1183 OFFCURVE",
"-182 1225 OFFCURVE",
"-182 1288 CURVE",
"-241 1270 LINE",
"-241 1261 LINE SMOOTH",
"-241 1176 OFFCURVE",
"-196 1113 OFFCURVE",
"-124 1113 CURVE SMOOTH"
);
},
{
closed = 1;
nodes = (
"-6 1444 LINE",
"-6 1755 LINE",
"-90 1755 LINE",
"-90 1444 LINE"
);
}
);
width = 0;
}
);
note = g197;
},
{
glyphname = g198;
lastChange = "2016-11-30 01:17:22 +0000";
layers = (
{
layerId = "BBACE0B0-BA28-44BD-A35B-EF629929FF1A";
paths = (
{
closed = 1;
nodes = (
"138 1144 LINE",
"138 1220 LINE",
"46 1210 LINE",
"43 1209 OFFCURVE",
"39 1209 OFFCURVE",
"34 1209 CURVE",
"19 1208 LINE",
"-28 1208 OFFCURVE",
"-56 1244 OFFCURVE",
"-56 1281 CURVE SMOOTH",
"-56 1328 OFFCURVE",
"-23 1355 OFFCURVE",
"28 1355 CURVE SMOOTH",
"49 1355 OFFCURVE",
"72 1353 OFFCURVE",
"97 1344 CURVE",
"120 1410 LINE",
"89 1426 OFFCURVE",
"48 1432 OFFCURVE",
"21 1432 CURVE SMOOTH",
"-64 1432 OFFCURVE",
"-135 1369 OFFCURVE",
"-135 1280 CURVE SMOOTH",
"-135 1253 OFFCURVE",
"-125 1215 OFFCURVE",
"-94 1195 CURVE",
"-94 1191 LINE",
"-159 1184 LINE",
"-159 1109 LINE"
);
},
{
closed = 1;
nodes = (
"173 1600 LINE",
"170 1671 LINE",
"-207 1529 LINE",
"-204 1458 LINE"
);
},
{
closed = 1;
nodes = (
"162 1755 LINE",
"159 1827 LINE",
"-218 1685 LINE",
"-215 1613 LINE"
);
}
);
width = 0;
}
);
note = g198;
},
{
glyphname = g199;
lastChange = "2016-11-30 01:17:22 +0000";
layers = (
{
layerId = "BBACE0B0-BA28-44BD-A35B-EF629929FF1A";
paths = (
{
closed = 1;
nodes = (
"138 1144 LINE",
"138 1220 LINE",
"46 1210 LINE",
"43 1209 OFFCURVE",
"39 1209 OFFCURVE",
"34 1209 CURVE",
"19 1208 LINE",
"-28 1208 OFFCURVE",
"-56 1244 OFFCURVE",
"-56 1281 CURVE SMOOTH",
"-56 1328 OFFCURVE",
"-23 1355 OFFCURVE",
"28 1355 CURVE SMOOTH",
"49 1355 OFFCURVE",
"72 1353 OFFCURVE",
"97 1344 CURVE",
"120 1410 LINE",
"89 1426 OFFCURVE",
"48 1432 OFFCURVE",
"21 1432 CURVE SMOOTH",
"-64 1432 OFFCURVE",
"-135 1369 OFFCURVE",
"-135 1280 CURVE SMOOTH",
"-135 1253 OFFCURVE",
"-125 1215 OFFCURVE",
"-94 1195 CURVE",
"-94 1191 LINE",
"-159 1184 LINE",
"-159 1109 LINE"
);
},
{
closed = 1;
nodes = (
"173 1610 LINE",
"170 1681 LINE",
"-207 1539 LINE",
"-204 1468 LINE"
);
}
);
width = 0;
}
);
note = g199;
},
{
glyphname = g200;
lastChange = "2016-11-30 01:17:22 +0000";
layers = (
{
layerId = "BBACE0B0-BA28-44BD-A35B-EF629929FF1A";
paths = (
{
closed = 1;
nodes = (
"-100 1499 LINE SMOOTH",
"5 1538 OFFCURVE",
"77 1572 OFFCURVE",
"115 1600 CURVE SMOOTH",
"152 1627 OFFCURVE",
"171 1665 OFFCURVE",
"171 1712 CURVE SMOOTH",
"171 1779 OFFCURVE",
"119 1825 OFFCURVE",
"55 1825 CURVE SMOOTH",
"-16 1825 OFFCURVE",
"-73 1769 OFFCURVE",
"-73 1698 CURVE SMOOTH",
"-73 1657 OFFCURVE",
"-55 1624 OFFCURVE",
"-28 1603 CURVE",
"-28 1599 LINE",
"-88 1574 LINE",
"-121 1559 LINE",
"-150 1545 LINE",
"-151 1549 LINE",
"-140 1566 OFFCURVE",
"-138 1585 OFFCURVE",
"-138 1601 CURVE SMOOTH",
"-138 1669 OFFCURVE",
"-188 1706 OFFCURVE",
"-256 1706 CURVE",
"-253 1638 LINE",
"-217 1635 OFFCURVE",
"-201 1609 OFFCURVE",
"-201 1582 CURVE SMOOTH",
"-201 1561 OFFCURVE",
"-206 1543 OFFCURVE",
"-219 1524 CURVE",
"-213 1457 LINE"
);
},
{
closed = 1;
nodes = (
"138 1144 LINE",
"138 1220 LINE",
"46 1210 LINE",
"43 1209 OFFCURVE",
"39 1209 OFFCURVE",
"34 1209 CURVE",
"19 1208 LINE",
"-28 1208 OFFCURVE",
"-56 1244 OFFCURVE",
"-56 1281 CURVE SMOOTH",
"-56 1328 OFFCURVE",
"-23 1355 OFFCURVE",
"28 1355 CURVE SMOOTH",
"49 1355 OFFCURVE",
"72 1353 OFFCURVE",
"97 1344 CURVE",
"120 1410 LINE",
"89 1426 OFFCURVE",
"48 1432 OFFCURVE",
"21 1432 CURVE SMOOTH",
"-64 1432 OFFCURVE",
"-135 1369 OFFCURVE",
"-135 1280 CURVE SMOOTH",
"-135 1253 OFFCURVE",
"-125 1215 OFFCURVE",
"-94 1195 CURVE",
"-94 1191 LINE",
"-159 1184 LINE",
"-159 1109 LINE"
);
},
{
closed = 1;
nodes = (
"9 1644 OFFCURVE",
"-7 1669 OFFCURVE",
"-7 1698 CURVE SMOOTH",
"-7 1733 OFFCURVE",
"19 1754 OFFCURVE",
"50 1754 CURVE SMOOTH",
"81 1754 OFFCURVE",
"102 1734 OFFCURVE",
"102 1703 CURVE SMOOTH",
"102 1668 OFFCURVE",
"75 1645 OFFCURVE",
"43 1632 CURVE SMOOTH",
"36 1629 LINE"
);
}
);
width = 0;
}
);
note = g200;
},
{
glyphname = g201;
lastChange = "2016-11-30 01:17:22 +0000";
layers = (
{
layerId = "BBACE0B0-BA28-44BD-A35B-EF629929FF1A";
paths = (
{
closed = 1;
nodes = (
"-51 1513 OFFCURVE",
"51 1555 OFFCURVE",
"97 1585 CURVE SMOOTH",
"143 1615 OFFCURVE",
"166 1656 OFFCURVE",
"166 1708 CURVE SMOOTH",
"166 1775 OFFCURVE",
"110 1821 OFFCURVE",
"46 1821 CURVE SMOOTH",
"-26 1821 OFFCURVE",
"-87 1764 OFFCURVE",
"-87 1692 CURVE SMOOTH",
"-87 1648 OFFCURVE",
"-66 1621 OFFCURVE",
"-38 1600 CURVE",
"-38 1596 LINE",
"-51 1591 OFFCURVE",
"-66 1585 OFFCURVE",
"-82 1579 CURVE SMOOTH",
"-176 1544 LINE SMOOTH",
"-191 1539 OFFCURVE",
"-203 1534 OFFCURVE",
"-213 1531 CURVE",
"-210 1458 LINE"
);
},
{
closed = 1;
nodes = (
"138 1144 LINE",
"138 1220 LINE",
"46 1210 LINE",
"43 1209 OFFCURVE",
"39 1209 OFFCURVE",
"34 1209 CURVE",
"19 1208 LINE",
"-28 1208 OFFCURVE",
"-56 1244 OFFCURVE",
"-56 1281 CURVE SMOOTH",
"-56 1328 OFFCURVE",
"-23 1355 OFFCURVE",
"28 1355 CURVE SMOOTH",
"49 1355 OFFCURVE",
"72 1353 OFFCURVE",
"97 1344 CURVE",
"120 1410 LINE",
"89 1426 OFFCURVE",
"48 1432 OFFCURVE",
"21 1432 CURVE SMOOTH",
"-64 1432 OFFCURVE",
"-135 1369 OFFCURVE",
"-135 1280 CURVE SMOOTH",
"-135 1253 OFFCURVE",
"-125 1215 OFFCURVE",
"-94 1195 CURVE",
"-94 1191 LINE",
"-159 1184 LINE",
"-159 1109 LINE"
);
},
{
closed = 1;
nodes = (
"0 1639 OFFCURVE",
"-18 1663 OFFCURVE",
"-18 1692 CURVE SMOOTH",
"-18 1727 OFFCURVE",
"9 1748 OFFCURVE",
"41 1748 CURVE SMOOTH",
"80 1748 OFFCURVE",
"98 1726 OFFCURVE",
"98 1699 CURVE SMOOTH",
"98 1668 OFFCURVE",
"77 1646 OFFCURVE",
"34 1626 CURVE",
"27 1624 LINE"
);
}
);
width = 0;
}
);
note = g201;
},
{
glyphname = g202;
lastChange = "2016-11-30 01:17:22 +0000";
layers = (
{
layerId = "BBACE0B0-BA28-44BD-A35B-EF629929FF1A";
paths = (
{
closed = 1;
nodes = (
"138 1144 LINE",
"138 1220 LINE",
"46 1210 LINE",
"43 1209 OFFCURVE",
"39 1209 OFFCURVE",
"34 1209 CURVE",
"19 1208 LINE",
"-28 1208 OFFCURVE",
"-56 1244 OFFCURVE",
"-56 1281 CURVE SMOOTH",
"-56 1328 OFFCURVE",
"-23 1355 OFFCURVE",
"28 1355 CURVE SMOOTH",
"49 1355 OFFCURVE",
"72 1353 OFFCURVE",
"97 1344 CURVE",
"120 1410 LINE",
"89 1426 OFFCURVE",
"48 1432 OFFCURVE",
"21 1432 CURVE SMOOTH",
"-64 1432 OFFCURVE",
"-135 1369 OFFCURVE",
"-135 1280 CURVE SMOOTH",
"-135 1253 OFFCURVE",
"-125 1215 OFFCURVE",
"-94 1195 CURVE",
"-94 1191 LINE",
"-159 1184 LINE",
"-159 1109 LINE"
);
},
{
closed = 1;
nodes = (
"69 1523 OFFCURVE",
"129 1581 OFFCURVE",
"129 1652 CURVE SMOOTH",
"129 1735 OFFCURVE",
"68 1795 OFFCURVE",
"-11 1795 CURVE SMOOTH",
"-80 1795 OFFCURVE",
"-145 1731 OFFCURVE",
"-145 1656 CURVE SMOOTH",
"-145 1577 OFFCURVE",
"-88 1523 OFFCURVE",
"-8 1523 CURVE SMOOTH"
);
},
{
closed = 1;
nodes = (
"-53 1588 OFFCURVE",
"-81 1619 OFFCURVE",
"-81 1658 CURVE SMOOTH",
"-81 1697 OFFCURVE",
"-51 1729 OFFCURVE",
"-8 1729 CURVE SMOOTH",
"35 1729 OFFCURVE",
"65 1702 OFFCURVE",
"65 1659 CURVE SMOOTH",
"65 1620 OFFCURVE",
"39 1588 OFFCURVE",
"-10 1588 CURVE SMOOTH"
);
}
);
width = 0;
}
);
note = g202;
},
{
glyphname = g203;
lastChange = "2016-11-30 01:17:22 +0000";
layers = (
{
layerId = "BBACE0B0-BA28-44BD-A35B-EF629929FF1A";
paths = (
{
closed = 1;
nodes = (
"138 -288 LINE",
"138 -212 LINE",
"46 -222 LINE",
"43 -223 OFFCURVE",
"39 -223 OFFCURVE",
"34 -223 CURVE",
"19 -224 LINE",
"-28 -224 OFFCURVE",
"-56 -188 OFFCURVE",
"-56 -151 CURVE SMOOTH",
"-56 -104 OFFCURVE",
"-23 -77 OFFCURVE",
"28 -77 CURVE SMOOTH",
"49 -77 OFFCURVE",
"72 -79 OFFCURVE",
"97 -88 CURVE",
"120 -22 LINE",
"89 -6 OFFCURVE",
"48 0 OFFCURVE",
"21 0 CURVE SMOOTH",
"-64 0 OFFCURVE",
"-135 -63 OFFCURVE",
"-135 -152 CURVE SMOOTH",
"-135 -179 OFFCURVE",
"-125 -217 OFFCURVE",
"-94 -237 CURVE",
"-94 -241 LINE",
"-159 -248 LINE",
"-159 -323 LINE"
);
},
{
closed = 1;
nodes = (
"180 -441 LINE",
"177 -369 LINE",
"-200 -511 LINE",
"-197 -583 LINE"
);
}
);
width = 0;
}
);
note = g203;
},
{
glyphname = g204;
lastChange = "2016-11-30 01:17:22 +0000";
layers = (
{
layerId = "BBACE0B0-BA28-44BD-A35B-EF629929FF1A";
paths = (
{
closed = 1;
nodes = (
"138 -288 LINE",
"138 -212 LINE",
"46 -222 LINE",
"43 -223 OFFCURVE",
"39 -223 OFFCURVE",
"34 -223 CURVE",
"19 -224 LINE",
"-28 -224 OFFCURVE",
"-56 -188 OFFCURVE",
"-56 -151 CURVE SMOOTH",
"-56 -104 OFFCURVE",
"-23 -77 OFFCURVE",
"28 -77 CURVE SMOOTH",
"49 -77 OFFCURVE",
"72 -79 OFFCURVE",
"97 -88 CURVE",
"120 -22 LINE",
"89 -6 OFFCURVE",
"48 0 OFFCURVE",
"21 0 CURVE SMOOTH",
"-64 0 OFFCURVE",
"-135 -63 OFFCURVE",
"-135 -152 CURVE SMOOTH",
"-135 -179 OFFCURVE",
"-125 -217 OFFCURVE",
"-94 -237 CURVE",
"-94 -241 LINE",
"-159 -248 LINE",
"-159 -323 LINE"
);
},
{
closed = 1;
nodes = (
"191 -586 LINE",
"188 -515 LINE",
"-189 -657 LINE",
"-186 -728 LINE"
);
},
{
closed = 1;
nodes = (
"180 -431 LINE",
"177 -359 LINE",
"-200 -501 LINE",
"-197 -573 LINE"
);
}
);
width = 0;
}
);
note = g204;
},
{
glyphname = afii57392;
lastChange = "2016-11-30 01:15:49 +0000";
layers = (
{
layerId = "BBACE0B0-BA28-44BD-A35B-EF629929FF1A";
paths = (
{
closed = 1;
nodes = (
"316 368 LINE",
"316 612 LINE",
"72 612 LINE",
"72 368 LINE"
);
}
);
width = 389;
}
);
note = afii57392;
unicode = 0660;
},
{
glyphname = afii57393;
lastChange = "2016-11-30 01:17:22 +0000";
layers = (
{
layerId = "BBACE0B0-BA28-44BD-A35B-EF629929FF1A";
paths = (
{
closed = 1;
nodes = (
"384 0 LINE",
"334 1200 LINE",
"191 1200 LINE",
"241 0 LINE"
);
}
);
width = 574;
}
);
note = afii57393;
unicode = 0661;
},
{
glyphname = afii57394;
lastChange = "2016-11-30 01:17:22 +0000";
layers = (
{
layerId = "BBACE0B0-BA28-44BD-A35B-EF629929FF1A";
paths = (
{
closed = 1;
nodes = (
"390 0 LINE",
"272 752 LINE",
"240 938 LINE",
"247 938 LINE",
"298 905 OFFCURVE",
"359 896 OFFCURVE",
"418 896 CURVE SMOOTH",
"625 896 OFFCURVE",
"760 1003 OFFCURVE",
"803 1200 CURVE",
"665 1200 LINE",
"625 1088 OFFCURVE",
"553 1039 OFFCURVE",
"400 1039 CURVE SMOOTH",
"324 1039 OFFCURVE",
"250 1064 OFFCURVE",
"213 1108 CURVE",
"198 1200 LINE",
"50 1200 LINE",
"77 1052 OFFCURVE",
"112 834 OFFCURVE",
"143 641 CURVE SMOOTH",
"244 0 LINE"
);
}
);
width = 833;
}
);
note = afii57394;
unicode = 0662;
},
{
glyphname = afii57395;
lastChange = "2016-11-30 01:17:22 +0000";
layers = (
{
layerId = "BBACE0B0-BA28-44BD-A35B-EF629929FF1A";
paths = (
{
closed = 1;
nodes = (
"390 0 LINE",
"266 788 LINE",
"246 901 LINE",
"254 902 LINE",
"282 878 OFFCURVE",
"315 872 OFFCURVE",
"346 872 CURVE SMOOTH",
"402 872 OFFCURVE",
"457 885 OFFCURVE",
"497 932 CURVE",
"537 896 OFFCURVE",
"587 873 OFFCURVE",
"666 873 CURVE SMOOTH",
"817 873 OFFCURVE",
"919 995 OFFCURVE",
"919 1200 CURVE",
"787 1200 LINE",
"783 1073 OFFCURVE",
"745 1008 OFFCURVE",
"656 1008 CURVE SMOOTH",
"617 1008 OFFCURVE",
"580 1020 OFFCURVE",
"560 1047 CURVE",
"571 1080 OFFCURVE",
"581 1135 OFFCURVE",
"581 1200 CURVE",
"449 1200 LINE",
"442 1069 OFFCURVE",
"409 1006 OFFCURVE",
"329 1006 CURVE SMOOTH",
"288 1006 OFFCURVE",
"244 1026 OFFCURVE",
"221 1061 CURVE",
"198 1200 LINE",
"50 1200 LINE",
"77 1052 OFFCURVE",
"112 834 OFFCURVE",
"143 641 CURVE SMOOTH",
"244 0 LINE"
);
}
);
width = 949;
}
);
note = afii57395;
unicode = 0663;
},
{
glyphname = afii57396;
lastChange = "2016-11-30 01:17:22 +0000";
layers = (
{
layerId = "BBACE0B0-BA28-44BD-A35B-EF629929FF1A";
paths = (
{
closed = 1;
nodes = (
"588 -5 OFFCURVE",
"670 11 OFFCURVE",
"758 34 CURVE",
"758 176 LINE",
"667 155 OFFCURVE",
"573 141 OFFCURVE",
"489 141 CURVE SMOOTH",
"408 141 OFFCURVE",
"346 148 OFFCURVE",
"302 162 CURVE SMOOTH",
"258 176 OFFCURVE",
"236 196 OFFCURVE",
"236 223 CURVE SMOOTH",
"236 246 OFFCURVE",
"246 271 OFFCURVE",
"265 297 CURVE SMOOTH",
"284 322 OFFCURVE",
"317 355 OFFCURVE",
"363 396 CURVE SMOOTH",
"506 521 LINE SMOOTH",
"543 554 OFFCURVE",
"566 580 OFFCURVE",
"573 597 CURVE SMOOTH",
"580 614 OFFCURVE",
"583 628 OFFCURVE",
"583 641 CURVE SMOOTH",
"583 696 OFFCURVE",
"560 725 OFFCURVE",
"463 750 CURVE SMOOTH",
"407 764 LINE SMOOTH",
"339 781 OFFCURVE",
"287 798 OFFCURVE",
"252 816 CURVE SMOOTH",
"217 833 OFFCURVE",
"199 854 OFFCURVE",
"199 878 CURVE SMOOTH",
"199 917 OFFCURVE",
"231 955 OFFCURVE",
"295 990 CURVE SMOOTH",
"358 1025 OFFCURVE",
"451 1060 OFFCURVE",
"574 1093 CURVE",
"574 1228 LINE",
"230 1156 OFFCURVE",
"60 1031 OFFCURVE",
"60 864 CURVE SMOOTH",
"60 764 OFFCURVE",
"127 694 OFFCURVE",
"282 651 CURVE SMOOTH",
"419 615 LINE",
"369 576 LINE SMOOTH",
"161 413 OFFCURVE",
"96 317 OFFCURVE",
"96 201 CURVE SMOOTH",
"96 66 OFFCURVE",
"208 -5 OFFCURVE",
"480 -5 CURVE SMOOTH"
);
}
);
width = 798;
}
);
note = afii57396;
unicode = 0664;
},
{
glyphname = afii57397;
lastChange = "2016-11-30 01:17:22 +0000";
layers = (
{
layerId = "BBACE0B0-BA28-44BD-A35B-EF629929FF1A";
paths = (
{
closed = 1;
nodes = (
"713 80 OFFCURVE",
"860 249 OFFCURVE",
"860 557 CURVE SMOOTH",
"860 866 OFFCURVE",
"715 1084 OFFCURVE",
"474 1084 CURVE SMOOTH",
"237 1084 OFFCURVE",
"70 843 OFFCURVE",
"70 535 CURVE SMOOTH",
"70 243 OFFCURVE",
"221 80 OFFCURVE",
"461 80 CURVE SMOOTH"
);
},
{
closed = 1;
nodes = (
"305 230 OFFCURVE",
"220 342 OFFCURVE",
"220 534 CURVE SMOOTH",
"220 781 OFFCURVE",
"319 932 OFFCURVE",
"474 932 CURVE SMOOTH",
"618 932 OFFCURVE",
"710 780 OFFCURVE",
"710 552 CURVE SMOOTH",
"710 335 OFFCURVE",
"629 230 OFFCURVE",
"461 230 CURVE SMOOTH"
);
}
);
width = 930;
}
);
note = afii57397;
unicode = 0665;
},
{
glyphname = afii57398;
lastChange = "2016-11-30 01:17:22 +0000";
layers = (
{
layerId = "BBACE0B0-BA28-44BD-A35B-EF629929FF1A";
paths = (
{
closed = 1;
nodes = (
"737 0 LINE",
"724 162 LINE SMOOTH",
"719 222 OFFCURVE",
"714 285 OFFCURVE",
"709 352 CURVE SMOOTH",
"695 557 LINE SMOOTH",
"682 732 OFFCURVE",
"670 985 OFFCURVE",
"670 1104 CURVE SMOOTH",
"670 1200 LINE",
"397 1200 LINE",
"325 1201 LINE SMOOTH",
"232 1201 OFFCURVE",
"109 1206 OFFCURVE",
"37 1213 CURVE",
"20 1075 LINE",
"144 1060 OFFCURVE",
"276 1056 OFFCURVE",
"397 1056 CURVE SMOOTH",
"528 1056 LINE",
"531 801 OFFCURVE",
"563 305 OFFCURVE",
"590 0 CURVE"
);
}
);
width = 837;
}
);
note = afii57398;
unicode = 0666;
},
{
glyphname = afii57399;
lastChange = "2016-11-30 01:17:22 +0000";
layers = (
{
layerId = "BBACE0B0-BA28-44BD-A35B-EF629929FF1A";
paths = (
{
closed = 1;
nodes = (
"511 0 LINE",
"572 169 LINE SMOOTH",
"595 233 OFFCURVE",
"621 301 OFFCURVE",
"648 374 CURVE SMOOTH",
"731 598 LINE SMOOTH",
"759 675 OFFCURVE",
"787 749 OFFCURVE",
"814 822 CURVE SMOOTH",
"956 1200 LINE",
"797 1200 LINE",
"742 1055 OFFCURVE",
"690 908 OFFCURVE",
"631 736 CURVE SMOOTH",
"550 500 LINE SMOOTH",
"523 421 OFFCURVE",
"494 340 OFFCURVE",
"465 257 CURVE",
"460 257 LINE",
"418 399 LINE",
"317 729 LINE",
"214 1058 LINE SMOOTH",
"198 1109 OFFCURVE",
"183 1157 OFFCURVE",
"169 1200 CURVE",
"0 1200 LINE",
"79 972 OFFCURVE",
"140 784 OFFCURVE",
"211 568 CURVE SMOOTH",
"279 355 LINE",
"389 0 LINE"
);
}
);
width = 956;
}
);
note = afii57399;
unicode = 0667;
},
{
glyphname = afii57400;
lastChange = "2016-11-30 01:17:22 +0000";
layers = (
{
layerId = "BBACE0B0-BA28-44BD-A35B-EF629929FF1A";
paths = (
{
closed = 1;
nodes = (
"169 0 LINE",
"221 145 OFFCURVE",
"271 292 OFFCURVE",
"327 465 CURVE SMOOTH",
"404 700 LINE SMOOTH",
"430 779 OFFCURVE",
"457 860 OFFCURVE",
"485 943 CURVE",
"490 943 LINE",
"503 900 OFFCURVE",
"518 852 OFFCURVE",
"535 801 CURVE SMOOTH",
"586 641 LINE",
"641 471 LINE",
"797 0 LINE",
"966 0 LINE",
"943 61 OFFCURVE",
"920 127 OFFCURVE",
"895 198 CURVE SMOOTH",
"820 413 LINE SMOOTH",
"771 554 OFFCURVE",
"720 705 OFFCURVE",
"673 846 CURVE SMOOTH",
"609 1039 LINE SMOOTH",
"589 1099 OFFCURVE",
"571 1153 OFFCURVE",
"556 1200 CURVE",
"434 1200 LINE",
"418 1152 OFFCURVE",
"399 1096 OFFCURVE",
"376 1032 CURVE SMOOTH",
"304 826 LINE SMOOTH",
"279 753 OFFCURVE",
"252 679 OFFCURVE",
"225 602 CURVE SMOOTH",
"71 172 LINE",
"10 0 LINE"
);
}
);
width = 966;
}
);
note = afii57400;
unicode = 0668;
},
{
glyphname = afii57401;
lastChange = "2016-11-30 01:17:22 +0000";
layers = (
{
layerId = "BBACE0B0-BA28-44BD-A35B-EF629929FF1A";
paths = (
{
closed = 1;
nodes = (
"772 0 LINE",
"700 822 LINE SMOOTH",
"677 1101 OFFCURVE",
"565 1227 OFFCURVE",
"366 1227 CURVE SMOOTH",
"186 1227 OFFCURVE",
"30 1034 OFFCURVE",
"30 835 CURVE SMOOTH",
"30 648 OFFCURVE",
"152 533 OFFCURVE",
"363 533 CURVE SMOOTH",
"431 533 OFFCURVE",
"512 552 OFFCURVE",
"575 585 CURVE",
"624 0 LINE"
);
},
{
closed = 1;
nodes = (
"236 680 OFFCURVE",
"172 744 OFFCURVE",
"172 849 CURVE SMOOTH",
"172 984 OFFCURVE",
"266 1084 OFFCURVE",
"367 1084 CURVE SMOOTH",
"500 1084 OFFCURVE",
"545 997 OFFCURVE",
"557 816 CURVE SMOOTH",
"563 720 LINE",
"498 692 OFFCURVE",
"445 680 OFFCURVE",
"377 680 CURVE SMOOTH"
);
}
);
width = 860;
}
);
note = afii57401;
unicode = 0669;
},
{
glyphname = afii57381;
lastChange = "2016-11-30 01:17:22 +0000";
layers = (
{
layerId = "BBACE0B0-BA28-44BD-A35B-EF629929FF1A";
paths = (
{
closed = 1;
nodes = (
"281 0 LINE",
"899 1200 LINE",
"750 1200 LINE",
"130 0 LINE"
);
},
{
closed = 1;
nodes = (
"858 0 LINE",
"858 197 LINE",
"656 197 LINE",
"656 0 LINE"
);
},
{
closed = 1;
nodes = (
"362 983 LINE",
"362 1180 LINE",
"160 1180 LINE",
"160 983 LINE"
);
}
);
width = 979;
}
);
note = afii57381;
unicode = 066A;
},
{
glyphname = uni066B;
lastChange = "2016-11-30 01:17:22 +0000";
layers = (
{
layerId = "BBACE0B0-BA28-44BD-A35B-EF629929FF1A";
paths = (
{
closed = 1;
nodes = (
"237 -264 LINE",
"280 -145 OFFCURVE",
"349 74 OFFCURVE",
"389 215 CURVE",
"374 238 LINE",
"227 238 LINE",
"172 -9 LINE",
"141 -145 LINE SMOOTH",
"130 -190 OFFCURVE",
"121 -229 OFFCURVE",
"112 -264 CURVE"
);
}
);
width = 536;
}
);
note = uni066B;
unicode = 066B;
},
{
glyphname = uni066C;
lastChange = "2016-11-30 01:17:22 +0000";
layers = (
{
layerId = "BBACE0B0-BA28-44BD-A35B-EF629929FF1A";
paths = (
{
closed = 1;
nodes = (
"234 698 LINE",
"277 817 OFFCURVE",
"346 1036 OFFCURVE",
"386 1177 CURVE",
"371 1200 LINE",
"224 1200 LINE",
"169 953 LINE",
"138 817 LINE SMOOTH",
"127 772 OFFCURVE",
"118 733 OFFCURVE",
"109 698 CURVE"
);
}
);
width = 536;
}
);
note = uni066C;
unicode = 066C;
},
{
glyphname = period;
lastChange = "2016-11-30 01:15:49 +0000";
layers = (
{
layerId = "BBACE0B0-BA28-44BD-A35B-EF629929FF1A";
paths = (
{
closed = 1;
nodes = (
"382 -14 LINE",
"382 223 LINE",
"164 223 LINE",
"164 -14 LINE"
);
}
);
width = 545;
}
);
note = period;
unicode = 002E;
},
{
glyphname = afii57388;
lastChange = "2016-11-30 01:17:22 +0000";
layers = (
{
layerId = "BBACE0B0-BA28-44BD-A35B-EF629929FF1A";
paths = (
{
closed = 1;
nodes = (
"292 0 LINE",
"307 69 OFFCURVE",
"327 163 OFFCURVE",
"347 247 CURVE SMOOTH",
"379 383 LINE SMOOTH",
"389 428 OFFCURVE",
"398 467 OFFCURVE",
"407 502 CURVE",
"282 502 LINE",
"239 383 OFFCURVE",
"170 164 OFFCURVE",
"130 23 CURVE",
"145 0 LINE"
);
}
);
width = 567;
}
);
note = afii57388;
unicode = 060C;
},
{
glyphname = afii57403;
lastChange = "2016-11-30 01:17:22 +0000";
layers = (
{
layerId = "BBACE0B0-BA28-44BD-A35B-EF629929FF1A";
paths = (
{
closed = 1;
nodes = (
"384 637 LINE",
"412 816 OFFCURVE",
"446 978 OFFCURVE",
"489 1139 CURVE",
"364 1139 LINE",
"289 972 OFFCURVE",
"243 817 OFFCURVE",
"202 660 CURVE",
"217 637 LINE"
);
},
{
closed = 1;
nodes = (
"401 -14 LINE",
"401 223 LINE",
"183 223 LINE",
"183 -14 LINE"
);
}
);
width = 581;
}
);
note = afii57403;
unicode = 061B;
},
{
glyphname = colon;
lastChange = "2016-11-30 01:15:49 +0000";
layers = (
{
layerId = "BBACE0B0-BA28-44BD-A35B-EF629929FF1A";
paths = (
{
closed = 1;
nodes = (
"401 629 LINE",
"401 866 LINE",
"183 866 LINE",
"183 629 LINE"
);
},
{
closed = 1;
nodes = (
"401 -14 LINE",
"401 223 LINE",
"183 223 LINE",
"183 -14 LINE"
);
}
);
width = 581;
}
);
note = colon;
unicode = 003A;
},
{
glyphname = ellipsis;
lastChange = "2016-11-30 01:15:49 +0000";
layers = (
{
layerId = "BBACE0B0-BA28-44BD-A35B-EF629929FF1A";
paths = (
{
closed = 1;
nodes = (
"1323 -14 LINE",
"1323 223 LINE",
"1105 223 LINE",
"1105 -14 LINE"
);
},
{
closed = 1;
nodes = (
"382 -14 LINE",
"382 223 LINE",
"164 223 LINE",
"164 -14 LINE"
);
},
{
closed = 1;
nodes = (
"852 -14 LINE",
"852 223 LINE",
"634 223 LINE",
"634 -14 LINE"
);
}
);
width = 1486;
}
);
note = ellipsis;
unicode = 2026;
},
{
glyphname = afii57407;
lastChange = "2016-11-30 01:17:22 +0000";
layers = (
{
layerId = "BBACE0B0-BA28-44BD-A35B-EF629929FF1A";
paths = (
{
closed = 1;
nodes = (
"537 403 LINE",
"537 457 LINE SMOOTH",
"537 568 OFFCURVE",
"488 651 OFFCURVE",
"376 735 CURVE SMOOTH",
"264 818 OFFCURVE",
"222 875 OFFCURVE",
"222 951 CURVE SMOOTH",
"222 1050 OFFCURVE",
"304 1119 OFFCURVE",
"435 1119 CURVE SMOOTH",
"526 1119 OFFCURVE",
"608 1096 OFFCURVE",
"688 1057 CURVE",
"748 1181 LINE",
"639 1237 OFFCURVE",
"537 1264 OFFCURVE",
"428 1264 CURVE SMOOTH",
"216 1264 OFFCURVE",
"66 1131 OFFCURVE",
"66 944 CURVE SMOOTH",
"66 811 OFFCURVE",
"136 732 OFFCURVE",
"289 624 CURVE SMOOTH",
"365 569 OFFCURVE",
"403 507 OFFCURVE",
"403 436 CURVE SMOOTH",
"403 403 LINE"
);
},
{
closed = 1;
nodes = (
"563 -4 LINE",
"563 213 LINE",
"366 213 LINE",
"366 -4 LINE"
);
}
);
width = 776;
}
);
note = afii57407;
unicode = 061F;
},
{
glyphname = exclam;
lastChange = "2016-11-30 01:17:22 +0000";
layers = (
{
layerId = "BBACE0B0-BA28-44BD-A35B-EF629929FF1A";
paths = (
{
closed = 1;
nodes = (
"345 403 LINE",
"390 1244 LINE",
"195 1244 LINE",
"240 403 LINE"
);
},
{
closed = 1;
nodes = (
"390 -4 LINE",
"390 213 LINE",
"193 213 LINE",
"193 -4 LINE"
);
}
);
width = 582;
}
);
note = exclam;
unicode = 0021;
},
{
glyphname = parenleft;
lastChange = "2016-11-30 01:17:22 +0000";
layers = (
{
layerId = "BBACE0B0-BA28-44BD-A35B-EF629929FF1A";
paths = (
{
closed = 1;
nodes = (
"543 -374 LINE",
"356 -122 OFFCURVE",
"256 197 OFFCURVE",
"256 513 CURVE SMOOTH",
"256 840 OFFCURVE",
"352 1153 OFFCURVE",
"545 1412 CURVE",
"383 1412 LINE",
"187 1179 OFFCURVE",
"82 866 OFFCURVE",
"82 511 CURVE SMOOTH",
"82 160 OFFCURVE",
"186 -146 OFFCURVE",
"383 -374 CURVE"
);
}
);
width = 606;
}
);
note = parenleft;
unicode = 0028;
},
{
glyphname = parenright;
lastChange = "2016-11-30 01:17:22 +0000";
layers = (
{
layerId = "BBACE0B0-BA28-44BD-A35B-EF629929FF1A";
paths = (
{
closed = 1;
nodes = (
"223 -374 LINE",
"419 -149 OFFCURVE",
"524 158 OFFCURVE",
"524 511 CURVE SMOOTH",
"524 856 OFFCURVE",
"422 1175 OFFCURVE",
"223 1412 CURVE",
"61 1412 LINE",
"254 1153 OFFCURVE",
"350 840 OFFCURVE",
"350 513 CURVE SMOOTH",
"350 194 OFFCURVE",
"248 -123 OFFCURVE",
"63 -374 CURVE"
);
}
);
width = 606;
}
);
note = parenright;
unicode = 0029;
},
{
glyphname = bracketleft;
lastChange = "2016-11-30 01:17:22 +0000";
layers = (
{
layerId = "BBACE0B0-BA28-44BD-A35B-EF629929FF1A";
paths = (
{
closed = 1;
nodes = (
"617 -324 LINE",
"617 -187 LINE",
"318 -187 LINE",
"318 1284 LINE",
"617 1284 LINE",
"617 1420 LINE",
"160 1420 LINE",
"160 -324 LINE"
);
}
);
width = 667;
}
);
note = bracketleft;
unicode = 005B;
},
{
glyphname = bracketright;
lastChange = "2016-11-30 01:15:49 +0000";
layers = (
{
layerId = "BBACE0B0-BA28-44BD-A35B-EF629929FF1A";
paths = (
{
closed = 1;
nodes = (
"507 -324 LINE",
"507 1420 LINE",
"50 1420 LINE",
"50 1284 LINE",
"349 1284 LINE",
"349 -187 LINE",
"50 -187 LINE",
"50 -324 LINE"
);
}
);
width = 667;
}
);
note = bracketright;
unicode = 005D;
},
{
glyphname = g229;
lastChange = "2016-11-30 01:17:22 +0000";
layers = (
{
layerId = "BBACE0B0-BA28-44BD-A35B-EF629929FF1A";
paths = (
{
closed = 1;
nodes = (
"264 852 LINE",
"264 1803 LINE",
"1154 1803 LINE",
"1154 1907 LINE",
"160 1907 LINE",
"160 852 LINE"
);
}
);
width = 1104;
}
);
note = g229;
},
{
glyphname = g230;
lastChange = "2016-11-30 01:17:22 +0000";
layers = (
{
layerId = "BBACE0B0-BA28-44BD-A35B-EF629929FF1A";
paths = (
{
closed = 1;
nodes = (
"944 852 LINE",
"944 1907 LINE",
"-50 1907 LINE",
"-50 1803 LINE",
"840 1803 LINE",
"840 852 LINE"
);
}
);
width = 1104;
}
);
note = g230;
},
{
glyphname = g231;
lastChange = "2016-11-30 01:17:22 +0000";
layers = (
{
layerId = "BBACE0B0-BA28-44BD-A35B-EF629929FF1A";
paths = (
{
closed = 1;
nodes = (
"264 852 LINE",
"264 1803 LINE",
"1154 1803 LINE",
"1154 1907 LINE",
"160 1907 LINE",
"160 852 LINE"
);
}
);
width = 1104;
}
);
note = g231;
},
{
glyphname = g232;
lastChange = "2016-11-30 01:17:22 +0000";
layers = (
{
layerId = "BBACE0B0-BA28-44BD-A35B-EF629929FF1A";
paths = (
{
closed = 1;
nodes = (
"944 852 LINE",
"944 1907 LINE",
"-50 1907 LINE",
"-50 1803 LINE",
"840 1803 LINE",
"840 852 LINE"
);
}
);
width = 1104;
}
);
note = g232;
},
{
glyphname = guillemotleft;
lastChange = "2016-11-30 01:17:22 +0000";
layers = (
{
layerId = "BBACE0B0-BA28-44BD-A35B-EF629929FF1A";
paths = (
{
closed = 1;
nodes = (
"938 68 LINE",
"651 419 LINE",
"938 769 LINE",
"821 838 LINE",
"477 431 LINE",
"477 404 LINE",
"821 -3 LINE"
);
},
{
closed = 1;
nodes = (
"543 68 LINE",
"254 419 LINE",
"543 769 LINE",
"424 838 LINE",
"82 431 LINE",
"82 404 LINE",
"424 -3 LINE"
);
}
);
width = 1018;
}
);
note = guillemotleft;
unicode = 00AB;
},
{
glyphname = guillemotright;
lastChange = "2016-11-30 01:17:22 +0000";
layers = (
{
layerId = "BBACE0B0-BA28-44BD-A35B-EF629929FF1A";
paths = (
{
closed = 1;
nodes = (
"936 404 LINE",
"936 431 LINE",
"592 838 LINE",
"475 769 LINE",
"762 419 LINE",
"475 68 LINE",
"592 -3 LINE"
);
},
{
closed = 1;
nodes = (
"541 404 LINE",
"541 431 LINE",
"197 838 LINE",
"80 769 LINE",
"367 419 LINE",
"80 68 LINE",
"197 -3 LINE"
);
}
);
width = 1018;
}
);
note = guillemotright;
unicode = 00BB;
},
{
glyphname = asterisk;
lastChange = "2016-11-30 01:17:22 +0000";
layers = (
{
layerId = "BBACE0B0-BA28-44BD-A35B-EF629929FF1A";
paths = (
{
closed = 1;
nodes = (
"428 848 LINE",
"561 585 LINE",
"692 657 LINE",
"518 899 LINE",
"792 927 LINE",
"772 1065 LINE",
"479 993 LINE",
"503 1280 LINE",
"356 1280 LINE",
"380 993 LINE",
"92 1065 LINE",
"70 927 LINE",
"341 899 LINE",
"172 657 LINE",
"306 585 LINE"
);
}
);
width = 862;
}
);
note = asterisk;
unicode = 002A;
},
{
glyphname = plus;
lastChange = "2016-11-30 01:17:22 +0000";
layers = (
{
layerId = "BBACE0B0-BA28-44BD-A35B-EF629929FF1A";
paths = (
{
closed = 1;
nodes = (
"652 152 LINE",
"652 556 LINE",
"1043 556 LINE",
"1043 688 LINE",
"652 688 LINE",
"652 1094 LINE",
"520 1094 LINE",
"520 688 LINE",
"130 688 LINE",
"130 556 LINE",
"520 556 LINE",
"520 152 LINE"
);
}
);
width = 1173;
}
);
note = plus;
unicode = 002B;
},
{
glyphname = minus;
lastChange = "2016-11-30 01:17:22 +0000";
layers = (
{
layerId = "BBACE0B0-BA28-44BD-A35B-EF629929FF1A";
paths = (
{
closed = 1;
nodes = (
"1043 556 LINE",
"1043 688 LINE",
"130 688 LINE",
"130 556 LINE"
);
}
);
width = 1173;
}
);
note = minus;
unicode = 2212;
},
{
glyphname = equal;
lastChange = "2016-11-30 01:17:22 +0000";
layers = (
{
layerId = "BBACE0B0-BA28-44BD-A35B-EF629929FF1A";
paths = (
{
closed = 1;
nodes = (
"1029 751 LINE",
"1029 881 LINE",
"145 881 LINE",
"145 751 LINE"
);
},
{
closed = 1;
nodes = (
"1029 363 LINE",
"1029 493 LINE",
"145 493 LINE",
"145 363 LINE"
);
}
);
width = 1174;
}
);
note = equal;
unicode = 003D;
},
{
glyphname = slash;
lastChange = "2016-11-30 01:17:22 +0000";
layers = (
{
layerId = "BBACE0B0-BA28-44BD-A35B-EF629929FF1A";
paths = (
{
closed = 1;
nodes = (
"232 -252 LINE",
"853 1420 LINE",
"712 1420 LINE",
"90 -252 LINE"
);
}
);
width = 943;
}
);
note = slash;
unicode = 002F;
},
{
glyphname = fraction;
lastChange = "2016-11-30 01:17:22 +0000";
layers = (
{
layerId = "BBACE0B0-BA28-44BD-A35B-EF629929FF1A";
paths = (
{
closed = 1;
nodes = (
"177 -107 LINE",
"761 1260 LINE",
"617 1260 LINE",
"32 -107 LINE"
);
}
);
width = 813;
}
);
note = fraction;
unicode = 2044;
},
{
glyphname = backslash;
lastChange = "2016-11-30 01:17:22 +0000";
layers = (
{
layerId = "BBACE0B0-BA28-44BD-A35B-EF629929FF1A";
paths = (
{
closed = 1;
nodes = (
"733 0 LINE",
"186 1462 LINE",
"23 1462 LINE",
"567 0 LINE"
);
}
);
width = 752;
}
);
note = backslash;
unicode = 005C;
},
{
glyphname = hyphen;
lastChange = "2016-11-30 01:17:22 +0000";
layers = (
{
layerId = "BBACE0B0-BA28-44BD-A35B-EF629929FF1A";
paths = (
{
closed = 1;
nodes = (
"575 473 LINE",
"575 625 LINE",
"84 625 LINE",
"84 473 LINE"
);
}
);
width = 659;
}
);
note = hyphen;
unicode = 002D;
},
{
glyphname = degree;
lastChange = "2016-11-30 01:17:22 +0000";
layers = (
{
layerId = "BBACE0B0-BA28-44BD-A35B-EF629929FF1A";
paths = (
{
closed = 1;
nodes = (
"548 667 OFFCURVE",
"675 794 OFFCURVE",
"675 947 CURVE SMOOTH",
"675 1111 OFFCURVE",
"551 1227 OFFCURVE",
"395 1227 CURVE SMOOTH",
"242 1227 OFFCURVE",
"115 1100 OFFCURVE",
"115 947 CURVE SMOOTH",
"115 786 OFFCURVE",
"235 667 OFFCURVE",
"395 667 CURVE SMOOTH"
);
},
{
closed = 1;
nodes = (
"295 771 OFFCURVE",
"219 847 OFFCURVE",
"219 947 CURVE SMOOTH",
"219 1050 OFFCURVE",
"295 1123 OFFCURVE",
"395 1123 CURVE SMOOTH",
"495 1123 OFFCURVE",
"571 1050 OFFCURVE",
"571 947 CURVE SMOOTH",
"571 847 OFFCURVE",
"495 771 OFFCURVE",
"395 771 CURVE SMOOTH"
);
}
);
width = 877;
}
);
note = degree;
unicode = 00B0;
},
{
glyphname = uni25CC;
lastChange = "2016-11-30 01:17:22 +0000";
layers = (
{
layerId = "BBACE0B0-BA28-44BD-A35B-EF629929FF1A";
paths = (
{
closed = 1;
nodes = (
"1069 608 LINE",
"1060 689 OFFCURVE",
"1029 765 OFFCURVE",
"975 835 CURVE",
"930 788 LINE",
"967 737 OFFCURVE",
"993 677 OFFCURVE",
"1006 608 CURVE"
);
},
{
closed = 1;
nodes = (
"561 174 LINE",
"495 182 OFFCURVE",
"436 205 OFFCURVE",
"385 243 CURVE",
"338 198 LINE",
"409 146 OFFCURVE",
"484 116 OFFCURVE",
"561 108 CURVE"
);
},
{
closed = 1;
nodes = (
"311 323 LINE",
"271 376 OFFCURVE",
"246 435 OFFCURVE",
"235 499 CURVE",
"170 499 LINE",
"181 419 OFFCURVE",
"213 345 OFFCURVE",
"264 278 CURVE"
);
},
{
closed = 1;
nodes = (
"753 115 OFFCURVE",
"828 147 OFFCURVE",
"895 198 CURVE",
"848 245 LINE",
"795 205 OFFCURVE",
"736 180 OFFCURVE",
"672 169 CURVE",
"672 104 LINE"
);
},
{
closed = 1;
nodes = (
"235 608 LINE",
"244 671 OFFCURVE",
"268 731 OFFCURVE",
"307 786 CURVE",
"262 833 LINE",
"210 765 OFFCURVE",
"180 690 OFFCURVE",
"172 608 CURVE"
);
},
{
closed = 1;
nodes = (
"437 903 OFFCURVE",
"496 928 OFFCURVE",
"561 939 CURVE",
"561 1005 LINE",
"481 994 OFFCURVE",
"407 962 OFFCURVE",
"340 911 CURVE",
"385 864 LINE"
);
},
{
closed = 1;
nodes = (
"1031 347 OFFCURVE",
"1061 422 OFFCURVE",
"1069 499 CURVE",
"1003 499 LINE",
"995 438 OFFCURVE",
"971 379 OFFCURVE",
"932 323 CURVE",
"979 276 LINE"
);
},
{
closed = 1;
nodes = (
"895 915 LINE",
"824 967 OFFCURVE",
"750 997 OFFCURVE",
"672 1005 CURVE",
"672 939 LINE",
"735 931 OFFCURVE",
"795 907 OFFCURVE",
"850 868 CURVE"
);
}
);
width = 1239;
}
);
note = uni25CC;
unicode = 25CC;
},
{
glyphname = uni2670;
lastChange = "2016-11-30 01:17:22 +0000";
layers = (
{
layerId = "BBACE0B0-BA28-44BD-A35B-EF629929FF1A";
paths = (
{
closed = 1;
nodes = (
"913 -212 LINE",
"1094 -321 LINE",
"1174 -233 LINE",
"991 -96 LINE",
"991 722 LINE",
"1428 722 LINE",
"1564 548 LINE",
"1652 612 LINE",
"1543 794 LINE",
"1652 975 LINE",
"1564 1046 LINE",
"1428 872 LINE",
"991 872 LINE",
"991 1327 LINE",
"1174 1463 LINE",
"1101 1551 LINE",
"919 1442 LINE",
"738 1551 LINE",
"658 1463 LINE",
"841 1326 LINE",
"841 872 LINE",
"404 872 LINE",
"268 1046 LINE",
"180 982 LINE",
"288 800 LINE",
"180 619 LINE",
"268 548 LINE",
"404 722 LINE",
"841 722 LINE",
"841 -97 LINE",
"658 -233 LINE",
"731 -321 LINE"
);
}
);
width = 1832;
}
);
note = uni2670;
unicode = 2670;
},
{
glyphname = uni2671;
lastChange = "2016-11-30 01:17:22 +0000";
layers = (
{
layerId = "BBACE0B0-BA28-44BD-A35B-EF629929FF1A";
paths = (
{
closed = 1;
nodes = (
"979 -321 OFFCURVE",
"1086 -292 OFFCURVE",
"1131 -257 CURVE",
"1131 -209 LINE",
"971 -152 LINE",
"971 722 LINE",
"1444 722 LINE",
"1500 562 LINE",
"1548 562 LINE",
"1580 602 OFFCURVE",
"1612 705 OFFCURVE",
"1612 793 CURVE SMOOTH",
"1612 880 OFFCURVE",
"1583 987 OFFCURVE",
"1548 1032 CURVE",
"1500 1032 LINE",
"1443 872 LINE",
"971 872 LINE",
"971 1383 LINE",
"1131 1439 LINE",
"1131 1487 LINE",
"1087 1522 OFFCURVE",
"987 1551 OFFCURVE",
"900 1551 CURVE SMOOTH",
"812 1551 OFFCURVE",
"701 1519 OFFCURVE",
"661 1487 CURVE",
"661 1439 LINE",
"821 1382 LINE",
"821 872 LINE",
"348 872 LINE",
"292 1032 LINE",
"244 1032 LINE",
"209 988 OFFCURVE",
"180 888 OFFCURVE",
"180 801 CURVE SMOOTH",
"180 713 OFFCURVE",
"212 602 OFFCURVE",
"244 562 CURVE",
"292 562 LINE",
"349 722 LINE",
"821 722 LINE",
"821 -153 LINE",
"661 -209 LINE",
"661 -257 LINE",
"701 -289 OFFCURVE",
"804 -321 OFFCURVE",
"892 -321 CURVE SMOOTH"
);
}
);
width = 1792;
}
);
note = uni2671;
unicode = 2671;
},
{
glyphname = g247;
lastChange = "2016-11-30 01:17:22 +0000";
layers = (
{
layerId = "BBACE0B0-BA28-44BD-A35B-EF629929FF1A";
paths = (
{
closed = 1;
nodes = (
"923 0 LINE",
"925 24 OFFCURVE",
"926 49 OFFCURVE",
"926 76 CURVE SMOOTH",
"926 148 LINE SMOOTH",
"926 656 OFFCURVE",
"769 881 OFFCURVE",
"433 881 CURVE SMOOTH",
"334 881 OFFCURVE",
"245 854 OFFCURVE",
"184 818 CURVE",
"184 677 LINE",
"271 716 OFFCURVE",
"346 730 OFFCURVE",
"414 730 CURVE SMOOTH",
"655 730 OFFCURVE",
"774 558 OFFCURVE",
"774 155 CURVE",
"160 155 LINE",
"160 0 LINE"
);
},
{
closed = 1;
nodes = (
"379 1069 LINE",
"379 1244 LINE",
"212 1244 LINE",
"212 1069 LINE"
);
},
{
closed = 1;
nodes = (
"757 1069 LINE",
"757 1244 LINE",
"590 1244 LINE",
"590 1069 LINE"
);
}
);
width = 1066;
}
);
note = g247;
},
{
glyphname = g248;
lastChange = "2016-11-30 01:17:22 +0000";
layers = (
{
layerId = "BBACE0B0-BA28-44BD-A35B-EF629929FF1A";
paths = (
{
closed = 1;
nodes = (
"805 0 LINE",
"841 94 LINE",
"845 94 LINE",
"885 31 OFFCURVE",
"946 0 OFFCURVE",
"1028 0 CURVE SMOOTH",
"1061 0 LINE",
"1061 155 LINE",
"1028 155 LINE SMOOTH",
"991 155 OFFCURVE",
"959 176 OFFCURVE",
"946 247 CURVE SMOOTH",
"903 474 LINE SMOOTH",
"854 746 OFFCURVE",
"698 881 OFFCURVE",
"438 881 CURVE SMOOTH",
"341 881 OFFCURVE",
"233 853 OFFCURVE",
"185 816 CURVE",
"185 680 LINE",
"244 711 OFFCURVE",
"340 731 OFFCURVE",
"407 731 CURVE SMOOTH",
"619 731 OFFCURVE",
"727 626 OFFCURVE",
"768 391 CURVE SMOOTH",
"793 245 LINE SMOOTH",
"800 210 OFFCURVE",
"805 182 OFFCURVE",
"816 155 CURVE",
"160 155 LINE",
"160 0 LINE"
);
},
{
closed = 1;
nodes = (
"379 1069 LINE",
"379 1244 LINE",
"212 1244 LINE",
"212 1069 LINE"
);
},
{
closed = 1;
nodes = (
"757 1069 LINE",
"757 1244 LINE",
"590 1244 LINE",
"590 1069 LINE"
);
}
);
width = 1061;
}
);
note = g248;
},
{
glyphname = g249;
lastChange = "2016-11-30 01:17:22 +0000";
layers = (
{
layerId = "BBACE0B0-BA28-44BD-A35B-EF629929FF1A";
paths = (
{
closed = 1;
nodes = (
"277 -64 LINE",
"317 0 LINE",
"826 0 LINE",
"826 155 LINE",
"405 155 LINE",
"516 370 OFFCURVE",
"589 594 OFFCURVE",
"589 835 CURVE SMOOTH",
"589 1099 OFFCURVE",
"495 1215 OFFCURVE",
"308 1231 CURVE",
"242 1085 LINE",
"396 1017 LINE",
"424 985 OFFCURVE",
"437 912 OFFCURVE",
"437 825 CURVE SMOOTH",
"437 548 OFFCURVE",
"343 305 OFFCURVE",
"115 -58 CURVE",
"235 -128 LINE"
);
}
);
width = 826;
}
);
note = g249;
},
{
glyphname = g250;
lastChange = "2016-11-30 01:17:22 +0000";
layers = (
{
layerId = "BBACE0B0-BA28-44BD-A35B-EF629929FF1A";
paths = (
{
closed = 1;
nodes = (
"277 -64 LINE",
"317 0 LINE",
"826 0 LINE",
"826 155 LINE",
"405 155 LINE",
"516 370 OFFCURVE",
"589 594 OFFCURVE",
"589 835 CURVE SMOOTH",
"589 1099 OFFCURVE",
"495 1215 OFFCURVE",
"308 1231 CURVE",
"242 1085 LINE",
"396 1017 LINE",
"424 985 OFFCURVE",
"437 912 OFFCURVE",
"437 825 CURVE SMOOTH",
"437 548 OFFCURVE",
"343 305 OFFCURVE",
"115 -58 CURVE",
"235 -128 LINE"
);
}
);
width = 826;
}
);
note = g250;
},
{
glyphname = g251;
lastChange = "2016-11-30 01:17:22 +0000";
layers = (
{
layerId = "BBACE0B0-BA28-44BD-A35B-EF629929FF1A";
paths = (
{
closed = 1;
nodes = (
"63 -143 LINE",
"336 239 LINE",
"459 64 OFFCURVE",
"522 0 OFFCURVE",
"631 0 CURVE",
"631 155 LINE",
"611 155 OFFCURVE",
"586 170 OFFCURVE",
"557 201 CURVE SMOOTH",
"528 231 OFFCURVE",
"488 283 OFFCURVE",
"438 356 CURVE SMOOTH",
"165 751 LINE",
"48 664 LINE",
"259 352 LINE",
"19 19 LINE",
"-306 465 LINE",
"-368 302 LINE",
"-41 -143 LINE"
);
}
);
width = 631;
}
);
note = g251;
},
{
glyphname = g252;
lastChange = "2016-11-30 01:17:22 +0000";
layers = (
{
layerId = "BBACE0B0-BA28-44BD-A35B-EF629929FF1A";
paths = (
{
closed = 1;
nodes = (
"478 232 OFFCURVE",
"589 538 OFFCURVE",
"589 835 CURVE SMOOTH",
"589 1099 OFFCURVE",
"495 1215 OFFCURVE",
"308 1231 CURVE",
"242 1085 LINE",
"396 1017 LINE",
"424 985 OFFCURVE",
"437 912 OFFCURVE",
"437 825 CURVE SMOOTH",
"437 548 OFFCURVE",
"343 305 OFFCURVE",
"115 -58 CURVE",
"235 -128 LINE"
);
}
);
width = 754;
}
);
note = g252;
},
{
glyphname = g253;
lastChange = "2016-11-30 01:17:22 +0000";
layers = (
{
layerId = "BBACE0B0-BA28-44BD-A35B-EF629929FF1A";
paths = (
{
closed = 1;
nodes = (
"283 -138 LINE",
"286 0 LINE",
"730 0 LINE",
"730 155 LINE",
"328 155 LINE",
"468 390 OFFCURVE",
"538 623 OFFCURVE",
"538 835 CURVE SMOOTH",
"538 1111 OFFCURVE",
"448 1215 OFFCURVE",
"267 1231 CURVE",
"196 1085 LINE",
"345 1017 LINE",
"372 986 OFFCURVE",
"391 912 OFFCURVE",
"391 825 CURVE SMOOTH",
"391 610 OFFCURVE",
"320 408 OFFCURVE",
"165 155 CURVE",
"115 155 LINE",
"115 12 LINE",
"143 -1 LINE",
"262 -138 LINE"
);
}
);
width = 730;
}
);
note = g253;
},
{
glyphname = g254;
lastChange = "2016-11-30 01:17:22 +0000";
layers = (
{
layerId = "BBACE0B0-BA28-44BD-A35B-EF629929FF1A";
paths = (
{
closed = 1;
nodes = (
"283 -138 LINE",
"286 0 LINE",
"730 0 LINE",
"730 155 LINE",
"328 155 LINE",
"468 390 OFFCURVE",
"538 623 OFFCURVE",
"538 835 CURVE SMOOTH",
"538 1111 OFFCURVE",
"448 1215 OFFCURVE",
"267 1231 CURVE",
"196 1085 LINE",
"345 1017 LINE",
"372 986 OFFCURVE",
"391 912 OFFCURVE",
"391 825 CURVE SMOOTH",
"391 610 OFFCURVE",
"320 408 OFFCURVE",
"165 155 CURVE",
"115 155 LINE",
"115 12 LINE",
"143 -1 LINE",
"262 -138 LINE"
);
}
);
width = 730;
}
);
note = g254;
},
{
glyphname = g255;
lastChange = "2016-11-30 01:17:22 +0000";
layers = (
{
layerId = "BBACE0B0-BA28-44BD-A35B-EF629929FF1A";
paths = (
{
closed = 1;
nodes = (
"961 -11 OFFCURVE",
"1064 26 OFFCURVE",
"1135 94 CURVE",
"1141 94 LINE",
"1185 31 OFFCURVE",
"1257 0 OFFCURVE",
"1353 0 CURVE SMOOTH",
"1383 0 LINE",
"1383 155 LINE",
"1353 155 LINE SMOOTH",
"1282 155 OFFCURVE",
"1237 178 OFFCURVE",
"1222 233 CURVE",
"1236 277 OFFCURVE",
"1243 326 OFFCURVE",
"1243 379 CURVE SMOOTH",
"1243 652 OFFCURVE",
"1081 848 OFFCURVE",
"832 848 CURVE SMOOTH",
"660 848 OFFCURVE",
"520 756 OFFCURVE",
"451 596 CURVE",
"260 742 LINE SMOOTH",
"178 805 OFFCURVE",
"117 854 OFFCURVE",
"77 891 CURVE SMOOTH",
"36 928 OFFCURVE",
"4 958 OFFCURVE",
"-21 983 CURVE",
"-121 868 LINE",
"-61 808 OFFCURVE",
"56 707 OFFCURVE",
"225 578 CURVE SMOOTH",
"411 438 LINE",
"409 419 OFFCURVE",
"408 399 OFFCURVE",
"408 379 CURVE SMOOTH",
"408 290 OFFCURVE",
"427 216 OFFCURVE",
"464 155 CURVE",
"0 155 LINE SMOOTH",
"-44 155 OFFCURVE",
"-80 125 OFFCURVE",
"-80 77 CURVE SMOOTH",
"-80 29 OFFCURVE",
"-44 0 OFFCURVE",
"0 0 CURVE SMOOTH",
"474 0 LINE",
"510 94 LINE",
"514 94 LINE",
"585 24 OFFCURVE",
"689 -11 OFFCURVE",
"824 -11 CURVE SMOOTH"
);
},
{
closed = 1;
nodes = (
"637 136 OFFCURVE",
"549 221 OFFCURVE",
"549 384 CURVE SMOOTH",
"549 563 OFFCURVE",
"660 700 OFFCURVE",
"824 700 CURVE SMOOTH",
"989 700 OFFCURVE",
"1096 571 OFFCURVE",
"1096 384 CURVE SMOOTH",
"1096 221 OFFCURVE",
"1012 136 OFFCURVE",
"824 136 CURVE SMOOTH"
);
}
);
width = 1383;
}
);
note = g255;
},
{
glyphname = g256;
lastChange = "2016-11-30 01:17:22 +0000";
layers = (
{
layerId = "BBACE0B0-BA28-44BD-A35B-EF629929FF1A";
paths = (
{
closed = 1;
nodes = (
"1091 -11 OFFCURVE",
"1243 134 OFFCURVE",
"1243 379 CURVE SMOOTH",
"1243 652 OFFCURVE",
"1081 848 OFFCURVE",
"832 848 CURVE SMOOTH",
"660 848 OFFCURVE",
"520 756 OFFCURVE",
"451 596 CURVE",
"260 742 LINE SMOOTH",
"178 805 OFFCURVE",
"117 854 OFFCURVE",
"77 891 CURVE SMOOTH",
"36 928 OFFCURVE",
"4 958 OFFCURVE",
"-21 983 CURVE",
"-121 868 LINE",
"-61 808 OFFCURVE",
"56 707 OFFCURVE",
"225 578 CURVE SMOOTH",
"411 438 LINE",
"409 419 OFFCURVE",
"408 399 OFFCURVE",
"408 379 CURVE SMOOTH",
"408 290 OFFCURVE",
"427 216 OFFCURVE",
"464 155 CURVE",
"0 155 LINE SMOOTH",
"-44 155 OFFCURVE",
"-80 125 OFFCURVE",
"-80 77 CURVE SMOOTH",
"-80 29 OFFCURVE",
"-44 0 OFFCURVE",
"0 0 CURVE SMOOTH",
"472 0 LINE",
"509 95 LINE",
"513 95 LINE",
"584 26 OFFCURVE",
"687 -11 OFFCURVE",
"824 -11 CURVE SMOOTH"
);
},
{
closed = 1;
nodes = (
"637 136 OFFCURVE",
"549 221 OFFCURVE",
"549 384 CURVE SMOOTH",
"549 563 OFFCURVE",
"660 700 OFFCURVE",
"824 700 CURVE SMOOTH",
"989 700 OFFCURVE",
"1096 571 OFFCURVE",
"1096 384 CURVE SMOOTH",
"1096 221 OFFCURVE",
"1012 136 OFFCURVE",
"824 136 CURVE SMOOTH"
);
}
);
width = 1383;
}
);
note = g256;
},
{
glyphname = g257;
lastChange = "2016-11-30 01:17:22 +0000";
layers = (
{
layerId = "BBACE0B0-BA28-44BD-A35B-EF629929FF1A";
paths = (
{
closed = 1;
nodes = (
"733 0 LINE",
"768 94 LINE",
"772 94 LINE",
"820 26 OFFCURVE",
"897 0 OFFCURVE",
"994 0 CURVE SMOOTH",
"1077 0 LINE",
"1077 155 LINE",
"1007 155 LINE SMOOTH",
"964 155 OFFCURVE",
"934 161 OFFCURVE",
"917 173 CURVE SMOOTH",
"883 197 OFFCURVE",
"862 245 OFFCURVE",
"862 348 CURVE SMOOTH",
"862 872 LINE",
"404 872 LINE SMOOTH",
"248 872 OFFCURVE",
"89 886 OFFCURVE",
"40 898 CURVE",
"40 752 LINE",
"100 736 OFFCURVE",
"255 722 OFFCURVE",
"414 722 CURVE SMOOTH",
"712 722 LINE",
"712 335 LINE SMOOTH",
"712 262 OFFCURVE",
"721 202 OFFCURVE",
"739 155 CURVE",
"0 155 LINE SMOOTH",
"-44 155 OFFCURVE",
"-80 125 OFFCURVE",
"-80 77 CURVE SMOOTH",
"-80 29 OFFCURVE",
"-44 0 OFFCURVE",
"0 0 CURVE SMOOTH"
);
}
);
width = 1077;
}
);
note = g257;
},
{
glyphname = g258;
lastChange = "2016-11-30 01:17:22 +0000";
layers = (
{
layerId = "BBACE0B0-BA28-44BD-A35B-EF629929FF1A";
paths = (
{
closed = 1;
nodes = (
"782 0 LINE",
"862 110 LINE",
"862 872 LINE",
"404 872 LINE SMOOTH",
"248 872 OFFCURVE",
"89 886 OFFCURVE",
"40 898 CURVE",
"40 752 LINE",
"100 736 OFFCURVE",
"255 722 OFFCURVE",
"414 722 CURVE SMOOTH",
"712 722 LINE",
"712 155 LINE",
"0 155 LINE SMOOTH",
"-44 155 OFFCURVE",
"-80 125 OFFCURVE",
"-80 77 CURVE SMOOTH",
"-80 29 OFFCURVE",
"-44 0 OFFCURVE",
"0 0 CURVE SMOOTH"
);
}
);
width = 1002;
}
);
note = g258;
},
{
glyphname = g259;
lastChange = "2016-11-30 01:17:22 +0000";
layers = (
{
layerId = "BBACE0B0-BA28-44BD-A35B-EF629929FF1A";
paths = (
{
closed = 1;
nodes = (
"810 -492 LINE",
"810 -288 LINE",
"715 -288 LINE",
"565 0 LINE",
"582 0 LINE",
"582 155 LINE",
"566 155 OFFCURVE",
"552 164 OFFCURVE",
"539 182 CURVE SMOOTH",
"526 199 OFFCURVE",
"508 230 OFFCURVE",
"485 275 CURVE SMOOTH",
"-104 1420 LINE",
"-248 1350 LINE",
"367 155 LINE",
"0 155 LINE SMOOTH",
"-44 155 OFFCURVE",
"-80 125 OFFCURVE",
"-80 77 CURVE SMOOTH",
"-80 29 OFFCURVE",
"-44 0 OFFCURVE",
"0 0 CURVE SMOOTH",
"363 0 LINE",
"400 94 LINE",
"404 94 LINE",
"613 -312 LINE",
"613 -492 LINE"
);
}
);
width = 582;
}
);
note = g259;
},
{
glyphname = g260;
lastChange = "2016-11-30 01:15:49 +0000";
layers = (
{
layerId = "BBACE0B0-BA28-44BD-A35B-EF629929FF1A";
paths = (
{
closed = 1;
nodes = (
"874 -492 LINE",
"874 -288 LINE",
"779 -288 LINE",
"-104 1420 LINE",
"-248 1350 LINE",
"367 155 LINE",
"0 155 LINE SMOOTH",
"-44 155 OFFCURVE",
"-80 125 OFFCURVE",
"-80 77 CURVE SMOOTH",
"-80 29 OFFCURVE",
"-44 0 OFFCURVE",
"0 0 CURVE SMOOTH",
"516 0 LINE",
"677 -312 LINE",
"677 -492 LINE"
);
}
);
width = 724;
}
);
note = g260;
},
{
glyphname = g261;
lastChange = "2016-11-30 01:15:49 +0000";
layers = (
{
layerId = "BBACE0B0-BA28-44BD-A35B-EF629929FF1A";
paths = (
{
closed = 1;
nodes = (
"810 -492 LINE",
"810 -288 LINE",
"715 -288 LINE",
"565 0 LINE",
"582 0 LINE",
"582 155 LINE",
"566 155 OFFCURVE",
"552 164 OFFCURVE",
"539 182 CURVE SMOOTH",
"526 199 OFFCURVE",
"508 230 OFFCURVE",
"485 275 CURVE SMOOTH",
"167 892 LINE",
"174 896 LINE",
"195 887 OFFCURVE",
"221 884 OFFCURVE",
"240 884 CURVE SMOOTH",
"377 884 OFFCURVE",
"453 974 OFFCURVE",
"453 1105 CURVE SMOOTH",
"453 1165 OFFCURVE",
"431 1229 OFFCURVE",
"398 1294 CURVE SMOOTH",
"333 1420 LINE",
"204 1352 LINE",
"271 1225 LINE SMOOTH",
"296 1178 OFFCURVE",
"308 1135 OFFCURVE",
"308 1100 CURVE SMOOTH",
"308 1040 OFFCURVE",
"263 1006 OFFCURVE",
"199 1006 CURVE SMOOTH",
"130 1006 OFFCURVE",
"92 1040 OFFCURVE",
"63 1095 CURVE SMOOTH",
"-104 1420 LINE",
"-248 1350 LINE",
"367 155 LINE",
"0 155 LINE SMOOTH",
"-44 155 OFFCURVE",
"-80 125 OFFCURVE",
"-80 77 CURVE SMOOTH",
"-80 29 OFFCURVE",
"-44 0 OFFCURVE",
"0 0 CURVE SMOOTH",
"363 0 LINE",
"400 94 LINE",
"404 94 LINE",
"613 -312 LINE",
"613 -492 LINE"
);
}
);
width = 582;
}
);
note = g261;
},
{
glyphname = g262;
lastChange = "2016-11-30 01:15:49 +0000";
layers = (
{
layerId = "BBACE0B0-BA28-44BD-A35B-EF629929FF1A";
paths = (
{
closed = 1;
nodes = (
"874 -492 LINE",
"874 -288 LINE",
"779 -288 LINE",
"167 892 LINE",
"174 896 LINE",
"195 887 OFFCURVE",
"221 884 OFFCURVE",
"240 884 CURVE SMOOTH",
"377 884 OFFCURVE",
"453 974 OFFCURVE",
"453 1105 CURVE SMOOTH",
"453 1165 OFFCURVE",
"431 1229 OFFCURVE",
"398 1294 CURVE SMOOTH",
"333 1420 LINE",
"204 1352 LINE",
"271 1225 LINE SMOOTH",
"296 1178 OFFCURVE",
"308 1135 OFFCURVE",
"308 1100 CURVE SMOOTH",
"308 1040 OFFCURVE",
"263 1006 OFFCURVE",
"199 1006 CURVE SMOOTH",
"130 1006 OFFCURVE",
"92 1040 OFFCURVE",
"63 1095 CURVE SMOOTH",
"-104 1420 LINE",
"-248 1350 LINE",
"367 155 LINE",
"0 155 LINE SMOOTH",
"-44 155 OFFCURVE",
"-80 125 OFFCURVE",
"-80 77 CURVE SMOOTH",
"-80 29 OFFCURVE",
"-44 0 OFFCURVE",
"0 0 CURVE SMOOTH",
"516 0 LINE",
"677 -312 LINE",
"677 -492 LINE"
);
}
);
width = 724;
}
);
note = g262;
},
{
glyphname = g263;
lastChange = "2016-11-30 01:17:22 +0000";
layers = (
{
layerId = "BBACE0B0-BA28-44BD-A35B-EF629929FF1A";
paths = (
{
closed = 1;
nodes = (
"809 -584 LINE",
"1181 -6 LINE",
"1181 155 LINE",
"545 155 LINE",
"-104 1420 LINE",
"-248 1350 LINE",
"367 155 LINE",
"0 155 LINE SMOOTH",
"-44 155 OFFCURVE",
"-80 125 OFFCURVE",
"-80 77 CURVE SMOOTH",
"-80 29 OFFCURVE",
"-44 0 OFFCURVE",
"0 0 CURVE SMOOTH",
"447 0 LINE",
"748 -584 LINE"
);
},
{
closed = 1;
nodes = (
"625 0 LINE",
"1070 0 LINE",
"823 -385 LINE"
);
}
);
width = 1071;
}
);
note = g263;
},
{
glyphname = g264;
lastChange = "2016-11-30 01:17:22 +0000";
layers = (
{
layerId = "BBACE0B0-BA28-44BD-A35B-EF629929FF1A";
paths = (
{
closed = 1;
nodes = (
"809 -584 LINE",
"1181 -6 LINE",
"1181 155 LINE",
"545 155 LINE",
"-104 1420 LINE",
"-248 1350 LINE",
"367 155 LINE",
"0 155 LINE SMOOTH",
"-44 155 OFFCURVE",
"-80 125 OFFCURVE",
"-80 77 CURVE SMOOTH",
"-80 29 OFFCURVE",
"-44 0 OFFCURVE",
"0 0 CURVE SMOOTH",
"447 0 LINE",
"748 -584 LINE"
);
},
{
closed = 1;
nodes = (
"625 0 LINE",
"1070 0 LINE",
"823 -385 LINE"
);
}
);
width = 1321;
}
);
note = g264;
},
{
glyphname = g265;
lastChange = "2016-11-30 01:17:22 +0000";
layers = (
{
layerId = "BBACE0B0-BA28-44BD-A35B-EF629929FF1A";
paths = (
{
closed = 1;
nodes = (
"824 -614 LINE",
"1211 -6 LINE",
"1211 155 LINE",
"545 155 LINE",
"-104 1420 LINE",
"-248 1350 LINE",
"367 155 LINE",
"0 155 LINE SMOOTH",
"-44 155 OFFCURVE",
"-80 125 OFFCURVE",
"-80 77 CURVE SMOOTH",
"-80 29 OFFCURVE",
"-44 0 OFFCURVE",
"0 0 CURVE SMOOTH",
"447 0 LINE",
"763 -614 LINE"
);
},
{
closed = 1;
nodes = (
"714 -382 OFFCURVE",
"591 -165 OFFCURVE",
"591 0 CURVE",
"1105 0 LINE",
"1037 -177 OFFCURVE",
"877 -410 OFFCURVE",
"810 -465 CURVE"
);
},
{
closed = 1;
nodes = (
"901 -246 LINE",
"901 -83 LINE",
"742 -83 LINE",
"742 -246 LINE"
);
}
);
width = 1101;
}
);
note = g265;
},
{
glyphname = g266;
lastChange = "2016-11-30 01:17:22 +0000";
layers = (
{
layerId = "BBACE0B0-BA28-44BD-A35B-EF629929FF1A";
paths = (
{
closed = 1;
nodes = (
"824 -614 LINE",
"1211 -6 LINE",
"1211 155 LINE",
"545 155 LINE",
"-104 1420 LINE",
"-248 1350 LINE",
"367 155 LINE",
"0 155 LINE SMOOTH",
"-44 155 OFFCURVE",
"-80 125 OFFCURVE",
"-80 77 CURVE SMOOTH",
"-80 29 OFFCURVE",
"-44 0 OFFCURVE",
"0 0 CURVE SMOOTH",
"447 0 LINE",
"763 -614 LINE"
);
},
{
closed = 1;
nodes = (
"714 -382 OFFCURVE",
"591 -165 OFFCURVE",
"591 0 CURVE",
"1105 0 LINE",
"1037 -177 OFFCURVE",
"877 -410 OFFCURVE",
"810 -465 CURVE"
);
},
{
closed = 1;
nodes = (
"901 -246 LINE",
"901 -83 LINE",
"742 -83 LINE",
"742 -246 LINE"
);
}
);
width = 1351;
}
);
note = g266;
},
{
glyphname = g267;
lastChange = "2016-11-30 01:17:22 +0000";
layers = (
{
layerId = "BBACE0B0-BA28-44BD-A35B-EF629929FF1A";
paths = (
{
closed = 1;
nodes = (
"365 0 LINE",
"402 93 LINE",
"406 93 LINE",
"447 36 OFFCURVE",
"494 0 OFFCURVE",
"569 0 CURVE SMOOTH",
"584 0 LINE",
"584 155 LINE",
"541 155 OFFCURVE",
"506 239 OFFCURVE",
"487 275 CURVE SMOOTH",
"-104 1420 LINE",
"-248 1350 LINE",
"368 155 LINE",
"0 155 LINE SMOOTH",
"-44 155 OFFCURVE",
"-80 125 OFFCURVE",
"-80 77 CURVE SMOOTH",
"-80 29 OFFCURVE",
"-44 0 OFFCURVE",
"0 0 CURVE SMOOTH"
);
}
);
width = 584;
}
);
note = g267;
},
{
glyphname = g268;
lastChange = "2016-11-30 01:17:22 +0000";
layers = (
{
layerId = "BBACE0B0-BA28-44BD-A35B-EF629929FF1A";
paths = (
{
closed = 1;
nodes = (
"461 0 LINE",
"556 141 LINE",
"-104 1420 LINE",
"-248 1350 LINE",
"367 155 LINE",
"0 155 LINE SMOOTH",
"-44 155 OFFCURVE",
"-80 125 OFFCURVE",
"-80 77 CURVE SMOOTH",
"-80 29 OFFCURVE",
"-44 0 OFFCURVE",
"0 0 CURVE SMOOTH"
);
}
);
width = 656;
}
);
note = g268;
},
{
glyphname = g269;
lastChange = "2016-11-30 01:17:22 +0000";
layers = (
{
layerId = "BBACE0B0-BA28-44BD-A35B-EF629929FF1A";
paths = (
{
closed = 1;
nodes = (
"476 0 LINE",
"515 94 LINE",
"519 94 LINE",
"578 30 OFFCURVE",
"632 0 OFFCURVE",
"688 0 CURVE",
"688 155 LINE",
"673 155 OFFCURVE",
"656 167 OFFCURVE",
"636 191 CURVE SMOOTH",
"616 214 OFFCURVE",
"583 259 OFFCURVE",
"538 325 CURVE SMOOTH",
"29 1055 LINE",
"-104 965 LINE",
"391 255 LINE SMOOTH",
"414 222 OFFCURVE",
"446 182 OFFCURVE",
"469 155 CURVE",
"0 155 LINE SMOOTH",
"-44 155 OFFCURVE",
"-80 125 OFFCURVE",
"-80 77 CURVE SMOOTH",
"-80 29 OFFCURVE",
"-44 0 OFFCURVE",
"0 0 CURVE SMOOTH"
);
}
);
width = 688;
}
);
note = g269;
},
{
glyphname = g270;
lastChange = "2016-11-30 01:17:22 +0000";
layers = (
{
layerId = "BBACE0B0-BA28-44BD-A35B-EF629929FF1A";
paths = (
{
closed = 1;
nodes = (
"848 -10 OFFCURVE",
"947 49 OFFCURVE",
"990 168 CURVE",
"914 268 LINE",
"909 268 LINE",
"874 193 OFFCURVE",
"820 145 OFFCURVE",
"747 145 CURVE SMOOTH",
"716 145 OFFCURVE",
"687 154 OFFCURVE",
"662 173 CURVE SMOOTH",
"636 192 OFFCURVE",
"595 242 OFFCURVE",
"539 325 CURVE SMOOTH",
"30 1055 LINE",
"-103 965 LINE",
"391 255 LINE SMOOTH",
"414 222 OFFCURVE",
"447 182 OFFCURVE",
"470 155 CURVE",
"0 155 LINE SMOOTH",
"-44 155 OFFCURVE",
"-80 125 OFFCURVE",
"-80 77 CURVE SMOOTH",
"-80 29 OFFCURVE",
"-44 0 OFFCURVE",
"0 0 CURVE SMOOTH",
"477 0 LINE",
"516 94 LINE",
"520 94 LINE",
"579 27 OFFCURVE",
"642 -10 OFFCURVE",
"741 -10 CURVE SMOOTH"
);
}
);
width = 1090;
}
);
note = g270;
},
{
glyphname = g271;
lastChange = "2016-11-30 01:17:22 +0000";
layers = (
{
layerId = "BBACE0B0-BA28-44BD-A35B-EF629929FF1A";
paths = (
{
closed = 1;
nodes = (
"374 0 LINE",
"410 94 LINE",
"414 94 LINE",
"462 26 OFFCURVE",
"538 0 OFFCURVE",
"635 0 CURVE SMOOTH",
"1006 0 LINE",
"1006 155 LINE",
"648 155 LINE SMOOTH",
"605 155 OFFCURVE",
"575 161 OFFCURVE",
"558 173 CURVE SMOOTH",
"524 197 OFFCURVE",
"503 245 OFFCURVE",
"503 348 CURVE SMOOTH",
"503 697 LINE",
"651 700 OFFCURVE",
"814 724 OFFCURVE",
"871 755 CURVE",
"842 901 LINE",
"814 889 OFFCURVE",
"765 877 OFFCURVE",
"695 865 CURVE SMOOTH",
"625 853 OFFCURVE",
"536 847 OFFCURVE",
"428 847 CURVE SMOOTH",
"320 847 OFFCURVE",
"231 853 OFFCURVE",
"161 865 CURVE SMOOTH",
"91 877 OFFCURVE",
"42 889 OFFCURVE",
"14 901 CURVE",
"-15 755 LINE",
"42 724 OFFCURVE",
"205 700 OFFCURVE",
"353 697 CURVE",
"353 335 LINE SMOOTH",
"353 262 OFFCURVE",
"362 202 OFFCURVE",
"380 155 CURVE",
"0 155 LINE SMOOTH",
"-44 155 OFFCURVE",
"-80 125 OFFCURVE",
"-80 77 CURVE SMOOTH",
"-80 29 OFFCURVE",
"-44 0 OFFCURVE",
"0 0 CURVE SMOOTH"
);
}
);
width = 1006;
}
);
note = g271;
},
{
glyphname = g272;
lastChange = "2016-11-30 01:17:22 +0000";
layers = (
{
layerId = "BBACE0B0-BA28-44BD-A35B-EF629929FF1A";
paths = (
{
closed = 1;
nodes = (
"374 0 LINE",
"410 94 LINE",
"414 94 LINE",
"462 26 OFFCURVE",
"538 0 OFFCURVE",
"635 0 CURVE SMOOTH",
"981 0 LINE",
"981 155 LINE",
"648 155 LINE SMOOTH",
"605 155 OFFCURVE",
"575 161 OFFCURVE",
"558 173 CURVE SMOOTH",
"524 197 OFFCURVE",
"503 245 OFFCURVE",
"503 348 CURVE SMOOTH",
"503 697 LINE",
"651 700 OFFCURVE",
"814 724 OFFCURVE",
"871 755 CURVE",
"842 901 LINE",
"814 889 OFFCURVE",
"765 877 OFFCURVE",
"695 865 CURVE SMOOTH",
"625 853 OFFCURVE",
"536 847 OFFCURVE",
"428 847 CURVE SMOOTH",
"320 847 OFFCURVE",
"231 853 OFFCURVE",
"161 865 CURVE SMOOTH",
"91 877 OFFCURVE",
"42 889 OFFCURVE",
"14 901 CURVE",
"-15 755 LINE",
"42 724 OFFCURVE",
"205 700 OFFCURVE",
"353 697 CURVE",
"353 335 LINE SMOOTH",
"353 262 OFFCURVE",
"362 202 OFFCURVE",
"380 155 CURVE",
"0 155 LINE SMOOTH",
"-44 155 OFFCURVE",
"-80 125 OFFCURVE",
"-80 77 CURVE SMOOTH",
"-80 29 OFFCURVE",
"-44 0 OFFCURVE",
"0 0 CURVE SMOOTH"
);
}
);
width = 1081;
}
);
note = g272;
},
{
glyphname = g273;
lastChange = "2016-11-30 01:17:22 +0000";
layers = (
{
layerId = "BBACE0B0-BA28-44BD-A35B-EF629929FF1A";
paths = (
{
closed = 1;
nodes = (
"437 0 LINE",
"473 94 LINE",
"477 94 LINE",
"525 26 OFFCURVE",
"601 0 OFFCURVE",
"698 0 CURVE SMOOTH",
"1069 0 LINE",
"1069 155 LINE",
"711 155 LINE SMOOTH",
"668 155 OFFCURVE",
"638 161 OFFCURVE",
"621 173 CURVE SMOOTH",
"587 197 OFFCURVE",
"566 245 OFFCURVE",
"566 348 CURVE SMOOTH",
"566 697 LINE",
"714 700 OFFCURVE",
"877 724 OFFCURVE",
"934 755 CURVE",
"905 901 LINE",
"877 889 OFFCURVE",
"828 877 OFFCURVE",
"758 865 CURVE SMOOTH",
"688 853 OFFCURVE",
"599 847 OFFCURVE",
"491 847 CURVE SMOOTH",
"383 847 OFFCURVE",
"294 853 OFFCURVE",
"224 865 CURVE SMOOTH",
"154 877 OFFCURVE",
"105 889 OFFCURVE",
"77 901 CURVE",
"48 755 LINE",
"105 724 OFFCURVE",
"268 700 OFFCURVE",
"416 697 CURVE",
"416 335 LINE SMOOTH",
"416 262 OFFCURVE",
"425 202 OFFCURVE",
"443 155 CURVE",
"63 155 LINE SMOOTH",
"19 155 OFFCURVE",
"-17 125 OFFCURVE",
"-17 77 CURVE SMOOTH",
"-17 29 OFFCURVE",
"19 0 OFFCURVE",
"63 0 CURVE SMOOTH"
);
},
{
closed = 1;
nodes = (
"63 0 LINE",
"63 155 LINE",
"0 155 LINE SMOOTH",
"-44 155 OFFCURVE",
"-80 125 OFFCURVE",
"-80 77 CURVE SMOOTH",
"-80 29 OFFCURVE",
"-44 0 OFFCURVE",
"0 0 CURVE SMOOTH"
);
}
);
width = 1069;
}
);
note = g273;
},
{
glyphname = g274;
lastChange = "2016-11-30 01:17:22 +0000";
layers = (
{
layerId = "BBACE0B0-BA28-44BD-A35B-EF629929FF1A";
paths = (
{
closed = 1;
nodes = (
"437 0 LINE",
"473 94 LINE",
"477 94 LINE",
"525 26 OFFCURVE",
"601 0 OFFCURVE",
"698 0 CURVE SMOOTH",
"1044 0 LINE",
"1044 155 LINE",
"711 155 LINE SMOOTH",
"668 155 OFFCURVE",
"638 161 OFFCURVE",
"621 173 CURVE SMOOTH",
"587 197 OFFCURVE",
"566 245 OFFCURVE",
"566 348 CURVE SMOOTH",
"566 697 LINE",
"714 700 OFFCURVE",
"877 724 OFFCURVE",
"934 755 CURVE",
"905 901 LINE",
"877 889 OFFCURVE",
"828 877 OFFCURVE",
"758 865 CURVE SMOOTH",
"688 853 OFFCURVE",
"599 847 OFFCURVE",
"491 847 CURVE SMOOTH",
"383 847 OFFCURVE",
"294 853 OFFCURVE",
"224 865 CURVE SMOOTH",
"154 877 OFFCURVE",
"105 889 OFFCURVE",
"77 901 CURVE",
"48 755 LINE",
"105 724 OFFCURVE",
"268 700 OFFCURVE",
"416 697 CURVE",
"416 335 LINE SMOOTH",
"416 262 OFFCURVE",
"425 202 OFFCURVE",
"443 155 CURVE",
"63 155 LINE SMOOTH",
"19 155 OFFCURVE",
"-17 125 OFFCURVE",
"-17 77 CURVE SMOOTH",
"-17 29 OFFCURVE",
"19 0 OFFCURVE",
"63 0 CURVE SMOOTH"
);
},
{
closed = 1;
nodes = (
"63 0 LINE",
"63 155 LINE",
"0 155 LINE SMOOTH",
"-44 155 OFFCURVE",
"-80 125 OFFCURVE",
"-80 77 CURVE SMOOTH",
"-80 29 OFFCURVE",
"-44 0 OFFCURVE",
"0 0 CURVE SMOOTH"
);
}
);
width = 1144;
}
);
note = g274;
},
{
glyphname = g275;
lastChange = "2016-11-30 01:17:22 +0000";
layers = (
{
layerId = "BBACE0B0-BA28-44BD-A35B-EF629929FF1A";
paths = (
{
closed = 1;
nodes = (
"1793 -492 LINE",
"1793 -288 LINE",
"1698 -288 LINE",
"1548 0 LINE",
"1565 0 LINE",
"1565 155 LINE",
"1549 155 OFFCURVE",
"1535 164 OFFCURVE",
"1522 182 CURVE SMOOTH",
"1509 199 OFFCURVE",
"1491 230 OFFCURVE",
"1468 275 CURVE SMOOTH",
"879 1420 LINE",
"735 1349 LINE",
"1350 155 LINE",
"547 155 LINE SMOOTH",
"358 155 OFFCURVE",
"261 184 OFFCURVE",
"192 283 CURVE",
"100 160 LINE",
"143 61 OFFCURVE",
"279 0 OFFCURVE",
"491 0 CURVE SMOOTH",
"1346 0 LINE",
"1383 94 LINE",
"1387 94 LINE",
"1596 -312 LINE",
"1596 -492 LINE"
);
},
{
closed = 1;
nodes = (
"1844 0 LINE",
"1844 155 LINE",
"1565 155 LINE SMOOTH",
"1521 155 OFFCURVE",
"1485 125 OFFCURVE",
"1485 77 CURVE SMOOTH",
"1485 29 OFFCURVE",
"1521 0 OFFCURVE",
"1565 0 CURVE SMOOTH"
);
}
);
width = 1844;
}
);
note = g275;
},
